G04*
G04 #@! TF.GenerationSoftware,Altium Limited,CircuitStudio,1.5.2 (30)*
G04*
G04 Layer_Color=16720538*
%FSLAX25Y25*%
%MOIN*%
G70*
G01*
G75*
%ADD82C,0.00500*%
D82*
X0Y9843D02*
X54Y8814D01*
X215Y7796D01*
X482Y6801D01*
X851Y5839D01*
X1319Y4921D01*
X1880Y4057D01*
X2528Y3257D01*
X3257Y2528D01*
X4057Y1880D01*
X4921Y1319D01*
X5839Y851D01*
X6801Y482D01*
X7796Y215D01*
X8814Y54D01*
X9843Y0D01*
X118110Y206693D02*
X118056Y207722D01*
X117895Y208739D01*
X117629Y209734D01*
X117259Y210696D01*
X116792Y211614D01*
X116230Y212478D01*
X115582Y213279D01*
X114854Y214007D01*
X114053Y214656D01*
X113189Y215217D01*
X112271Y215685D01*
X111309Y216054D01*
X110314Y216320D01*
X109297Y216481D01*
X108268Y216535D01*
X-19685D02*
X-20682Y216510D01*
X-21677Y216434D01*
X-22666Y216308D01*
X-23648Y216132D01*
X-24619Y215907D01*
X-25578Y215633D01*
X-26522Y215310D01*
X-27448Y214940D01*
X-28354Y214524D01*
X-29238Y214062D01*
X-30098Y213556D01*
X-30931Y213007D01*
X-31734Y212417D01*
X-32507Y211787D01*
X-33247Y211118D01*
X-33953Y210413D01*
X-34621Y209673D01*
X-35252Y208900D01*
X-35842Y208096D01*
X-36391Y207263D01*
X-36897Y206404D01*
X-37358Y205520D01*
X-37775Y204613D01*
X-38145Y203687D01*
X-38467Y202743D01*
X-38742Y201784D01*
X-38967Y200813D01*
X-39143Y199831D01*
X-39269Y198842D01*
X-39345Y197847D01*
X-39370Y196850D01*
X-39345Y195853D01*
X-39269Y194859D01*
X-39143Y193869D01*
X-38967Y192888D01*
X-38742Y191916D01*
X-38467Y190957D01*
X-38145Y190014D01*
X-37775Y189087D01*
X-37358Y188181D01*
X-36897Y187297D01*
X-36391Y186438D01*
X-35842Y185605D01*
X-35252Y184801D01*
X-34621Y184028D01*
X-33953Y183288D01*
X-33247Y182583D01*
X-32507Y181914D01*
X-31734Y181284D01*
X-30930Y180694D01*
X-30098Y180145D01*
X-29238Y179639D01*
X-28354Y179177D01*
X-27448Y178761D01*
X-26522Y178391D01*
X-25578Y178068D01*
X-24619Y177794D01*
X-23648Y177568D01*
X-22666Y177392D01*
X-21677Y177266D01*
X-20682Y177191D01*
X-19685Y177165D01*
X0Y157480D02*
X-25Y158477D01*
X-101Y159472D01*
X-227Y160461D01*
X-403Y161443D01*
X-628Y162414D01*
X-903Y163373D01*
X-1225Y164317D01*
X-1595Y165243D01*
X-2012Y166149D01*
X-2473Y167034D01*
X-2979Y167893D01*
X-3528Y168726D01*
X-4119Y169530D01*
X-4749Y170303D01*
X-5418Y171043D01*
X-6123Y171748D01*
X-6863Y172416D01*
X-7636Y173047D01*
X-8440Y173637D01*
X-9272Y174186D01*
X-10132Y174692D01*
X-11016Y175154D01*
X-11922Y175570D01*
X-12848Y175940D01*
X-13792Y176263D01*
X-14751Y176537D01*
X-15722Y176762D01*
X-16704Y176938D01*
X-17694Y177064D01*
X-18688Y177140D01*
X-19685Y177165D01*
X118110Y59055D02*
X118135Y58058D01*
X118211Y57064D01*
X118337Y56074D01*
X118513Y55093D01*
X118739Y54121D01*
X119013Y53162D01*
X119336Y52218D01*
X119706Y51292D01*
X120122Y50386D01*
X120584Y49502D01*
X121090Y48642D01*
X121639Y47810D01*
X122229Y47006D01*
X122859Y46233D01*
X123528Y45493D01*
X124233Y44787D01*
X124973Y44119D01*
X125746Y43489D01*
X126550Y42898D01*
X127383Y42349D01*
X128242Y41844D01*
X129126Y41382D01*
X130032Y40965D01*
X130959Y40595D01*
X131902Y40273D01*
X132861Y39998D01*
X133833Y39773D01*
X134815Y39597D01*
X135804Y39471D01*
X136798Y39395D01*
X137795Y39370D01*
Y0D02*
X138792Y25D01*
X139787Y101D01*
X140776Y227D01*
X141758Y403D01*
X142729Y628D01*
X143688Y903D01*
X144632Y1225D01*
X145558Y1595D01*
X146465Y2012D01*
X147348Y2473D01*
X148208Y2979D01*
X149041Y3528D01*
X149845Y4119D01*
X150618Y4749D01*
X151358Y5418D01*
X152063Y6123D01*
X152732Y6863D01*
X153362Y7636D01*
X153952Y8440D01*
X154501Y9272D01*
X155007Y10132D01*
X155469Y11016D01*
X155885Y11922D01*
X156255Y12848D01*
X156578Y13792D01*
X156852Y14751D01*
X157077Y15722D01*
X157253Y16704D01*
X157379Y17694D01*
X157455Y18688D01*
X157480Y19685D01*
X157455Y20682D01*
X157379Y21677D01*
X157253Y22666D01*
X157077Y23648D01*
X156852Y24619D01*
X156578Y25578D01*
X156255Y26522D01*
X155885Y27448D01*
X155469Y28354D01*
X155007Y29238D01*
X154501Y30098D01*
X153952Y30931D01*
X153362Y31734D01*
X152731Y32507D01*
X152063Y33247D01*
X151358Y33953D01*
X150618Y34621D01*
X149845Y35252D01*
X149041Y35842D01*
X148208Y36391D01*
X147348Y36897D01*
X146464Y37358D01*
X145558Y37775D01*
X144632Y38145D01*
X143688Y38467D01*
X142729Y38742D01*
X141758Y38967D01*
X140776Y39143D01*
X139787Y39269D01*
X138792Y39345D01*
X137795Y39370D01*
X0Y9843D02*
Y157480D01*
X9843Y0D02*
X137795D01*
X-19685Y216535D02*
X108268D01*
X118110Y59055D02*
Y206693D01*
M02*
