G04*
G04 #@! TF.GenerationSoftware,Altium Limited,CircuitStudio,1.5.2 (30)*
G04*
G04 Layer_Color=13684944*
%FSLAX25Y25*%
%MOIN*%
G70*
G01*
G75*
G36*
X76660Y151365D02*
X76864Y151343D01*
X77040Y151314D01*
X77121Y151292D01*
X77187Y151277D01*
X77252Y151262D01*
X77311Y151241D01*
X77355Y151226D01*
X77391Y151211D01*
X77421Y151197D01*
X77450Y151189D01*
X77457Y151182D01*
X77465D01*
X77640Y151087D01*
X77794Y150977D01*
X77919Y150860D01*
X78028Y150750D01*
X78109Y150648D01*
X78167Y150560D01*
X78189Y150531D01*
X78204Y150508D01*
X78219Y150494D01*
Y150487D01*
X78307Y150311D01*
X78365Y150121D01*
X78409Y149945D01*
X78446Y149769D01*
X78453Y149696D01*
X78460Y149623D01*
X78468Y149564D01*
Y149506D01*
X78475Y149462D01*
Y149433D01*
Y149410D01*
Y149403D01*
X78468Y149191D01*
X78438Y148986D01*
X78402Y148810D01*
X78358Y148657D01*
X78336Y148583D01*
X78314Y148525D01*
X78292Y148474D01*
X78277Y148430D01*
X78263Y148393D01*
X78248Y148371D01*
X78241Y148356D01*
Y148349D01*
X78145Y148188D01*
X78036Y148049D01*
X77926Y147932D01*
X77823Y147837D01*
X77728Y147756D01*
X77655Y147705D01*
X77626Y147683D01*
X77604Y147676D01*
X77589Y147661D01*
X77582D01*
X77413Y147588D01*
X77223Y147529D01*
X77040Y147493D01*
X76864Y147463D01*
X76784Y147456D01*
X76711Y147449D01*
X76645Y147441D01*
X76586D01*
X76542Y147434D01*
X76477D01*
X76279Y147441D01*
X76096Y147456D01*
X75935Y147471D01*
X75796Y147500D01*
X75679Y147522D01*
X75635Y147529D01*
X75598Y147537D01*
X75569Y147544D01*
X75540Y147551D01*
X75532Y147559D01*
X75525D01*
X75371Y147617D01*
X75210Y147690D01*
X75056Y147771D01*
X74910Y147851D01*
X74786Y147925D01*
X74727Y147954D01*
X74683Y147983D01*
X74647Y148005D01*
X74617Y148027D01*
X74603Y148034D01*
X74595Y148042D01*
Y149674D01*
X76418D01*
Y148883D01*
X75627D01*
Y148518D01*
X75715Y148466D01*
X75788Y148430D01*
X75862Y148393D01*
X75920Y148364D01*
X75971Y148349D01*
X76015Y148335D01*
X76037Y148320D01*
X76045D01*
X76176Y148291D01*
X76242Y148283D01*
X76293Y148276D01*
X76345Y148269D01*
X76418D01*
X76564Y148283D01*
X76696Y148312D01*
X76806Y148349D01*
X76901Y148400D01*
X76974Y148452D01*
X77026Y148488D01*
X77055Y148518D01*
X77069Y148532D01*
X77106Y148583D01*
X77143Y148649D01*
X77201Y148781D01*
X77238Y148927D01*
X77267Y149074D01*
X77282Y149206D01*
X77289Y149257D01*
Y149308D01*
X77296Y149352D01*
Y149381D01*
Y149403D01*
Y149410D01*
Y149520D01*
X77289Y149616D01*
X77260Y149791D01*
X77223Y149938D01*
X77179Y150062D01*
X77143Y150150D01*
X77106Y150216D01*
X77077Y150252D01*
X77069Y150267D01*
X76974Y150355D01*
X76879Y150421D01*
X76777Y150472D01*
X76674Y150501D01*
X76586Y150523D01*
X76520Y150531D01*
X76491Y150538D01*
X76455D01*
X76359Y150531D01*
X76279Y150523D01*
X76198Y150501D01*
X76140Y150479D01*
X76089Y150457D01*
X76052Y150443D01*
X76030Y150428D01*
X76023Y150421D01*
X75964Y150377D01*
X75913Y150318D01*
X75869Y150267D01*
X75840Y150216D01*
X75810Y150164D01*
X75796Y150128D01*
X75781Y150099D01*
Y150091D01*
X74647Y150289D01*
X74690Y150421D01*
X74742Y150545D01*
X74793Y150648D01*
X74844Y150735D01*
X74888Y150801D01*
X74925Y150853D01*
X74954Y150889D01*
X74961Y150897D01*
X75042Y150984D01*
X75130Y151058D01*
X75217Y151116D01*
X75298Y151167D01*
X75371Y151204D01*
X75430Y151233D01*
X75466Y151248D01*
X75474Y151255D01*
X75481D01*
X75547Y151277D01*
X75613Y151292D01*
X75759Y151321D01*
X75920Y151343D01*
X76074Y151358D01*
X76206Y151365D01*
X76272Y151372D01*
X76425D01*
X76660Y151365D01*
D02*
G37*
G36*
X92500Y147500D02*
X89491D01*
Y148437D01*
X91321D01*
Y151306D01*
X92500D01*
Y147500D01*
D02*
G37*
G36*
X73893D02*
X72787D01*
Y149593D01*
X71360Y147500D01*
X70254D01*
Y151306D01*
X71360D01*
Y149191D01*
X72802Y151306D01*
X73893D01*
Y147500D01*
D02*
G37*
G36*
X76682Y166365D02*
X76842Y166350D01*
X76989Y166321D01*
X77128Y166292D01*
X77260Y166255D01*
X77377Y166211D01*
X77487Y166160D01*
X77589Y166116D01*
X77670Y166065D01*
X77750Y166014D01*
X77816Y165970D01*
X77867Y165933D01*
X77911Y165904D01*
X77940Y165875D01*
X77955Y165860D01*
X77962Y165853D01*
X78050Y165750D01*
X78131Y165640D01*
X78197Y165523D01*
X78255Y165406D01*
X78307Y165282D01*
X78350Y165164D01*
X78387Y165047D01*
X78409Y164930D01*
X78431Y164820D01*
X78446Y164718D01*
X78460Y164630D01*
X78468Y164550D01*
X78475Y164484D01*
Y164440D01*
Y164403D01*
Y164396D01*
X78460Y164154D01*
X78431Y163942D01*
X78394Y163752D01*
X78372Y163664D01*
X78343Y163591D01*
X78321Y163517D01*
X78299Y163459D01*
X78277Y163408D01*
X78255Y163364D01*
X78241Y163327D01*
X78226Y163305D01*
X78219Y163291D01*
Y163283D01*
X78116Y163129D01*
X77999Y162998D01*
X77882Y162888D01*
X77772Y162800D01*
X77677Y162727D01*
X77604Y162676D01*
X77574Y162661D01*
X77553Y162646D01*
X77538Y162639D01*
X77531D01*
X77362Y162573D01*
X77187Y162522D01*
X77004Y162485D01*
X76835Y162463D01*
X76762Y162449D01*
X76689D01*
X76623Y162441D01*
X76572Y162434D01*
X76462D01*
X76235Y162441D01*
X76030Y162471D01*
X75854Y162507D01*
X75774Y162529D01*
X75701Y162551D01*
X75635Y162573D01*
X75576Y162595D01*
X75525Y162617D01*
X75481Y162632D01*
X75452Y162646D01*
X75430Y162661D01*
X75415Y162668D01*
X75408D01*
X75254Y162764D01*
X75130Y162873D01*
X75012Y162983D01*
X74925Y163086D01*
X74852Y163181D01*
X74800Y163254D01*
X74778Y163283D01*
X74764Y163305D01*
X74756Y163320D01*
Y163327D01*
X74683Y163496D01*
X74625Y163679D01*
X74588Y163862D01*
X74559Y164037D01*
X74551Y164118D01*
X74544Y164191D01*
X74537Y164257D01*
X74529Y164315D01*
Y164359D01*
Y164396D01*
Y164418D01*
Y164425D01*
X74537Y164594D01*
X74551Y164755D01*
X74581Y164901D01*
X74610Y165040D01*
X74647Y165164D01*
X74690Y165282D01*
X74742Y165391D01*
X74786Y165487D01*
X74837Y165574D01*
X74888Y165648D01*
X74932Y165714D01*
X74969Y165765D01*
X74998Y165809D01*
X75027Y165838D01*
X75042Y165853D01*
X75049Y165860D01*
X75152Y165948D01*
X75261Y166028D01*
X75371Y166094D01*
X75496Y166160D01*
X75613Y166204D01*
X75737Y166248D01*
X75854Y166284D01*
X75971Y166306D01*
X76081Y166328D01*
X76184Y166343D01*
X76279Y166358D01*
X76359Y166365D01*
X76425Y166372D01*
X76513D01*
X76682Y166365D01*
D02*
G37*
G36*
X81403Y161834D02*
X78687D01*
Y162097D01*
X81403D01*
Y161834D01*
D02*
G37*
G36*
X88957Y147500D02*
X85751D01*
Y148364D01*
X87779D01*
Y149110D01*
X85949D01*
Y149886D01*
X87779D01*
Y150494D01*
X85809D01*
Y151306D01*
X88957D01*
Y147500D01*
D02*
G37*
G36*
X78402Y179264D02*
X77501Y179132D01*
X77457Y179184D01*
X77413Y179227D01*
X77377Y179257D01*
X77340Y179286D01*
X77311Y179308D01*
X77289Y179323D01*
X77282Y179330D01*
X77274D01*
X77216Y179359D01*
X77165Y179374D01*
X77069Y179403D01*
X77033D01*
X77004Y179411D01*
X76974D01*
X76886Y179403D01*
X76813Y179389D01*
X76747Y179359D01*
X76689Y179330D01*
X76645Y179301D01*
X76616Y179271D01*
X76594Y179257D01*
X76586Y179250D01*
X76535Y179184D01*
X76499Y179103D01*
X76477Y179023D01*
X76455Y178935D01*
X76447Y178861D01*
X76440Y178803D01*
Y178759D01*
Y178752D01*
Y178744D01*
X76447Y178627D01*
X76462Y178525D01*
X76484Y178444D01*
X76513Y178371D01*
X76542Y178320D01*
X76564Y178276D01*
X76579Y178254D01*
X76586Y178247D01*
X76645Y178188D01*
X76703Y178152D01*
X76769Y178122D01*
X76821Y178100D01*
X76872Y178086D01*
X76916Y178078D01*
X76952D01*
X77026Y178086D01*
X77091Y178100D01*
X77150Y178122D01*
X77201Y178144D01*
X77238Y178166D01*
X77267Y178188D01*
X77289Y178203D01*
X77296Y178210D01*
X77340Y178269D01*
X77384Y178327D01*
X77413Y178393D01*
X77435Y178459D01*
X77450Y178517D01*
X77465Y178561D01*
X77472Y178591D01*
Y178605D01*
X78541Y178481D01*
X78512Y178386D01*
X78482Y178298D01*
X78446Y178225D01*
X78416Y178159D01*
X78394Y178108D01*
X78372Y178071D01*
X78358Y178042D01*
X78350Y178034D01*
X78255Y177910D01*
X78204Y177859D01*
X78153Y177807D01*
X78116Y177771D01*
X78080Y177742D01*
X78058Y177720D01*
X78050Y177712D01*
X77977Y177661D01*
X77897Y177617D01*
X77823Y177588D01*
X77750Y177551D01*
X77684Y177529D01*
X77633Y177515D01*
X77604Y177500D01*
X77589D01*
X77487Y177478D01*
X77377Y177463D01*
X77267Y177449D01*
X77165Y177441D01*
X77077D01*
X77011Y177434D01*
X76945D01*
X76755Y177441D01*
X76586Y177463D01*
X76440Y177493D01*
X76315Y177522D01*
X76213Y177551D01*
X76140Y177580D01*
X76118Y177595D01*
X76096Y177603D01*
X76089Y177610D01*
X76081D01*
X75964Y177683D01*
X75854Y177771D01*
X75766Y177851D01*
X75693Y177939D01*
X75635Y178012D01*
X75598Y178071D01*
X75569Y178115D01*
X75561Y178129D01*
X75503Y178261D01*
X75459Y178386D01*
X75422Y178503D01*
X75401Y178613D01*
X75386Y178708D01*
X75379Y178774D01*
Y178803D01*
Y178825D01*
Y178832D01*
Y178840D01*
X75386Y178935D01*
X75393Y179030D01*
X75437Y179198D01*
X75488Y179345D01*
X75554Y179476D01*
X75620Y179572D01*
X75679Y179652D01*
X75701Y179674D01*
X75723Y179696D01*
X75730Y179703D01*
X75737Y179711D01*
X75803Y179769D01*
X75876Y179828D01*
X76030Y179916D01*
X76184Y179974D01*
X76330Y180018D01*
X76462Y180047D01*
X76520Y180055D01*
X76564D01*
X76608Y180062D01*
X76660D01*
X76784Y180055D01*
X76842Y180047D01*
X76894Y180040D01*
X76938Y180033D01*
X76974Y180025D01*
X76996Y180018D01*
X77004D01*
X77128Y179982D01*
X77187Y179959D01*
X77245Y179938D01*
X77289Y179923D01*
X77326Y179908D01*
X77348Y179901D01*
X77355Y179894D01*
X77260Y180465D01*
X75561D01*
Y181306D01*
X78065D01*
X78402Y179264D01*
D02*
G37*
G36*
X73731Y177500D02*
X72451D01*
X71038Y181306D01*
X72231D01*
X73080Y178561D01*
X73944Y181306D01*
X75166D01*
X73731Y177500D01*
D02*
G37*
G36*
X81403Y146834D02*
X78687D01*
Y147097D01*
X81403D01*
Y146834D01*
D02*
G37*
G36*
X85107Y147500D02*
X83365D01*
X83240Y147507D01*
X83123Y147515D01*
X83006Y147529D01*
X82896Y147551D01*
X82801Y147573D01*
X82728Y147588D01*
X82699Y147595D01*
X82677D01*
X82669Y147602D01*
X82662D01*
X82559Y147639D01*
X82457Y147683D01*
X82369Y147727D01*
X82289Y147778D01*
X82223Y147829D01*
X82171Y147866D01*
X82142Y147895D01*
X82128Y147903D01*
X82040Y147990D01*
X81959Y148086D01*
X81893Y148181D01*
X81842Y148269D01*
X81798Y148349D01*
X81762Y148408D01*
X81747Y148452D01*
X81740Y148466D01*
X81696Y148605D01*
X81659Y148759D01*
X81637Y148913D01*
X81615Y149066D01*
X81608Y149198D01*
Y149257D01*
X81600Y149308D01*
Y149352D01*
Y149381D01*
Y149403D01*
Y149410D01*
X81608Y149557D01*
X81615Y149689D01*
X81630Y149813D01*
X81644Y149923D01*
X81666Y150018D01*
X81681Y150091D01*
X81688Y150135D01*
X81696Y150143D01*
Y150150D01*
X81740Y150274D01*
X81783Y150391D01*
X81835Y150494D01*
X81886Y150589D01*
X81930Y150655D01*
X81967Y150714D01*
X81996Y150743D01*
X82003Y150757D01*
X82084Y150853D01*
X82171Y150933D01*
X82259Y150999D01*
X82340Y151058D01*
X82420Y151101D01*
X82479Y151138D01*
X82516Y151153D01*
X82523Y151160D01*
X82530D01*
X82655Y151211D01*
X82794Y151248D01*
X82933Y151270D01*
X83065Y151292D01*
X83182Y151299D01*
X83233D01*
X83277Y151306D01*
X85107D01*
Y147500D01*
D02*
G37*
G36*
X69457D02*
X67715D01*
X67590Y147507D01*
X67473Y147515D01*
X67356Y147529D01*
X67246Y147551D01*
X67151Y147573D01*
X67078Y147588D01*
X67048Y147595D01*
X67026D01*
X67019Y147602D01*
X67012D01*
X66909Y147639D01*
X66807Y147683D01*
X66719Y147727D01*
X66638Y147778D01*
X66573Y147829D01*
X66521Y147866D01*
X66492Y147895D01*
X66477Y147903D01*
X66390Y147990D01*
X66309Y148086D01*
X66243Y148181D01*
X66192Y148269D01*
X66148Y148349D01*
X66111Y148408D01*
X66097Y148452D01*
X66089Y148466D01*
X66045Y148605D01*
X66009Y148759D01*
X65987Y148913D01*
X65965Y149066D01*
X65958Y149198D01*
Y149257D01*
X65950Y149308D01*
Y149352D01*
Y149381D01*
Y149403D01*
Y149410D01*
X65958Y149557D01*
X65965Y149689D01*
X65980Y149813D01*
X65994Y149923D01*
X66016Y150018D01*
X66031Y150091D01*
X66038Y150135D01*
X66045Y150143D01*
Y150150D01*
X66089Y150274D01*
X66133Y150391D01*
X66185Y150494D01*
X66236Y150589D01*
X66280Y150655D01*
X66316Y150714D01*
X66346Y150743D01*
X66353Y150757D01*
X66434Y150853D01*
X66521Y150933D01*
X66609Y150999D01*
X66690Y151058D01*
X66770Y151101D01*
X66829Y151138D01*
X66865Y151153D01*
X66873Y151160D01*
X66880D01*
X67004Y151211D01*
X67143Y151248D01*
X67283Y151270D01*
X67414Y151292D01*
X67532Y151299D01*
X67583D01*
X67627Y151306D01*
X69457D01*
Y147500D01*
D02*
G37*
G36*
X85824Y131365D02*
X85985Y131350D01*
X86132Y131321D01*
X86271Y131292D01*
X86402Y131255D01*
X86520Y131211D01*
X86629Y131160D01*
X86732Y131116D01*
X86812Y131065D01*
X86893Y131014D01*
X86959Y130970D01*
X87010Y130933D01*
X87054Y130904D01*
X87083Y130875D01*
X87098Y130860D01*
X87105Y130853D01*
X87193Y130750D01*
X87274Y130640D01*
X87339Y130523D01*
X87398Y130406D01*
X87449Y130282D01*
X87493Y130165D01*
X87530Y130047D01*
X87552Y129930D01*
X87574Y129820D01*
X87588Y129718D01*
X87603Y129630D01*
X87610Y129550D01*
X87618Y129484D01*
Y129440D01*
Y129403D01*
Y129396D01*
X87603Y129154D01*
X87574Y128942D01*
X87537Y128752D01*
X87515Y128664D01*
X87486Y128591D01*
X87464Y128517D01*
X87442Y128459D01*
X87420Y128408D01*
X87398Y128364D01*
X87383Y128327D01*
X87369Y128305D01*
X87361Y128291D01*
Y128283D01*
X87259Y128129D01*
X87142Y127998D01*
X87025Y127888D01*
X86915Y127800D01*
X86820Y127727D01*
X86747Y127676D01*
X86717Y127661D01*
X86695Y127646D01*
X86681Y127639D01*
X86673D01*
X86505Y127573D01*
X86329Y127522D01*
X86146Y127485D01*
X85978Y127463D01*
X85905Y127449D01*
X85831D01*
X85766Y127441D01*
X85714Y127434D01*
X85605D01*
X85378Y127441D01*
X85173Y127471D01*
X84997Y127507D01*
X84917Y127529D01*
X84843Y127551D01*
X84777Y127573D01*
X84719Y127595D01*
X84668Y127617D01*
X84624Y127632D01*
X84594Y127646D01*
X84572Y127661D01*
X84558Y127668D01*
X84550D01*
X84397Y127763D01*
X84272Y127873D01*
X84155Y127983D01*
X84067Y128086D01*
X83994Y128181D01*
X83943Y128254D01*
X83921Y128283D01*
X83906Y128305D01*
X83899Y128320D01*
Y128327D01*
X83826Y128496D01*
X83767Y128679D01*
X83731Y128861D01*
X83701Y129037D01*
X83694Y129118D01*
X83687Y129191D01*
X83679Y129257D01*
X83672Y129315D01*
Y129359D01*
Y129396D01*
Y129418D01*
Y129425D01*
X83679Y129594D01*
X83694Y129755D01*
X83723Y129901D01*
X83753Y130040D01*
X83789Y130165D01*
X83833Y130282D01*
X83884Y130391D01*
X83928Y130487D01*
X83979Y130574D01*
X84031Y130648D01*
X84075Y130713D01*
X84111Y130765D01*
X84141Y130809D01*
X84170Y130838D01*
X84184Y130853D01*
X84192Y130860D01*
X84294Y130948D01*
X84404Y131028D01*
X84514Y131094D01*
X84638Y131160D01*
X84755Y131204D01*
X84880Y131248D01*
X84997Y131284D01*
X85114Y131306D01*
X85224Y131328D01*
X85326Y131343D01*
X85422Y131358D01*
X85502Y131365D01*
X85568Y131372D01*
X85656D01*
X85824Y131365D01*
D02*
G37*
G36*
X77560D02*
X77721Y131350D01*
X77867Y131321D01*
X78006Y131292D01*
X78138Y131255D01*
X78255Y131211D01*
X78365Y131160D01*
X78468Y131116D01*
X78548Y131065D01*
X78629Y131014D01*
X78694Y130970D01*
X78746Y130933D01*
X78790Y130904D01*
X78819Y130875D01*
X78834Y130860D01*
X78841Y130853D01*
X78929Y130750D01*
X79009Y130640D01*
X79075Y130523D01*
X79134Y130406D01*
X79185Y130282D01*
X79229Y130165D01*
X79265Y130047D01*
X79287Y129930D01*
X79309Y129820D01*
X79324Y129718D01*
X79339Y129630D01*
X79346Y129550D01*
X79353Y129484D01*
Y129440D01*
Y129403D01*
Y129396D01*
X79339Y129154D01*
X79309Y128942D01*
X79273Y128752D01*
X79251Y128664D01*
X79221Y128591D01*
X79200Y128517D01*
X79178Y128459D01*
X79156Y128408D01*
X79134Y128364D01*
X79119Y128327D01*
X79104Y128305D01*
X79097Y128291D01*
Y128283D01*
X78995Y128129D01*
X78878Y127998D01*
X78760Y127888D01*
X78651Y127800D01*
X78555Y127727D01*
X78482Y127676D01*
X78453Y127661D01*
X78431Y127646D01*
X78416Y127639D01*
X78409D01*
X78241Y127573D01*
X78065Y127522D01*
X77882Y127485D01*
X77714Y127463D01*
X77640Y127449D01*
X77567D01*
X77501Y127441D01*
X77450Y127434D01*
X77340D01*
X77113Y127441D01*
X76908Y127471D01*
X76733Y127507D01*
X76652Y127529D01*
X76579Y127551D01*
X76513Y127573D01*
X76455Y127595D01*
X76403Y127617D01*
X76359Y127632D01*
X76330Y127646D01*
X76308Y127661D01*
X76293Y127668D01*
X76286D01*
X76133Y127763D01*
X76008Y127873D01*
X75891Y127983D01*
X75803Y128086D01*
X75730Y128181D01*
X75679Y128254D01*
X75657Y128283D01*
X75642Y128305D01*
X75635Y128320D01*
Y128327D01*
X75561Y128496D01*
X75503Y128679D01*
X75466Y128861D01*
X75437Y129037D01*
X75430Y129118D01*
X75422Y129191D01*
X75415Y129257D01*
X75408Y129315D01*
Y129359D01*
Y129396D01*
Y129418D01*
Y129425D01*
X75415Y129594D01*
X75430Y129755D01*
X75459Y129901D01*
X75488Y130040D01*
X75525Y130165D01*
X75569Y130282D01*
X75620Y130391D01*
X75664Y130487D01*
X75715Y130574D01*
X75766Y130648D01*
X75810Y130713D01*
X75847Y130765D01*
X75876Y130809D01*
X75906Y130838D01*
X75920Y130853D01*
X75928Y130860D01*
X76030Y130948D01*
X76140Y131028D01*
X76250Y131094D01*
X76374Y131160D01*
X76491Y131204D01*
X76616Y131248D01*
X76733Y131284D01*
X76850Y131306D01*
X76960Y131328D01*
X77062Y131343D01*
X77157Y131358D01*
X77238Y131365D01*
X77304Y131372D01*
X77391D01*
X77560Y131365D01*
D02*
G37*
G36*
X63557Y127500D02*
X60351D01*
Y128364D01*
X62378D01*
Y129110D01*
X60548D01*
Y129886D01*
X62378D01*
Y130494D01*
X60409D01*
Y131306D01*
X63557D01*
Y127500D01*
D02*
G37*
G36*
X83313Y130369D02*
X82113D01*
Y127500D01*
X80934D01*
Y130369D01*
X79734D01*
Y131306D01*
X83313D01*
Y130369D01*
D02*
G37*
G36*
X74764Y127500D02*
X73585D01*
Y129044D01*
X73483D01*
X73424Y129037D01*
X73373Y129030D01*
X73322Y129015D01*
X73278Y129001D01*
X73248Y128979D01*
X73219Y128964D01*
X73204Y128957D01*
X73197Y128949D01*
X73161Y128920D01*
X73124Y128876D01*
X73058Y128781D01*
X73029Y128730D01*
X73007Y128693D01*
X72992Y128664D01*
X72985Y128657D01*
X72348Y127500D01*
X71016D01*
X71594Y128598D01*
X71616Y128635D01*
X71638Y128671D01*
X71697Y128744D01*
X71719Y128781D01*
X71741Y128810D01*
X71755Y128825D01*
X71762Y128832D01*
X71806Y128884D01*
X71843Y128927D01*
X71872Y128964D01*
X71894Y128993D01*
X71931Y129030D01*
X71945Y129037D01*
X71989Y129059D01*
X72033Y129088D01*
X72136Y129132D01*
X72180Y129147D01*
X72216Y129162D01*
X72246Y129176D01*
X72253D01*
X72158Y129198D01*
X72077Y129227D01*
X72004Y129250D01*
X71945Y129271D01*
X71902Y129293D01*
X71865Y129308D01*
X71843Y129323D01*
X71836D01*
X71755Y129381D01*
X71675Y129440D01*
X71616Y129506D01*
X71557Y129564D01*
X71521Y129615D01*
X71484Y129659D01*
X71470Y129689D01*
X71462Y129696D01*
X71418Y129784D01*
X71382Y129879D01*
X71360Y129974D01*
X71338Y130062D01*
X71331Y130135D01*
X71323Y130194D01*
Y130230D01*
Y130245D01*
X71331Y130377D01*
X71352Y130494D01*
X71382Y130604D01*
X71411Y130692D01*
X71448Y130765D01*
X71477Y130816D01*
X71499Y130845D01*
X71506Y130860D01*
X71579Y130948D01*
X71653Y131021D01*
X71733Y131087D01*
X71806Y131131D01*
X71872Y131167D01*
X71924Y131189D01*
X71960Y131204D01*
X71975Y131211D01*
X72092Y131240D01*
X72224Y131270D01*
X72363Y131284D01*
X72494Y131292D01*
X72612Y131299D01*
X72670Y131306D01*
X74764D01*
Y127500D01*
D02*
G37*
G36*
X71060Y126834D02*
X68344D01*
Y127097D01*
X71060D01*
Y126834D01*
D02*
G37*
G36*
X85107Y162500D02*
X83365D01*
X83240Y162507D01*
X83123Y162515D01*
X83006Y162529D01*
X82896Y162551D01*
X82801Y162573D01*
X82728Y162588D01*
X82699Y162595D01*
X82677D01*
X82669Y162602D01*
X82662D01*
X82559Y162639D01*
X82457Y162683D01*
X82369Y162727D01*
X82289Y162778D01*
X82223Y162829D01*
X82171Y162866D01*
X82142Y162895D01*
X82128Y162903D01*
X82040Y162990D01*
X81959Y163086D01*
X81893Y163181D01*
X81842Y163269D01*
X81798Y163349D01*
X81762Y163408D01*
X81747Y163452D01*
X81740Y163466D01*
X81696Y163605D01*
X81659Y163759D01*
X81637Y163913D01*
X81615Y164067D01*
X81608Y164198D01*
Y164257D01*
X81600Y164308D01*
Y164352D01*
Y164381D01*
Y164403D01*
Y164410D01*
X81608Y164557D01*
X81615Y164689D01*
X81630Y164813D01*
X81644Y164923D01*
X81666Y165018D01*
X81681Y165091D01*
X81688Y165135D01*
X81696Y165143D01*
Y165150D01*
X81740Y165274D01*
X81783Y165391D01*
X81835Y165494D01*
X81886Y165589D01*
X81930Y165655D01*
X81967Y165714D01*
X81996Y165743D01*
X82003Y165757D01*
X82084Y165853D01*
X82171Y165933D01*
X82259Y165999D01*
X82340Y166058D01*
X82420Y166101D01*
X82479Y166138D01*
X82516Y166153D01*
X82523Y166160D01*
X82530D01*
X82655Y166211D01*
X82794Y166248D01*
X82933Y166270D01*
X83065Y166292D01*
X83182Y166299D01*
X83233D01*
X83277Y166306D01*
X85107D01*
Y162500D01*
D02*
G37*
G36*
X69742Y165369D02*
X68542D01*
Y162500D01*
X67363D01*
Y165369D01*
X66163D01*
Y166306D01*
X69742D01*
Y165369D01*
D02*
G37*
G36*
X88957Y162500D02*
X85751D01*
Y163364D01*
X87779D01*
Y164110D01*
X85949D01*
Y164886D01*
X87779D01*
Y165494D01*
X85809D01*
Y166306D01*
X88957D01*
Y162500D01*
D02*
G37*
G36*
X73893Y164037D02*
X73885Y163927D01*
X73878Y163818D01*
X73863Y163708D01*
X73841Y163605D01*
X73819Y163525D01*
X73805Y163452D01*
X73797Y163408D01*
X73790Y163400D01*
Y163393D01*
X73761Y163312D01*
X73717Y163232D01*
X73673Y163152D01*
X73636Y163086D01*
X73592Y163034D01*
X73563Y162990D01*
X73541Y162961D01*
X73534Y162954D01*
X73461Y162881D01*
X73395Y162815D01*
X73329Y162756D01*
X73263Y162712D01*
X73212Y162676D01*
X73168Y162646D01*
X73139Y162632D01*
X73131Y162624D01*
X73043Y162588D01*
X72956Y162551D01*
X72860Y162522D01*
X72773Y162507D01*
X72699Y162485D01*
X72633Y162478D01*
X72597Y162471D01*
X72582D01*
X72465Y162456D01*
X72348Y162449D01*
X72246Y162441D01*
X72158D01*
X72084Y162434D01*
X71982D01*
X71806Y162441D01*
X71645Y162456D01*
X71506Y162471D01*
X71389Y162500D01*
X71287Y162522D01*
X71213Y162537D01*
X71192Y162544D01*
X71170Y162551D01*
X71162Y162559D01*
X71155D01*
X71067Y162595D01*
X70979Y162646D01*
X70899Y162698D01*
X70833Y162749D01*
X70774Y162800D01*
X70723Y162837D01*
X70694Y162866D01*
X70686Y162873D01*
X70606Y162961D01*
X70540Y163049D01*
X70481Y163137D01*
X70438Y163225D01*
X70401Y163291D01*
X70379Y163349D01*
X70364Y163386D01*
X70357Y163400D01*
X70320Y163517D01*
X70291Y163627D01*
X70276Y163737D01*
X70262Y163832D01*
X70254Y163913D01*
X70247Y163979D01*
Y164023D01*
Y164037D01*
Y166306D01*
X71418D01*
Y163979D01*
X71426Y163869D01*
X71448Y163766D01*
X71477Y163686D01*
X71506Y163613D01*
X71535Y163561D01*
X71565Y163517D01*
X71587Y163496D01*
X71594Y163488D01*
X71667Y163430D01*
X71741Y163393D01*
X71821Y163364D01*
X71894Y163342D01*
X71967Y163327D01*
X72019Y163320D01*
X72070D01*
X72180Y163327D01*
X72275Y163349D01*
X72355Y163371D01*
X72429Y163408D01*
X72480Y163437D01*
X72524Y163459D01*
X72546Y163481D01*
X72553Y163488D01*
X72612Y163561D01*
X72648Y163642D01*
X72677Y163722D01*
X72699Y163803D01*
X72714Y163869D01*
X72721Y163927D01*
Y163964D01*
Y163979D01*
Y166306D01*
X73893D01*
Y164037D01*
D02*
G37*
G36*
X92500Y162500D02*
X89491D01*
Y163437D01*
X91321D01*
Y166306D01*
X92500D01*
Y162500D01*
D02*
G37*
G36*
X17057Y175999D02*
X17189Y175992D01*
X17313Y175977D01*
X17423Y175962D01*
X17518Y175940D01*
X17591Y175926D01*
X17635Y175918D01*
X17642Y175911D01*
X17650D01*
X17774Y175867D01*
X17891Y175823D01*
X17994Y175772D01*
X18089Y175721D01*
X18155Y175677D01*
X18214Y175640D01*
X18243Y175611D01*
X18257Y175604D01*
X18353Y175523D01*
X18433Y175435D01*
X18499Y175347D01*
X18557Y175267D01*
X18601Y175186D01*
X18638Y175128D01*
X18653Y175091D01*
X18660Y175084D01*
Y175077D01*
X18711Y174952D01*
X18748Y174813D01*
X18770Y174674D01*
X18792Y174542D01*
X18799Y174425D01*
Y174374D01*
X18806Y174330D01*
Y174293D01*
Y174264D01*
Y174249D01*
Y174242D01*
Y172500D01*
X15000D01*
Y174242D01*
X15007Y174367D01*
X15015Y174484D01*
X15029Y174601D01*
X15051Y174711D01*
X15073Y174806D01*
X15088Y174879D01*
X15095Y174908D01*
Y174930D01*
X15102Y174938D01*
Y174945D01*
X15139Y175047D01*
X15183Y175150D01*
X15227Y175238D01*
X15278Y175318D01*
X15329Y175384D01*
X15366Y175435D01*
X15395Y175465D01*
X15403Y175479D01*
X15490Y175567D01*
X15586Y175648D01*
X15681Y175714D01*
X15769Y175765D01*
X15849Y175809D01*
X15908Y175845D01*
X15952Y175860D01*
X15966Y175867D01*
X16105Y175911D01*
X16259Y175948D01*
X16413Y175970D01*
X16567Y175992D01*
X16698Y175999D01*
X16757D01*
X16808Y176006D01*
X16910D01*
X17057Y175999D01*
D02*
G37*
G36*
X27057Y200214D02*
X27189Y200206D01*
X27313Y200192D01*
X27423Y200177D01*
X27518Y200155D01*
X27591Y200140D01*
X27635Y200133D01*
X27643Y200126D01*
X27650D01*
X27774Y200082D01*
X27891Y200038D01*
X27994Y199987D01*
X28089Y199935D01*
X28155Y199891D01*
X28214Y199855D01*
X28243Y199826D01*
X28257Y199818D01*
X28353Y199738D01*
X28433Y199650D01*
X28499Y199562D01*
X28558Y199481D01*
X28601Y199401D01*
X28638Y199342D01*
X28653Y199306D01*
X28660Y199299D01*
Y199291D01*
X28711Y199167D01*
X28748Y199028D01*
X28770Y198889D01*
X28792Y198757D01*
X28799Y198640D01*
Y198589D01*
X28806Y198545D01*
Y198508D01*
Y198479D01*
Y198464D01*
Y198457D01*
Y196715D01*
X25000D01*
Y198457D01*
X25007Y198581D01*
X25015Y198698D01*
X25029Y198815D01*
X25051Y198925D01*
X25073Y199020D01*
X25088Y199094D01*
X25095Y199123D01*
Y199145D01*
X25102Y199152D01*
Y199159D01*
X25139Y199262D01*
X25183Y199364D01*
X25227Y199452D01*
X25278Y199533D01*
X25329Y199599D01*
X25366Y199650D01*
X25395Y199679D01*
X25403Y199694D01*
X25490Y199782D01*
X25586Y199862D01*
X25681Y199928D01*
X25769Y199979D01*
X25849Y200023D01*
X25908Y200060D01*
X25952Y200074D01*
X25966Y200082D01*
X26105Y200126D01*
X26259Y200162D01*
X26413Y200184D01*
X26566Y200206D01*
X26698Y200214D01*
X26757D01*
X26808Y200221D01*
X26910D01*
X27057Y200214D01*
D02*
G37*
G36*
X16208Y180135D02*
X16325Y180113D01*
X16427Y180076D01*
X16515Y180047D01*
X16588Y180010D01*
X16640Y179974D01*
X16676Y179952D01*
X16684Y179944D01*
X16764Y179864D01*
X16837Y179769D01*
X16896Y179674D01*
X16940Y179571D01*
X16976Y179483D01*
X16998Y179410D01*
X17013Y179381D01*
Y179359D01*
X17020Y179351D01*
Y179344D01*
X17057Y179439D01*
X17101Y179520D01*
X17145Y179593D01*
X17181Y179652D01*
X17218Y179696D01*
X17247Y179725D01*
X17269Y179747D01*
X17277Y179754D01*
X17372Y179827D01*
X17467Y179879D01*
X17569Y179915D01*
X17657Y179937D01*
X17738Y179959D01*
X17796Y179966D01*
X17855D01*
X18001Y179952D01*
X18133Y179922D01*
X18243Y179871D01*
X18345Y179820D01*
X18418Y179761D01*
X18477Y179710D01*
X18514Y179681D01*
X18528Y179666D01*
X18623Y179549D01*
X18689Y179410D01*
X18741Y179271D01*
X18770Y179139D01*
X18792Y179015D01*
X18799Y178964D01*
Y178912D01*
X18806Y178876D01*
Y178846D01*
Y178832D01*
Y178824D01*
Y176628D01*
X15000D01*
Y178656D01*
Y178715D01*
X15007Y178788D01*
X15015Y178876D01*
X15029Y178964D01*
X15037Y179044D01*
X15044Y179110D01*
X15051Y179161D01*
Y179168D01*
Y179176D01*
X15066Y179278D01*
X15088Y179374D01*
X15110Y179447D01*
X15124Y179513D01*
X15146Y179564D01*
X15161Y179593D01*
X15176Y179615D01*
Y179622D01*
X15227Y179710D01*
X15285Y179783D01*
X15351Y179849D01*
X15410Y179901D01*
X15461Y179944D01*
X15505Y179981D01*
X15534Y179996D01*
X15542Y180003D01*
X15637Y180047D01*
X15725Y180084D01*
X15820Y180105D01*
X15900Y180127D01*
X15974Y180135D01*
X16025Y180142D01*
X16076D01*
X16208Y180135D01*
D02*
G37*
G36*
X14597Y184768D02*
X14334D01*
Y187484D01*
X14597D01*
Y184768D01*
D02*
G37*
G36*
X17174Y182668D02*
X16384D01*
Y183458D01*
X16017D01*
X15966Y183370D01*
X15930Y183297D01*
X15893Y183224D01*
X15864Y183165D01*
X15849Y183114D01*
X15834Y183070D01*
X15820Y183048D01*
Y183041D01*
X15791Y182909D01*
X15783Y182843D01*
X15776Y182792D01*
X15769Y182741D01*
Y182704D01*
Y182675D01*
Y182668D01*
X15783Y182521D01*
X15812Y182389D01*
X15849Y182280D01*
X15900Y182184D01*
X15952Y182111D01*
X15988Y182060D01*
X16017Y182031D01*
X16032Y182016D01*
X16083Y181979D01*
X16149Y181943D01*
X16281Y181884D01*
X16427Y181848D01*
X16574Y181818D01*
X16706Y181804D01*
X16757Y181796D01*
X16808D01*
X16852Y181789D01*
X17020D01*
X17116Y181796D01*
X17291Y181826D01*
X17438Y181862D01*
X17562Y181906D01*
X17650Y181943D01*
X17716Y181979D01*
X17752Y182009D01*
X17767Y182016D01*
X17855Y182111D01*
X17921Y182206D01*
X17972Y182309D01*
X18001Y182411D01*
X18023Y182499D01*
X18031Y182565D01*
X18038Y182594D01*
Y182616D01*
Y182624D01*
Y182631D01*
X18031Y182726D01*
X18023Y182807D01*
X18001Y182887D01*
X17979Y182946D01*
X17957Y182997D01*
X17943Y183034D01*
X17928Y183055D01*
X17921Y183063D01*
X17877Y183121D01*
X17818Y183173D01*
X17767Y183217D01*
X17716Y183246D01*
X17664Y183275D01*
X17628Y183290D01*
X17599Y183304D01*
X17591D01*
X17789Y184439D01*
X17921Y184395D01*
X18045Y184344D01*
X18148Y184292D01*
X18235Y184241D01*
X18301Y184197D01*
X18353Y184161D01*
X18389Y184132D01*
X18396Y184124D01*
X18484Y184044D01*
X18557Y183956D01*
X18616Y183868D01*
X18667Y183787D01*
X18704Y183714D01*
X18733Y183656D01*
X18748Y183619D01*
X18755Y183612D01*
Y183604D01*
X18777Y183539D01*
X18792Y183473D01*
X18821Y183326D01*
X18843Y183165D01*
X18858Y183011D01*
X18865Y182880D01*
X18872Y182814D01*
Y182763D01*
Y182719D01*
Y182689D01*
Y182668D01*
Y182660D01*
X18865Y182426D01*
X18843Y182221D01*
X18814Y182045D01*
X18792Y181965D01*
X18777Y181899D01*
X18763Y181833D01*
X18741Y181774D01*
X18726Y181730D01*
X18711Y181694D01*
X18697Y181665D01*
X18689Y181635D01*
X18682Y181628D01*
Y181621D01*
X18587Y181445D01*
X18477Y181291D01*
X18360Y181167D01*
X18250Y181057D01*
X18148Y180977D01*
X18060Y180918D01*
X18031Y180896D01*
X18009Y180881D01*
X17994Y180867D01*
X17987D01*
X17811Y180779D01*
X17621Y180720D01*
X17445Y180676D01*
X17269Y180640D01*
X17196Y180632D01*
X17123Y180625D01*
X17064Y180618D01*
X17006D01*
X16962Y180611D01*
X16903D01*
X16691Y180618D01*
X16486Y180647D01*
X16310Y180684D01*
X16157Y180728D01*
X16083Y180750D01*
X16025Y180772D01*
X15974Y180794D01*
X15930Y180808D01*
X15893Y180823D01*
X15871Y180838D01*
X15856Y180845D01*
X15849D01*
X15688Y180940D01*
X15549Y181050D01*
X15432Y181160D01*
X15337Y181262D01*
X15256Y181357D01*
X15205Y181430D01*
X15183Y181460D01*
X15176Y181482D01*
X15161Y181496D01*
Y181504D01*
X15088Y181672D01*
X15029Y181862D01*
X14993Y182045D01*
X14963Y182221D01*
X14956Y182301D01*
X14949Y182375D01*
X14941Y182441D01*
Y182499D01*
X14934Y182543D01*
Y182580D01*
Y182602D01*
Y182609D01*
X14941Y182807D01*
X14956Y182990D01*
X14971Y183151D01*
X15000Y183290D01*
X15022Y183407D01*
X15029Y183451D01*
X15037Y183487D01*
X15044Y183517D01*
X15051Y183546D01*
X15059Y183553D01*
Y183561D01*
X15117Y183714D01*
X15190Y183875D01*
X15271Y184029D01*
X15351Y184175D01*
X15425Y184300D01*
X15454Y184358D01*
X15483Y184402D01*
X15505Y184439D01*
X15527Y184468D01*
X15534Y184483D01*
X15542Y184490D01*
X17174D01*
Y182668D01*
D02*
G37*
G36*
X28806Y194811D02*
X26691D01*
X28806Y193369D01*
Y192279D01*
X25000D01*
Y193384D01*
X27093D01*
X25000Y194811D01*
Y195917D01*
X28806D01*
Y194811D01*
D02*
G37*
G36*
X26208Y180135D02*
X26325Y180113D01*
X26427Y180076D01*
X26515Y180047D01*
X26588Y180010D01*
X26640Y179974D01*
X26676Y179952D01*
X26684Y179944D01*
X26764Y179864D01*
X26837Y179769D01*
X26896Y179674D01*
X26940Y179571D01*
X26976Y179483D01*
X26998Y179410D01*
X27013Y179381D01*
Y179359D01*
X27020Y179351D01*
Y179344D01*
X27057Y179439D01*
X27101Y179520D01*
X27145Y179593D01*
X27181Y179652D01*
X27218Y179696D01*
X27247Y179725D01*
X27269Y179747D01*
X27277Y179754D01*
X27372Y179827D01*
X27467Y179879D01*
X27569Y179915D01*
X27657Y179937D01*
X27738Y179959D01*
X27796Y179966D01*
X27855D01*
X28001Y179952D01*
X28133Y179922D01*
X28243Y179871D01*
X28345Y179820D01*
X28418Y179761D01*
X28477Y179710D01*
X28514Y179681D01*
X28528Y179666D01*
X28623Y179549D01*
X28689Y179410D01*
X28741Y179271D01*
X28770Y179139D01*
X28792Y179015D01*
X28799Y178964D01*
Y178912D01*
X28806Y178876D01*
Y178846D01*
Y178832D01*
Y178824D01*
Y176628D01*
X25000D01*
Y178656D01*
Y178715D01*
X25007Y178788D01*
X25015Y178876D01*
X25029Y178964D01*
X25037Y179044D01*
X25044Y179110D01*
X25051Y179161D01*
Y179168D01*
Y179176D01*
X25066Y179278D01*
X25088Y179374D01*
X25110Y179447D01*
X25124Y179513D01*
X25146Y179564D01*
X25161Y179593D01*
X25176Y179615D01*
Y179622D01*
X25227Y179710D01*
X25286Y179783D01*
X25351Y179849D01*
X25410Y179901D01*
X25461Y179944D01*
X25505Y179981D01*
X25534Y179996D01*
X25542Y180003D01*
X25637Y180047D01*
X25725Y180084D01*
X25820Y180105D01*
X25900Y180127D01*
X25974Y180135D01*
X26025Y180142D01*
X26076D01*
X26208Y180135D01*
D02*
G37*
G36*
X27057Y175999D02*
X27189Y175992D01*
X27313Y175977D01*
X27423Y175962D01*
X27518Y175940D01*
X27591Y175926D01*
X27635Y175918D01*
X27643Y175911D01*
X27650D01*
X27774Y175867D01*
X27891Y175823D01*
X27994Y175772D01*
X28089Y175721D01*
X28155Y175677D01*
X28214Y175640D01*
X28243Y175611D01*
X28257Y175604D01*
X28353Y175523D01*
X28433Y175435D01*
X28499Y175347D01*
X28558Y175267D01*
X28601Y175186D01*
X28638Y175128D01*
X28653Y175091D01*
X28660Y175084D01*
Y175077D01*
X28711Y174952D01*
X28748Y174813D01*
X28770Y174674D01*
X28792Y174542D01*
X28799Y174425D01*
Y174374D01*
X28806Y174330D01*
Y174293D01*
Y174264D01*
Y174249D01*
Y174242D01*
Y172500D01*
X25000D01*
Y174242D01*
X25007Y174367D01*
X25015Y174484D01*
X25029Y174601D01*
X25051Y174711D01*
X25073Y174806D01*
X25088Y174879D01*
X25095Y174908D01*
Y174930D01*
X25102Y174938D01*
Y174945D01*
X25139Y175047D01*
X25183Y175150D01*
X25227Y175238D01*
X25278Y175318D01*
X25329Y175384D01*
X25366Y175435D01*
X25395Y175465D01*
X25403Y175479D01*
X25490Y175567D01*
X25586Y175648D01*
X25681Y175714D01*
X25769Y175765D01*
X25849Y175809D01*
X25908Y175845D01*
X25952Y175860D01*
X25966Y175867D01*
X26105Y175911D01*
X26259Y175948D01*
X26413Y175970D01*
X26566Y175992D01*
X26698Y175999D01*
X26757D01*
X26808Y176006D01*
X26910D01*
X27057Y175999D01*
D02*
G37*
G36*
X27174Y182668D02*
X26384D01*
Y183458D01*
X26017D01*
X25966Y183370D01*
X25930Y183297D01*
X25893Y183224D01*
X25864Y183165D01*
X25849Y183114D01*
X25835Y183070D01*
X25820Y183048D01*
Y183041D01*
X25791Y182909D01*
X25783Y182843D01*
X25776Y182792D01*
X25769Y182741D01*
Y182704D01*
Y182675D01*
Y182668D01*
X25783Y182521D01*
X25813Y182389D01*
X25849Y182280D01*
X25900Y182184D01*
X25952Y182111D01*
X25988Y182060D01*
X26017Y182031D01*
X26032Y182016D01*
X26083Y181979D01*
X26149Y181943D01*
X26281Y181884D01*
X26427Y181848D01*
X26574Y181818D01*
X26706Y181804D01*
X26757Y181796D01*
X26808D01*
X26852Y181789D01*
X27020D01*
X27115Y181796D01*
X27291Y181826D01*
X27438Y181862D01*
X27562Y181906D01*
X27650Y181943D01*
X27716Y181979D01*
X27752Y182009D01*
X27767Y182016D01*
X27855Y182111D01*
X27921Y182206D01*
X27972Y182309D01*
X28001Y182411D01*
X28023Y182499D01*
X28030Y182565D01*
X28038Y182594D01*
Y182616D01*
Y182624D01*
Y182631D01*
X28030Y182726D01*
X28023Y182807D01*
X28001Y182887D01*
X27979Y182946D01*
X27957Y182997D01*
X27943Y183034D01*
X27928Y183055D01*
X27921Y183063D01*
X27877Y183121D01*
X27818Y183173D01*
X27767Y183217D01*
X27716Y183246D01*
X27665Y183275D01*
X27628Y183290D01*
X27599Y183304D01*
X27591D01*
X27789Y184439D01*
X27921Y184395D01*
X28045Y184344D01*
X28148Y184292D01*
X28235Y184241D01*
X28301Y184197D01*
X28353Y184161D01*
X28389Y184132D01*
X28396Y184124D01*
X28484Y184044D01*
X28558Y183956D01*
X28616Y183868D01*
X28667Y183787D01*
X28704Y183714D01*
X28733Y183656D01*
X28748Y183619D01*
X28755Y183612D01*
Y183604D01*
X28777Y183539D01*
X28792Y183473D01*
X28821Y183326D01*
X28843Y183165D01*
X28858Y183011D01*
X28865Y182880D01*
X28872Y182814D01*
Y182763D01*
Y182719D01*
Y182689D01*
Y182668D01*
Y182660D01*
X28865Y182426D01*
X28843Y182221D01*
X28814Y182045D01*
X28792Y181965D01*
X28777Y181899D01*
X28763Y181833D01*
X28741Y181774D01*
X28726Y181730D01*
X28711Y181694D01*
X28697Y181665D01*
X28689Y181635D01*
X28682Y181628D01*
Y181621D01*
X28587Y181445D01*
X28477Y181291D01*
X28360Y181167D01*
X28250Y181057D01*
X28148Y180977D01*
X28060Y180918D01*
X28030Y180896D01*
X28008Y180881D01*
X27994Y180867D01*
X27987D01*
X27811Y180779D01*
X27621Y180720D01*
X27445Y180676D01*
X27269Y180640D01*
X27196Y180632D01*
X27123Y180625D01*
X27064Y180618D01*
X27006D01*
X26962Y180611D01*
X26903D01*
X26691Y180618D01*
X26486Y180647D01*
X26310Y180684D01*
X26157Y180728D01*
X26083Y180750D01*
X26025Y180772D01*
X25974Y180794D01*
X25930Y180808D01*
X25893Y180823D01*
X25871Y180838D01*
X25856Y180845D01*
X25849D01*
X25688Y180940D01*
X25549Y181050D01*
X25432Y181160D01*
X25337Y181262D01*
X25256Y181357D01*
X25205Y181430D01*
X25183Y181460D01*
X25176Y181482D01*
X25161Y181496D01*
Y181504D01*
X25088Y181672D01*
X25029Y181862D01*
X24993Y182045D01*
X24963Y182221D01*
X24956Y182301D01*
X24949Y182375D01*
X24941Y182441D01*
Y182499D01*
X24934Y182543D01*
Y182580D01*
Y182602D01*
Y182609D01*
X24941Y182807D01*
X24956Y182990D01*
X24971Y183151D01*
X25000Y183290D01*
X25022Y183407D01*
X25029Y183451D01*
X25037Y183487D01*
X25044Y183517D01*
X25051Y183546D01*
X25059Y183553D01*
Y183561D01*
X25117Y183714D01*
X25190Y183875D01*
X25271Y184029D01*
X25351Y184175D01*
X25425Y184300D01*
X25454Y184358D01*
X25483Y184402D01*
X25505Y184439D01*
X25527Y184468D01*
X25534Y184483D01*
X25542Y184490D01*
X27174D01*
Y182668D01*
D02*
G37*
G36*
Y189753D02*
X26384D01*
Y190544D01*
X26017D01*
X25966Y190456D01*
X25930Y190383D01*
X25893Y190310D01*
X25864Y190251D01*
X25849Y190200D01*
X25835Y190156D01*
X25820Y190134D01*
Y190127D01*
X25791Y189995D01*
X25783Y189929D01*
X25776Y189878D01*
X25769Y189826D01*
Y189790D01*
Y189761D01*
Y189753D01*
X25783Y189607D01*
X25813Y189475D01*
X25849Y189365D01*
X25900Y189270D01*
X25952Y189197D01*
X25988Y189146D01*
X26017Y189116D01*
X26032Y189102D01*
X26083Y189065D01*
X26149Y189029D01*
X26281Y188970D01*
X26427Y188933D01*
X26574Y188904D01*
X26706Y188890D01*
X26757Y188882D01*
X26808D01*
X26852Y188875D01*
X27020D01*
X27115Y188882D01*
X27291Y188911D01*
X27438Y188948D01*
X27562Y188992D01*
X27650Y189029D01*
X27716Y189065D01*
X27752Y189094D01*
X27767Y189102D01*
X27855Y189197D01*
X27921Y189292D01*
X27972Y189395D01*
X28001Y189497D01*
X28023Y189585D01*
X28030Y189651D01*
X28038Y189680D01*
Y189702D01*
Y189709D01*
Y189717D01*
X28030Y189812D01*
X28023Y189892D01*
X28001Y189973D01*
X27979Y190031D01*
X27957Y190083D01*
X27943Y190119D01*
X27928Y190141D01*
X27921Y190148D01*
X27877Y190207D01*
X27818Y190258D01*
X27767Y190302D01*
X27716Y190331D01*
X27665Y190361D01*
X27628Y190375D01*
X27599Y190390D01*
X27591D01*
X27789Y191525D01*
X27921Y191481D01*
X28045Y191429D01*
X28148Y191378D01*
X28235Y191327D01*
X28301Y191283D01*
X28353Y191246D01*
X28389Y191217D01*
X28396Y191210D01*
X28484Y191129D01*
X28558Y191042D01*
X28616Y190954D01*
X28667Y190873D01*
X28704Y190800D01*
X28733Y190741D01*
X28748Y190705D01*
X28755Y190698D01*
Y190690D01*
X28777Y190624D01*
X28792Y190558D01*
X28821Y190412D01*
X28843Y190251D01*
X28858Y190097D01*
X28865Y189965D01*
X28872Y189900D01*
Y189848D01*
Y189804D01*
Y189775D01*
Y189753D01*
Y189746D01*
X28865Y189512D01*
X28843Y189307D01*
X28814Y189131D01*
X28792Y189050D01*
X28777Y188985D01*
X28763Y188919D01*
X28741Y188860D01*
X28726Y188816D01*
X28711Y188780D01*
X28697Y188750D01*
X28689Y188721D01*
X28682Y188714D01*
Y188707D01*
X28587Y188531D01*
X28477Y188377D01*
X28360Y188253D01*
X28250Y188143D01*
X28148Y188062D01*
X28060Y188004D01*
X28030Y187982D01*
X28008Y187967D01*
X27994Y187952D01*
X27987D01*
X27811Y187865D01*
X27621Y187806D01*
X27445Y187762D01*
X27269Y187726D01*
X27196Y187718D01*
X27123Y187711D01*
X27064Y187704D01*
X27006D01*
X26962Y187696D01*
X26903D01*
X26691Y187704D01*
X26486Y187733D01*
X26310Y187769D01*
X26157Y187813D01*
X26083Y187835D01*
X26025Y187857D01*
X25974Y187879D01*
X25930Y187894D01*
X25893Y187909D01*
X25871Y187923D01*
X25856Y187931D01*
X25849D01*
X25688Y188026D01*
X25549Y188136D01*
X25432Y188245D01*
X25337Y188348D01*
X25256Y188443D01*
X25205Y188516D01*
X25183Y188545D01*
X25176Y188567D01*
X25161Y188582D01*
Y188589D01*
X25088Y188758D01*
X25029Y188948D01*
X24993Y189131D01*
X24963Y189307D01*
X24956Y189387D01*
X24949Y189460D01*
X24941Y189526D01*
Y189585D01*
X24934Y189629D01*
Y189665D01*
Y189687D01*
Y189695D01*
X24941Y189892D01*
X24956Y190075D01*
X24971Y190236D01*
X25000Y190375D01*
X25022Y190493D01*
X25029Y190536D01*
X25037Y190573D01*
X25044Y190602D01*
X25051Y190632D01*
X25059Y190639D01*
Y190646D01*
X25117Y190800D01*
X25190Y190961D01*
X25271Y191115D01*
X25351Y191261D01*
X25425Y191386D01*
X25454Y191444D01*
X25483Y191488D01*
X25505Y191525D01*
X25527Y191554D01*
X25534Y191569D01*
X25542Y191576D01*
X27174D01*
Y189753D01*
D02*
G37*
G36*
X24597Y184768D02*
X24334D01*
Y187484D01*
X24597D01*
Y184768D01*
D02*
G37*
G36*
X81403Y176834D02*
X78687D01*
Y177097D01*
X81403D01*
Y176834D01*
D02*
G37*
G36*
X6962Y194138D02*
X8806Y195324D01*
Y194043D01*
X7635Y193384D01*
X8806Y192710D01*
Y191415D01*
X6984Y192608D01*
X5000Y191298D01*
Y192608D01*
X6222Y193362D01*
X5000Y194116D01*
Y195434D01*
X6962Y194138D01*
D02*
G37*
G36*
X85107Y177500D02*
X83365D01*
X83240Y177507D01*
X83123Y177515D01*
X83006Y177529D01*
X82896Y177551D01*
X82801Y177573D01*
X82728Y177588D01*
X82699Y177595D01*
X82677D01*
X82669Y177603D01*
X82662D01*
X82559Y177639D01*
X82457Y177683D01*
X82369Y177727D01*
X82289Y177778D01*
X82223Y177829D01*
X82171Y177866D01*
X82142Y177895D01*
X82128Y177903D01*
X82040Y177990D01*
X81959Y178086D01*
X81893Y178181D01*
X81842Y178269D01*
X81798Y178349D01*
X81762Y178408D01*
X81747Y178452D01*
X81740Y178466D01*
X81696Y178605D01*
X81659Y178759D01*
X81637Y178913D01*
X81615Y179067D01*
X81608Y179198D01*
Y179257D01*
X81600Y179308D01*
Y179352D01*
Y179381D01*
Y179403D01*
Y179411D01*
X81608Y179557D01*
X81615Y179689D01*
X81630Y179813D01*
X81644Y179923D01*
X81666Y180018D01*
X81681Y180091D01*
X81688Y180135D01*
X81696Y180142D01*
Y180150D01*
X81740Y180274D01*
X81783Y180391D01*
X81835Y180494D01*
X81886Y180589D01*
X81930Y180655D01*
X81967Y180713D01*
X81996Y180743D01*
X82003Y180757D01*
X82084Y180853D01*
X82171Y180933D01*
X82259Y180999D01*
X82340Y181058D01*
X82420Y181101D01*
X82479Y181138D01*
X82516Y181153D01*
X82523Y181160D01*
X82530D01*
X82655Y181211D01*
X82794Y181248D01*
X82933Y181270D01*
X83065Y181292D01*
X83182Y181299D01*
X83233D01*
X83277Y181306D01*
X85107D01*
Y177500D01*
D02*
G37*
G36*
X92500D02*
X89491D01*
Y178437D01*
X91321D01*
Y181306D01*
X92500D01*
Y177500D01*
D02*
G37*
G36*
X88957D02*
X85751D01*
Y178364D01*
X87779D01*
Y179110D01*
X85949D01*
Y179886D01*
X87779D01*
Y180494D01*
X85809D01*
Y181306D01*
X88957D01*
Y177500D01*
D02*
G37*
G36*
X8806Y187572D02*
X7869D01*
Y188772D01*
X5000D01*
Y189951D01*
X7869D01*
Y191151D01*
X8806D01*
Y187572D01*
D02*
G37*
G36*
X7057Y175999D02*
X7189Y175992D01*
X7313Y175977D01*
X7423Y175962D01*
X7518Y175940D01*
X7591Y175926D01*
X7635Y175918D01*
X7643Y175911D01*
X7650D01*
X7774Y175867D01*
X7891Y175823D01*
X7994Y175772D01*
X8089Y175721D01*
X8155Y175677D01*
X8213Y175640D01*
X8243Y175611D01*
X8257Y175604D01*
X8353Y175523D01*
X8433Y175435D01*
X8499Y175347D01*
X8557Y175267D01*
X8601Y175186D01*
X8638Y175128D01*
X8653Y175091D01*
X8660Y175084D01*
Y175077D01*
X8711Y174952D01*
X8748Y174813D01*
X8770Y174674D01*
X8792Y174542D01*
X8799Y174425D01*
Y174374D01*
X8806Y174330D01*
Y174293D01*
Y174264D01*
Y174249D01*
Y174242D01*
Y172500D01*
X5000D01*
Y174242D01*
X5007Y174367D01*
X5015Y174484D01*
X5029Y174601D01*
X5051Y174711D01*
X5073Y174806D01*
X5088Y174879D01*
X5095Y174908D01*
Y174930D01*
X5102Y174938D01*
Y174945D01*
X5139Y175047D01*
X5183Y175150D01*
X5227Y175238D01*
X5278Y175318D01*
X5329Y175384D01*
X5366Y175435D01*
X5395Y175465D01*
X5403Y175479D01*
X5490Y175567D01*
X5586Y175648D01*
X5681Y175714D01*
X5769Y175765D01*
X5849Y175809D01*
X5908Y175845D01*
X5952Y175860D01*
X5966Y175867D01*
X6105Y175911D01*
X6259Y175948D01*
X6413Y175970D01*
X6566Y175992D01*
X6698Y175999D01*
X6757D01*
X6808Y176006D01*
X6910D01*
X7057Y175999D01*
D02*
G37*
G36*
X16962Y194438D02*
X18806Y195624D01*
Y194343D01*
X17635Y193684D01*
X18806Y193011D01*
Y191715D01*
X16984Y192908D01*
X15006Y191602D01*
X16098Y191027D01*
X16135Y191005D01*
X16171Y190983D01*
X16244Y190924D01*
X16281Y190902D01*
X16310Y190881D01*
X16325Y190866D01*
X16332Y190859D01*
X16384Y190815D01*
X16427Y190778D01*
X16464Y190749D01*
X16493Y190727D01*
X16530Y190690D01*
X16537Y190676D01*
X16559Y190632D01*
X16588Y190588D01*
X16632Y190485D01*
X16647Y190441D01*
X16662Y190405D01*
X16676Y190375D01*
Y190368D01*
X16698Y190463D01*
X16727Y190544D01*
X16749Y190617D01*
X16771Y190676D01*
X16793Y190719D01*
X16808Y190756D01*
X16823Y190778D01*
Y190785D01*
X16881Y190866D01*
X16940Y190946D01*
X17006Y191005D01*
X17064Y191063D01*
X17116Y191100D01*
X17159Y191137D01*
X17189Y191151D01*
X17196Y191159D01*
X17284Y191203D01*
X17379Y191239D01*
X17474Y191261D01*
X17562Y191283D01*
X17635Y191290D01*
X17694Y191298D01*
X17745D01*
X17877Y191290D01*
X17994Y191269D01*
X18104Y191239D01*
X18192Y191210D01*
X18265Y191173D01*
X18316Y191144D01*
X18345Y191122D01*
X18360Y191115D01*
X18448Y191042D01*
X18521Y190968D01*
X18587Y190888D01*
X18631Y190815D01*
X18667Y190749D01*
X18689Y190698D01*
X18704Y190661D01*
X18711Y190646D01*
X18741Y190529D01*
X18770Y190397D01*
X18784Y190258D01*
X18792Y190127D01*
X18799Y190009D01*
X18806Y189951D01*
Y189907D01*
Y189870D01*
Y189841D01*
Y189826D01*
Y189819D01*
Y187857D01*
X15000D01*
Y189036D01*
X16544D01*
Y189138D01*
X16537Y189197D01*
X16530Y189248D01*
X16515Y189299D01*
X16501Y189343D01*
X16479Y189373D01*
X16464Y189402D01*
X16457Y189417D01*
X16449Y189424D01*
X16420Y189460D01*
X16376Y189497D01*
X16281Y189563D01*
X16230Y189592D01*
X16193Y189614D01*
X16164Y189629D01*
X16157Y189636D01*
X15000Y190273D01*
Y191598D01*
Y192908D01*
X16222Y193662D01*
X15000Y194416D01*
Y195734D01*
X16962Y194438D01*
D02*
G37*
G36*
X6208Y180135D02*
X6325Y180113D01*
X6427Y180076D01*
X6515Y180047D01*
X6588Y180010D01*
X6640Y179974D01*
X6676Y179952D01*
X6684Y179944D01*
X6764Y179864D01*
X6837Y179769D01*
X6896Y179674D01*
X6940Y179571D01*
X6976Y179483D01*
X6998Y179410D01*
X7013Y179381D01*
Y179359D01*
X7020Y179351D01*
Y179344D01*
X7057Y179439D01*
X7101Y179520D01*
X7145Y179593D01*
X7181Y179652D01*
X7218Y179696D01*
X7247Y179725D01*
X7269Y179747D01*
X7277Y179754D01*
X7372Y179827D01*
X7467Y179879D01*
X7569Y179915D01*
X7657Y179937D01*
X7738Y179959D01*
X7796Y179966D01*
X7855D01*
X8001Y179952D01*
X8133Y179922D01*
X8243Y179871D01*
X8345Y179820D01*
X8418Y179761D01*
X8477Y179710D01*
X8514Y179681D01*
X8528Y179666D01*
X8623Y179549D01*
X8689Y179410D01*
X8741Y179271D01*
X8770Y179139D01*
X8792Y179015D01*
X8799Y178964D01*
Y178912D01*
X8806Y178876D01*
Y178846D01*
Y178832D01*
Y178824D01*
Y176628D01*
X5000D01*
Y178656D01*
Y178715D01*
X5007Y178788D01*
X5015Y178876D01*
X5029Y178964D01*
X5037Y179044D01*
X5044Y179110D01*
X5051Y179161D01*
Y179168D01*
Y179176D01*
X5066Y179278D01*
X5088Y179374D01*
X5110Y179447D01*
X5124Y179513D01*
X5146Y179564D01*
X5161Y179593D01*
X5176Y179615D01*
Y179622D01*
X5227Y179710D01*
X5285Y179783D01*
X5351Y179849D01*
X5410Y179901D01*
X5461Y179944D01*
X5505Y179981D01*
X5534Y179996D01*
X5542Y180003D01*
X5637Y180047D01*
X5725Y180084D01*
X5820Y180105D01*
X5900Y180127D01*
X5974Y180135D01*
X6025Y180142D01*
X6076D01*
X6208Y180135D01*
D02*
G37*
G36*
X4597Y184768D02*
X4334D01*
Y187484D01*
X4597D01*
Y184768D01*
D02*
G37*
G36*
X7174Y182668D02*
X6384D01*
Y183458D01*
X6018D01*
X5966Y183370D01*
X5930Y183297D01*
X5893Y183224D01*
X5864Y183165D01*
X5849Y183114D01*
X5835Y183070D01*
X5820Y183048D01*
Y183041D01*
X5791Y182909D01*
X5783Y182843D01*
X5776Y182792D01*
X5769Y182741D01*
Y182704D01*
Y182675D01*
Y182668D01*
X5783Y182521D01*
X5813Y182389D01*
X5849Y182280D01*
X5900Y182184D01*
X5952Y182111D01*
X5988Y182060D01*
X6018Y182031D01*
X6032Y182016D01*
X6083Y181979D01*
X6149Y181943D01*
X6281Y181884D01*
X6427Y181848D01*
X6574Y181818D01*
X6706Y181804D01*
X6757Y181796D01*
X6808D01*
X6852Y181789D01*
X7020D01*
X7115Y181796D01*
X7291Y181826D01*
X7438Y181862D01*
X7562Y181906D01*
X7650Y181943D01*
X7716Y181979D01*
X7752Y182009D01*
X7767Y182016D01*
X7855Y182111D01*
X7921Y182206D01*
X7972Y182309D01*
X8001Y182411D01*
X8023Y182499D01*
X8031Y182565D01*
X8038Y182594D01*
Y182616D01*
Y182624D01*
Y182631D01*
X8031Y182726D01*
X8023Y182807D01*
X8001Y182887D01*
X7979Y182946D01*
X7957Y182997D01*
X7943Y183034D01*
X7928Y183055D01*
X7921Y183063D01*
X7877Y183121D01*
X7818Y183173D01*
X7767Y183217D01*
X7716Y183246D01*
X7665Y183275D01*
X7628Y183290D01*
X7599Y183304D01*
X7591D01*
X7789Y184439D01*
X7921Y184395D01*
X8045Y184344D01*
X8148Y184292D01*
X8235Y184241D01*
X8301Y184197D01*
X8353Y184161D01*
X8389Y184132D01*
X8397Y184124D01*
X8484Y184044D01*
X8557Y183956D01*
X8616Y183868D01*
X8667Y183787D01*
X8704Y183714D01*
X8733Y183656D01*
X8748Y183619D01*
X8755Y183612D01*
Y183604D01*
X8777Y183539D01*
X8792Y183473D01*
X8821Y183326D01*
X8843Y183165D01*
X8858Y183011D01*
X8865Y182880D01*
X8872Y182814D01*
Y182763D01*
Y182719D01*
Y182689D01*
Y182668D01*
Y182660D01*
X8865Y182426D01*
X8843Y182221D01*
X8814Y182045D01*
X8792Y181965D01*
X8777Y181899D01*
X8762Y181833D01*
X8741Y181774D01*
X8726Y181730D01*
X8711Y181694D01*
X8697Y181665D01*
X8689Y181635D01*
X8682Y181628D01*
Y181621D01*
X8587Y181445D01*
X8477Y181291D01*
X8360Y181167D01*
X8250Y181057D01*
X8148Y180977D01*
X8060Y180918D01*
X8031Y180896D01*
X8009Y180881D01*
X7994Y180867D01*
X7987D01*
X7811Y180779D01*
X7621Y180720D01*
X7445Y180676D01*
X7269Y180640D01*
X7196Y180632D01*
X7123Y180625D01*
X7064Y180618D01*
X7006D01*
X6962Y180611D01*
X6903D01*
X6691Y180618D01*
X6486Y180647D01*
X6310Y180684D01*
X6157Y180728D01*
X6083Y180750D01*
X6025Y180772D01*
X5974Y180794D01*
X5930Y180808D01*
X5893Y180823D01*
X5871Y180838D01*
X5856Y180845D01*
X5849D01*
X5688Y180940D01*
X5549Y181050D01*
X5432Y181160D01*
X5337Y181262D01*
X5256Y181357D01*
X5205Y181430D01*
X5183Y181460D01*
X5176Y181482D01*
X5161Y181496D01*
Y181504D01*
X5088Y181672D01*
X5029Y181862D01*
X4993Y182045D01*
X4963Y182221D01*
X4956Y182301D01*
X4949Y182375D01*
X4941Y182441D01*
Y182499D01*
X4934Y182543D01*
Y182580D01*
Y182602D01*
Y182609D01*
X4941Y182807D01*
X4956Y182990D01*
X4971Y183151D01*
X5000Y183290D01*
X5022Y183407D01*
X5029Y183451D01*
X5037Y183487D01*
X5044Y183517D01*
X5051Y183546D01*
X5059Y183553D01*
Y183561D01*
X5117Y183714D01*
X5190Y183875D01*
X5271Y184029D01*
X5351Y184175D01*
X5425Y184300D01*
X5454Y184358D01*
X5483Y184402D01*
X5505Y184439D01*
X5527Y184468D01*
X5534Y184483D01*
X5542Y184490D01*
X7174D01*
Y182668D01*
D02*
G37*
G36*
X45000Y27500D02*
X42914D01*
X42841Y27507D01*
X42753Y27515D01*
X42665Y27529D01*
X42584Y27537D01*
X42518Y27544D01*
X42467Y27551D01*
X42453D01*
X42350Y27566D01*
X42255Y27588D01*
X42182Y27610D01*
X42116Y27624D01*
X42065Y27646D01*
X42035Y27661D01*
X42013Y27676D01*
X42006D01*
X41918Y27727D01*
X41845Y27786D01*
X41779Y27851D01*
X41728Y27910D01*
X41684Y27961D01*
X41647Y28005D01*
X41633Y28034D01*
X41625Y28042D01*
X41582Y28137D01*
X41545Y28225D01*
X41523Y28320D01*
X41501Y28400D01*
X41494Y28474D01*
X41486Y28525D01*
Y28561D01*
Y28576D01*
X41494Y28708D01*
X41516Y28825D01*
X41552Y28927D01*
X41582Y29015D01*
X41618Y29088D01*
X41655Y29140D01*
X41677Y29176D01*
X41684Y29184D01*
X41765Y29264D01*
X41860Y29337D01*
X41955Y29396D01*
X42057Y29440D01*
X42145Y29476D01*
X42218Y29498D01*
X42248Y29513D01*
X42270D01*
X42277Y29520D01*
X42284D01*
X42189Y29557D01*
X42109Y29601D01*
X42035Y29645D01*
X41977Y29681D01*
X41933Y29718D01*
X41904Y29747D01*
X41882Y29769D01*
X41874Y29776D01*
X41801Y29872D01*
X41750Y29967D01*
X41713Y30069D01*
X41691Y30157D01*
X41669Y30238D01*
X41662Y30296D01*
Y30340D01*
Y30355D01*
X41677Y30501D01*
X41706Y30633D01*
X41757Y30743D01*
X41809Y30845D01*
X41867Y30918D01*
X41918Y30977D01*
X41948Y31014D01*
X41962Y31028D01*
X42079Y31123D01*
X42218Y31189D01*
X42358Y31240D01*
X42489Y31270D01*
X42614Y31292D01*
X42665Y31299D01*
X42716D01*
X42753Y31306D01*
X45000D01*
Y27500D01*
D02*
G37*
G36*
X41260D02*
X40066D01*
X39869Y28130D01*
X38544D01*
X38353Y27500D01*
X37116D01*
X38544Y31306D01*
X39832D01*
X41260Y27500D01*
D02*
G37*
G36*
X30236D02*
X29130D01*
Y29594D01*
X27703Y27500D01*
X26597D01*
Y31306D01*
X27703D01*
Y29191D01*
X29145Y31306D01*
X30236D01*
Y27500D01*
D02*
G37*
G36*
X20310Y31365D02*
X20515Y31343D01*
X20690Y31314D01*
X20771Y31292D01*
X20837Y31277D01*
X20903Y31262D01*
X20961Y31240D01*
X21005Y31226D01*
X21042Y31211D01*
X21071Y31197D01*
X21100Y31189D01*
X21107Y31182D01*
X21115D01*
X21291Y31087D01*
X21444Y30977D01*
X21569Y30860D01*
X21678Y30750D01*
X21759Y30648D01*
X21818Y30560D01*
X21839Y30531D01*
X21854Y30509D01*
X21869Y30494D01*
Y30487D01*
X21957Y30311D01*
X22015Y30121D01*
X22059Y29945D01*
X22096Y29769D01*
X22103Y29696D01*
X22110Y29623D01*
X22118Y29564D01*
Y29506D01*
X22125Y29462D01*
Y29432D01*
Y29410D01*
Y29403D01*
X22118Y29191D01*
X22088Y28986D01*
X22052Y28810D01*
X22008Y28657D01*
X21986Y28583D01*
X21964Y28525D01*
X21942Y28474D01*
X21927Y28430D01*
X21913Y28393D01*
X21898Y28371D01*
X21891Y28356D01*
Y28349D01*
X21796Y28188D01*
X21686Y28049D01*
X21576Y27932D01*
X21474Y27837D01*
X21378Y27756D01*
X21305Y27705D01*
X21276Y27683D01*
X21254Y27676D01*
X21239Y27661D01*
X21232D01*
X21064Y27588D01*
X20873Y27529D01*
X20690Y27493D01*
X20515Y27463D01*
X20434Y27456D01*
X20361Y27449D01*
X20295Y27441D01*
X20236D01*
X20192Y27434D01*
X20127D01*
X19929Y27441D01*
X19746Y27456D01*
X19585Y27471D01*
X19446Y27500D01*
X19329Y27522D01*
X19285Y27529D01*
X19248Y27537D01*
X19219Y27544D01*
X19190Y27551D01*
X19182Y27559D01*
X19175D01*
X19021Y27617D01*
X18860Y27690D01*
X18707Y27771D01*
X18560Y27851D01*
X18436Y27925D01*
X18377Y27954D01*
X18333Y27983D01*
X18297Y28005D01*
X18267Y28027D01*
X18253Y28034D01*
X18245Y28042D01*
Y29674D01*
X20068D01*
Y28883D01*
X19277D01*
Y28517D01*
X19365Y28466D01*
X19439Y28430D01*
X19512Y28393D01*
X19570Y28364D01*
X19622Y28349D01*
X19666Y28335D01*
X19687Y28320D01*
X19695D01*
X19827Y28291D01*
X19892Y28283D01*
X19944Y28276D01*
X19995Y28269D01*
X20068D01*
X20214Y28283D01*
X20346Y28313D01*
X20456Y28349D01*
X20551Y28400D01*
X20624Y28452D01*
X20676Y28488D01*
X20705Y28517D01*
X20720Y28532D01*
X20756Y28583D01*
X20793Y28649D01*
X20851Y28781D01*
X20888Y28927D01*
X20917Y29074D01*
X20932Y29206D01*
X20939Y29257D01*
Y29308D01*
X20946Y29352D01*
Y29381D01*
Y29403D01*
Y29410D01*
Y29520D01*
X20939Y29616D01*
X20910Y29791D01*
X20873Y29938D01*
X20829Y30062D01*
X20793Y30150D01*
X20756Y30216D01*
X20727Y30252D01*
X20720Y30267D01*
X20624Y30355D01*
X20529Y30421D01*
X20427Y30472D01*
X20324Y30501D01*
X20236Y30523D01*
X20171Y30531D01*
X20141Y30538D01*
X20105D01*
X20009Y30531D01*
X19929Y30523D01*
X19849Y30501D01*
X19790Y30479D01*
X19739Y30457D01*
X19702Y30443D01*
X19680Y30428D01*
X19673Y30421D01*
X19614Y30377D01*
X19563Y30318D01*
X19519Y30267D01*
X19490Y30216D01*
X19460Y30165D01*
X19446Y30128D01*
X19431Y30099D01*
Y30091D01*
X18297Y30289D01*
X18341Y30421D01*
X18392Y30545D01*
X18443Y30648D01*
X18494Y30735D01*
X18538Y30801D01*
X18575Y30853D01*
X18604Y30889D01*
X18611Y30896D01*
X18692Y30984D01*
X18780Y31058D01*
X18868Y31116D01*
X18948Y31167D01*
X19021Y31204D01*
X19080Y31233D01*
X19117Y31248D01*
X19124Y31255D01*
X19131D01*
X19197Y31277D01*
X19263Y31292D01*
X19409Y31321D01*
X19570Y31343D01*
X19724Y31358D01*
X19856Y31365D01*
X19922Y31372D01*
X20075D01*
X20310Y31365D01*
D02*
G37*
G36*
X33317Y26834D02*
X30602D01*
Y27097D01*
X33317D01*
Y26834D01*
D02*
G37*
G36*
X92500Y92500D02*
X91534D01*
Y95399D01*
X90802Y92500D01*
X89923D01*
X89184Y95399D01*
Y92500D01*
X88218D01*
Y96306D01*
X89770D01*
X90363Y93986D01*
X90948Y96306D01*
X92500D01*
Y92500D01*
D02*
G37*
G36*
X37007Y30369D02*
X35806D01*
Y27500D01*
X34628D01*
Y30369D01*
X33427D01*
Y31306D01*
X37007D01*
Y30369D01*
D02*
G37*
G36*
X25814Y27500D02*
X22608D01*
Y28364D01*
X24636D01*
Y29110D01*
X22806D01*
Y29886D01*
X24636D01*
Y30494D01*
X22667D01*
Y31306D01*
X25814D01*
Y27500D01*
D02*
G37*
G36*
X41260Y52500D02*
X40066D01*
X39869Y53130D01*
X38544D01*
X38353Y52500D01*
X37116D01*
X38544Y56306D01*
X39832D01*
X41260Y52500D01*
D02*
G37*
G36*
X37007Y55369D02*
X35806D01*
Y52500D01*
X34628D01*
Y55369D01*
X33427D01*
Y56306D01*
X37007D01*
Y55369D01*
D02*
G37*
G36*
X48660Y92179D02*
Y75871D01*
X43936Y77828D01*
Y87665D01*
X15822Y76020D01*
X22778Y69064D01*
X35172D01*
X41430Y75323D01*
X46154Y73366D01*
X37129Y64340D01*
X20821D01*
X9290Y75871D01*
Y92179D01*
X11101Y93990D01*
X28980Y86584D01*
X42128Y92030D01*
X35172Y98986D01*
X22778D01*
X18331Y94538D01*
X13607Y96495D01*
X20821Y103710D01*
X37129D01*
X48660Y92179D01*
D02*
G37*
G36*
X45000Y52500D02*
X42914D01*
X42841Y52507D01*
X42753Y52515D01*
X42665Y52529D01*
X42584Y52537D01*
X42518Y52544D01*
X42467Y52551D01*
X42453D01*
X42350Y52566D01*
X42255Y52588D01*
X42182Y52610D01*
X42116Y52624D01*
X42065Y52646D01*
X42035Y52661D01*
X42013Y52676D01*
X42006D01*
X41918Y52727D01*
X41845Y52785D01*
X41779Y52851D01*
X41728Y52910D01*
X41684Y52961D01*
X41647Y53005D01*
X41633Y53034D01*
X41625Y53042D01*
X41582Y53137D01*
X41545Y53225D01*
X41523Y53320D01*
X41501Y53400D01*
X41494Y53474D01*
X41486Y53525D01*
Y53561D01*
Y53576D01*
X41494Y53708D01*
X41516Y53825D01*
X41552Y53927D01*
X41582Y54015D01*
X41618Y54088D01*
X41655Y54140D01*
X41677Y54176D01*
X41684Y54184D01*
X41765Y54264D01*
X41860Y54337D01*
X41955Y54396D01*
X42057Y54440D01*
X42145Y54476D01*
X42218Y54498D01*
X42248Y54513D01*
X42270D01*
X42277Y54520D01*
X42284D01*
X42189Y54557D01*
X42109Y54601D01*
X42035Y54645D01*
X41977Y54681D01*
X41933Y54718D01*
X41904Y54747D01*
X41882Y54769D01*
X41874Y54777D01*
X41801Y54872D01*
X41750Y54967D01*
X41713Y55069D01*
X41691Y55157D01*
X41669Y55238D01*
X41662Y55296D01*
Y55340D01*
Y55355D01*
X41677Y55501D01*
X41706Y55633D01*
X41757Y55743D01*
X41809Y55845D01*
X41867Y55918D01*
X41918Y55977D01*
X41948Y56014D01*
X41962Y56028D01*
X42079Y56123D01*
X42218Y56189D01*
X42358Y56240D01*
X42489Y56270D01*
X42614Y56292D01*
X42665Y56299D01*
X42716D01*
X42753Y56306D01*
X45000D01*
Y52500D01*
D02*
G37*
G36*
X20639Y56365D02*
X20822Y56350D01*
X20983Y56321D01*
X21115Y56299D01*
X21225Y56270D01*
X21269Y56255D01*
X21298Y56240D01*
X21327Y56233D01*
X21349Y56226D01*
X21356Y56219D01*
X21364D01*
X21481Y56160D01*
X21583Y56094D01*
X21671Y56028D01*
X21744Y55962D01*
X21796Y55897D01*
X21839Y55853D01*
X21861Y55823D01*
X21869Y55809D01*
X21927Y55706D01*
X21964Y55611D01*
X21993Y55516D01*
X22015Y55435D01*
X22030Y55362D01*
X22037Y55304D01*
Y55267D01*
Y55252D01*
X22030Y55172D01*
X22023Y55091D01*
X21986Y54952D01*
X21935Y54828D01*
X21869Y54718D01*
X21810Y54637D01*
X21759Y54572D01*
X21722Y54535D01*
X21708Y54520D01*
X21642Y54469D01*
X21569Y54418D01*
X21400Y54323D01*
X21217Y54242D01*
X21034Y54176D01*
X20946Y54147D01*
X20873Y54125D01*
X20800Y54103D01*
X20734Y54081D01*
X20683Y54074D01*
X20646Y54059D01*
X20617Y54052D01*
X20610D01*
X20529Y54030D01*
X20449Y54015D01*
X20317Y53971D01*
X20214Y53935D01*
X20134Y53905D01*
X20075Y53876D01*
X20039Y53854D01*
X20017Y53840D01*
X20009Y53832D01*
X19966Y53788D01*
X19936Y53744D01*
X19907Y53701D01*
X19892Y53657D01*
X19885Y53620D01*
X19878Y53591D01*
Y53576D01*
Y53569D01*
X19885Y53510D01*
X19900Y53459D01*
X19944Y53378D01*
X19973Y53342D01*
X19995Y53320D01*
X20009Y53305D01*
X20017Y53298D01*
X20068Y53261D01*
X20134Y53232D01*
X20192Y53210D01*
X20258Y53195D01*
X20310Y53188D01*
X20354Y53181D01*
X20398D01*
X20515Y53188D01*
X20617Y53217D01*
X20705Y53254D01*
X20778Y53298D01*
X20837Y53334D01*
X20873Y53371D01*
X20903Y53400D01*
X20910Y53408D01*
X20946Y53466D01*
X20983Y53532D01*
X21027Y53671D01*
X21042Y53730D01*
X21049Y53781D01*
X21056Y53810D01*
Y53825D01*
X22176Y53752D01*
X22162Y53649D01*
X22147Y53547D01*
X22096Y53356D01*
X22023Y53195D01*
X21949Y53056D01*
X21876Y52947D01*
X21847Y52903D01*
X21818Y52866D01*
X21796Y52837D01*
X21774Y52815D01*
X21766Y52807D01*
X21759Y52800D01*
X21686Y52734D01*
X21591Y52683D01*
X21496Y52632D01*
X21393Y52588D01*
X21173Y52522D01*
X20946Y52478D01*
X20844Y52463D01*
X20741Y52456D01*
X20654Y52449D01*
X20573Y52441D01*
X20507Y52434D01*
X20419D01*
X20222Y52441D01*
X20046Y52456D01*
X19892Y52485D01*
X19761Y52515D01*
X19651Y52537D01*
X19614Y52551D01*
X19578Y52566D01*
X19548Y52573D01*
X19526Y52580D01*
X19519Y52588D01*
X19512D01*
X19380Y52654D01*
X19270Y52727D01*
X19168Y52807D01*
X19087Y52881D01*
X19021Y52954D01*
X18977Y53005D01*
X18948Y53042D01*
X18941Y53056D01*
X18875Y53173D01*
X18824Y53298D01*
X18787Y53408D01*
X18758Y53518D01*
X18743Y53605D01*
X18736Y53679D01*
Y53701D01*
Y53722D01*
Y53730D01*
Y53737D01*
X18743Y53847D01*
X18758Y53957D01*
X18787Y54052D01*
X18809Y54132D01*
X18838Y54198D01*
X18868Y54250D01*
X18882Y54279D01*
X18890Y54293D01*
X18955Y54389D01*
X19029Y54469D01*
X19109Y54542D01*
X19190Y54601D01*
X19263Y54652D01*
X19321Y54689D01*
X19365Y54711D01*
X19373Y54718D01*
X19380D01*
X19446Y54747D01*
X19519Y54784D01*
X19687Y54842D01*
X19870Y54901D01*
X20053Y54952D01*
X20134Y54974D01*
X20214Y54996D01*
X20288Y55011D01*
X20354Y55025D01*
X20405Y55040D01*
X20441Y55047D01*
X20471Y55055D01*
X20478D01*
X20581Y55077D01*
X20668Y55106D01*
X20734Y55128D01*
X20785Y55150D01*
X20822Y55164D01*
X20851Y55179D01*
X20859Y55194D01*
X20866D01*
X20895Y55223D01*
X20910Y55252D01*
X20939Y55304D01*
X20946Y55348D01*
Y55355D01*
Y55362D01*
X20939Y55406D01*
X20932Y55450D01*
X20895Y55516D01*
X20859Y55560D01*
X20851Y55567D01*
X20844Y55574D01*
X20800Y55604D01*
X20756Y55626D01*
X20654Y55655D01*
X20610D01*
X20573Y55662D01*
X20544D01*
X20456Y55655D01*
X20376Y55648D01*
X20310Y55626D01*
X20258Y55604D01*
X20214Y55582D01*
X20178Y55567D01*
X20163Y55552D01*
X20156Y55545D01*
X20105Y55494D01*
X20061Y55435D01*
X20031Y55377D01*
X20002Y55318D01*
X19988Y55260D01*
X19973Y55216D01*
X19966Y55186D01*
Y55172D01*
X18860Y55230D01*
X18875Y55340D01*
X18904Y55435D01*
X18926Y55531D01*
X18963Y55618D01*
X19036Y55765D01*
X19117Y55882D01*
X19197Y55977D01*
X19263Y56043D01*
X19307Y56080D01*
X19314Y56094D01*
X19321D01*
X19395Y56145D01*
X19475Y56189D01*
X19651Y56255D01*
X19841Y56306D01*
X20017Y56336D01*
X20097Y56350D01*
X20178Y56358D01*
X20244Y56365D01*
X20310D01*
X20354Y56372D01*
X20427D01*
X20639Y56365D01*
D02*
G37*
G36*
X33317Y51834D02*
X30602D01*
Y52097D01*
X33317D01*
Y51834D01*
D02*
G37*
G36*
X30250Y52500D02*
X29072D01*
Y53913D01*
X28427D01*
X28296Y53920D01*
X28179Y53927D01*
X28069Y53942D01*
X27966Y53964D01*
X27871Y53986D01*
X27783Y54015D01*
X27703Y54045D01*
X27637Y54074D01*
X27571Y54103D01*
X27520Y54132D01*
X27476Y54162D01*
X27439Y54184D01*
X27410Y54206D01*
X27388Y54220D01*
X27381Y54235D01*
X27373D01*
X27315Y54301D01*
X27256Y54367D01*
X27169Y54513D01*
X27110Y54659D01*
X27066Y54806D01*
X27037Y54938D01*
X27029Y54989D01*
Y55040D01*
X27022Y55077D01*
Y55113D01*
Y55128D01*
Y55135D01*
Y55238D01*
X27037Y55333D01*
X27073Y55509D01*
X27125Y55655D01*
X27183Y55779D01*
X27242Y55875D01*
X27293Y55940D01*
X27329Y55984D01*
X27337Y55999D01*
X27344D01*
X27410Y56050D01*
X27476Y56101D01*
X27630Y56175D01*
X27783Y56233D01*
X27944Y56270D01*
X28084Y56292D01*
X28142Y56299D01*
X28201D01*
X28245Y56306D01*
X30250D01*
Y52500D01*
D02*
G37*
G36*
X24760Y56365D02*
X24921Y56350D01*
X25068Y56321D01*
X25207Y56292D01*
X25339Y56255D01*
X25456Y56211D01*
X25565Y56160D01*
X25668Y56116D01*
X25748Y56065D01*
X25829Y56014D01*
X25895Y55970D01*
X25946Y55933D01*
X25990Y55904D01*
X26019Y55875D01*
X26034Y55860D01*
X26041Y55853D01*
X26129Y55750D01*
X26210Y55640D01*
X26275Y55523D01*
X26334Y55406D01*
X26385Y55282D01*
X26429Y55164D01*
X26466Y55047D01*
X26488Y54930D01*
X26510Y54820D01*
X26524Y54718D01*
X26539Y54630D01*
X26546Y54550D01*
X26554Y54484D01*
Y54440D01*
Y54403D01*
Y54396D01*
X26539Y54154D01*
X26510Y53942D01*
X26473Y53752D01*
X26451Y53664D01*
X26422Y53591D01*
X26400Y53518D01*
X26378Y53459D01*
X26356Y53408D01*
X26334Y53364D01*
X26319Y53327D01*
X26305Y53305D01*
X26297Y53291D01*
Y53283D01*
X26195Y53130D01*
X26078Y52998D01*
X25961Y52888D01*
X25851Y52800D01*
X25756Y52727D01*
X25683Y52676D01*
X25653Y52661D01*
X25631Y52646D01*
X25617Y52639D01*
X25609D01*
X25441Y52573D01*
X25265Y52522D01*
X25082Y52485D01*
X24914Y52463D01*
X24841Y52449D01*
X24768D01*
X24702Y52441D01*
X24650Y52434D01*
X24541D01*
X24314Y52441D01*
X24109Y52471D01*
X23933Y52507D01*
X23853Y52529D01*
X23779Y52551D01*
X23713Y52573D01*
X23655Y52595D01*
X23604Y52617D01*
X23560Y52632D01*
X23530Y52646D01*
X23508Y52661D01*
X23494Y52668D01*
X23486D01*
X23333Y52763D01*
X23208Y52873D01*
X23091Y52983D01*
X23003Y53086D01*
X22930Y53181D01*
X22879Y53254D01*
X22857Y53283D01*
X22842Y53305D01*
X22835Y53320D01*
Y53327D01*
X22762Y53496D01*
X22703Y53679D01*
X22667Y53861D01*
X22637Y54037D01*
X22630Y54118D01*
X22623Y54191D01*
X22615Y54257D01*
X22608Y54315D01*
Y54359D01*
Y54396D01*
Y54418D01*
Y54425D01*
X22615Y54593D01*
X22630Y54755D01*
X22659Y54901D01*
X22689Y55040D01*
X22725Y55164D01*
X22769Y55282D01*
X22820Y55391D01*
X22864Y55487D01*
X22916Y55574D01*
X22967Y55648D01*
X23011Y55713D01*
X23047Y55765D01*
X23077Y55809D01*
X23106Y55838D01*
X23121Y55853D01*
X23128Y55860D01*
X23230Y55948D01*
X23340Y56028D01*
X23450Y56094D01*
X23574Y56160D01*
X23692Y56204D01*
X23816Y56248D01*
X23933Y56284D01*
X24050Y56306D01*
X24160Y56328D01*
X24262Y56343D01*
X24358Y56358D01*
X24438Y56365D01*
X24504Y56372D01*
X24592D01*
X24760Y56365D01*
D02*
G37*
G36*
X77560Y96365D02*
X77721Y96350D01*
X77867Y96321D01*
X78006Y96292D01*
X78138Y96255D01*
X78255Y96211D01*
X78365Y96160D01*
X78468Y96116D01*
X78548Y96065D01*
X78629Y96014D01*
X78694Y95970D01*
X78746Y95933D01*
X78790Y95904D01*
X78819Y95875D01*
X78834Y95860D01*
X78841Y95853D01*
X78929Y95750D01*
X79009Y95640D01*
X79075Y95523D01*
X79134Y95406D01*
X79185Y95282D01*
X79229Y95165D01*
X79265Y95047D01*
X79287Y94930D01*
X79309Y94820D01*
X79324Y94718D01*
X79339Y94630D01*
X79346Y94550D01*
X79353Y94484D01*
Y94440D01*
Y94403D01*
Y94396D01*
X79339Y94154D01*
X79309Y93942D01*
X79273Y93752D01*
X79251Y93664D01*
X79221Y93591D01*
X79200Y93518D01*
X79178Y93459D01*
X79156Y93408D01*
X79134Y93364D01*
X79119Y93327D01*
X79104Y93305D01*
X79097Y93291D01*
Y93283D01*
X78995Y93129D01*
X78878Y92998D01*
X78760Y92888D01*
X78651Y92800D01*
X78555Y92727D01*
X78482Y92676D01*
X78453Y92661D01*
X78431Y92646D01*
X78416Y92639D01*
X78409D01*
X78241Y92573D01*
X78065Y92522D01*
X77882Y92485D01*
X77714Y92463D01*
X77640Y92449D01*
X77567D01*
X77501Y92441D01*
X77450Y92434D01*
X77340D01*
X77113Y92441D01*
X76908Y92471D01*
X76733Y92507D01*
X76652Y92529D01*
X76579Y92551D01*
X76513Y92573D01*
X76455Y92595D01*
X76403Y92617D01*
X76359Y92632D01*
X76330Y92646D01*
X76308Y92661D01*
X76293Y92668D01*
X76286D01*
X76133Y92764D01*
X76008Y92873D01*
X75891Y92983D01*
X75803Y93086D01*
X75730Y93181D01*
X75679Y93254D01*
X75657Y93283D01*
X75642Y93305D01*
X75635Y93320D01*
Y93327D01*
X75561Y93496D01*
X75503Y93678D01*
X75466Y93862D01*
X75437Y94037D01*
X75430Y94118D01*
X75422Y94191D01*
X75415Y94257D01*
X75408Y94315D01*
Y94359D01*
Y94396D01*
Y94418D01*
Y94425D01*
X75415Y94594D01*
X75430Y94755D01*
X75459Y94901D01*
X75488Y95040D01*
X75525Y95165D01*
X75569Y95282D01*
X75620Y95391D01*
X75664Y95487D01*
X75715Y95574D01*
X75766Y95648D01*
X75810Y95714D01*
X75847Y95765D01*
X75876Y95809D01*
X75906Y95838D01*
X75920Y95853D01*
X75928Y95860D01*
X76030Y95948D01*
X76140Y96028D01*
X76250Y96094D01*
X76374Y96160D01*
X76491Y96204D01*
X76616Y96248D01*
X76733Y96284D01*
X76850Y96306D01*
X76960Y96328D01*
X77062Y96343D01*
X77157Y96358D01*
X77238Y96365D01*
X77304Y96372D01*
X77391D01*
X77560Y96365D01*
D02*
G37*
G36*
X62503D02*
X62664Y96350D01*
X62810Y96321D01*
X62949Y96292D01*
X63081Y96255D01*
X63198Y96211D01*
X63308Y96160D01*
X63410Y96116D01*
X63491Y96065D01*
X63571Y96014D01*
X63637Y95970D01*
X63688Y95933D01*
X63732Y95904D01*
X63762Y95875D01*
X63776Y95860D01*
X63784Y95853D01*
X63872Y95750D01*
X63952Y95640D01*
X64018Y95523D01*
X64076Y95406D01*
X64128Y95282D01*
X64172Y95165D01*
X64208Y95047D01*
X64230Y94930D01*
X64252Y94820D01*
X64267Y94718D01*
X64281Y94630D01*
X64289Y94550D01*
X64296Y94484D01*
Y94440D01*
Y94403D01*
Y94396D01*
X64281Y94154D01*
X64252Y93942D01*
X64215Y93752D01*
X64194Y93664D01*
X64164Y93591D01*
X64142Y93518D01*
X64120Y93459D01*
X64098Y93408D01*
X64076Y93364D01*
X64062Y93327D01*
X64047Y93305D01*
X64040Y93291D01*
Y93283D01*
X63937Y93129D01*
X63820Y92998D01*
X63703Y92888D01*
X63593Y92800D01*
X63498Y92727D01*
X63425Y92676D01*
X63396Y92661D01*
X63374Y92646D01*
X63359Y92639D01*
X63352D01*
X63183Y92573D01*
X63008Y92522D01*
X62825Y92485D01*
X62656Y92463D01*
X62583Y92449D01*
X62510D01*
X62444Y92441D01*
X62393Y92434D01*
X62283D01*
X62056Y92441D01*
X61851Y92471D01*
X61676Y92507D01*
X61595Y92529D01*
X61522Y92551D01*
X61456Y92573D01*
X61397Y92595D01*
X61346Y92617D01*
X61302Y92632D01*
X61273Y92646D01*
X61251Y92661D01*
X61236Y92668D01*
X61229D01*
X61075Y92764D01*
X60951Y92873D01*
X60834Y92983D01*
X60746Y93086D01*
X60673Y93181D01*
X60621Y93254D01*
X60599Y93283D01*
X60585Y93305D01*
X60577Y93320D01*
Y93327D01*
X60504Y93496D01*
X60446Y93678D01*
X60409Y93862D01*
X60380Y94037D01*
X60373Y94118D01*
X60365Y94191D01*
X60358Y94257D01*
X60351Y94315D01*
Y94359D01*
Y94396D01*
Y94418D01*
Y94425D01*
X60358Y94594D01*
X60373Y94755D01*
X60402Y94901D01*
X60431Y95040D01*
X60468Y95165D01*
X60512Y95282D01*
X60563Y95391D01*
X60607Y95487D01*
X60658Y95574D01*
X60709Y95648D01*
X60753Y95714D01*
X60790Y95765D01*
X60819Y95809D01*
X60848Y95838D01*
X60863Y95853D01*
X60870Y95860D01*
X60973Y95948D01*
X61083Y96028D01*
X61192Y96094D01*
X61317Y96160D01*
X61434Y96204D01*
X61558Y96248D01*
X61676Y96284D01*
X61793Y96306D01*
X61902Y96328D01*
X62005Y96343D01*
X62100Y96358D01*
X62181Y96365D01*
X62246Y96372D01*
X62334D01*
X62503Y96365D01*
D02*
G37*
G36*
X67993Y92500D02*
X66814D01*
Y93913D01*
X66170D01*
X66038Y93920D01*
X65921Y93927D01*
X65811Y93942D01*
X65709Y93964D01*
X65614Y93986D01*
X65526Y94015D01*
X65445Y94045D01*
X65379Y94074D01*
X65314Y94103D01*
X65262Y94132D01*
X65218Y94162D01*
X65182Y94184D01*
X65153Y94206D01*
X65131Y94220D01*
X65123Y94235D01*
X65116D01*
X65057Y94301D01*
X64999Y94367D01*
X64911Y94513D01*
X64852Y94659D01*
X64808Y94806D01*
X64779Y94938D01*
X64772Y94989D01*
Y95040D01*
X64764Y95077D01*
Y95113D01*
Y95128D01*
Y95135D01*
Y95238D01*
X64779Y95333D01*
X64816Y95508D01*
X64867Y95655D01*
X64926Y95779D01*
X64984Y95875D01*
X65035Y95940D01*
X65072Y95984D01*
X65079Y95999D01*
X65087D01*
X65153Y96050D01*
X65218Y96101D01*
X65372Y96175D01*
X65526Y96233D01*
X65687Y96270D01*
X65826Y96292D01*
X65885Y96299D01*
X65943D01*
X65987Y96306D01*
X67993D01*
Y92500D01*
D02*
G37*
G36*
X85824Y96365D02*
X85985Y96350D01*
X86132Y96321D01*
X86271Y96292D01*
X86402Y96255D01*
X86520Y96211D01*
X86629Y96160D01*
X86732Y96116D01*
X86812Y96065D01*
X86893Y96014D01*
X86959Y95970D01*
X87010Y95933D01*
X87054Y95904D01*
X87083Y95875D01*
X87098Y95860D01*
X87105Y95853D01*
X87193Y95750D01*
X87274Y95640D01*
X87339Y95523D01*
X87398Y95406D01*
X87449Y95282D01*
X87493Y95165D01*
X87530Y95047D01*
X87552Y94930D01*
X87574Y94820D01*
X87588Y94718D01*
X87603Y94630D01*
X87610Y94550D01*
X87618Y94484D01*
Y94440D01*
Y94403D01*
Y94396D01*
X87603Y94154D01*
X87574Y93942D01*
X87537Y93752D01*
X87515Y93664D01*
X87486Y93591D01*
X87464Y93518D01*
X87442Y93459D01*
X87420Y93408D01*
X87398Y93364D01*
X87383Y93327D01*
X87369Y93305D01*
X87361Y93291D01*
Y93283D01*
X87259Y93129D01*
X87142Y92998D01*
X87025Y92888D01*
X86915Y92800D01*
X86820Y92727D01*
X86747Y92676D01*
X86717Y92661D01*
X86695Y92646D01*
X86681Y92639D01*
X86673D01*
X86505Y92573D01*
X86329Y92522D01*
X86146Y92485D01*
X85978Y92463D01*
X85905Y92449D01*
X85831D01*
X85766Y92441D01*
X85714Y92434D01*
X85605D01*
X85378Y92441D01*
X85173Y92471D01*
X84997Y92507D01*
X84917Y92529D01*
X84843Y92551D01*
X84777Y92573D01*
X84719Y92595D01*
X84668Y92617D01*
X84624Y92632D01*
X84594Y92646D01*
X84572Y92661D01*
X84558Y92668D01*
X84550D01*
X84397Y92764D01*
X84272Y92873D01*
X84155Y92983D01*
X84067Y93086D01*
X83994Y93181D01*
X83943Y93254D01*
X83921Y93283D01*
X83906Y93305D01*
X83899Y93320D01*
Y93327D01*
X83826Y93496D01*
X83767Y93678D01*
X83731Y93862D01*
X83701Y94037D01*
X83694Y94118D01*
X83687Y94191D01*
X83679Y94257D01*
X83672Y94315D01*
Y94359D01*
Y94396D01*
Y94418D01*
Y94425D01*
X83679Y94594D01*
X83694Y94755D01*
X83723Y94901D01*
X83753Y95040D01*
X83789Y95165D01*
X83833Y95282D01*
X83884Y95391D01*
X83928Y95487D01*
X83979Y95574D01*
X84031Y95648D01*
X84075Y95714D01*
X84111Y95765D01*
X84141Y95809D01*
X84170Y95838D01*
X84184Y95853D01*
X84192Y95860D01*
X84294Y95948D01*
X84404Y96028D01*
X84514Y96094D01*
X84638Y96160D01*
X84755Y96204D01*
X84880Y96248D01*
X84997Y96284D01*
X85114Y96306D01*
X85224Y96328D01*
X85326Y96343D01*
X85422Y96358D01*
X85502Y96365D01*
X85568Y96372D01*
X85656D01*
X85824Y96365D01*
D02*
G37*
G36*
X58381D02*
X58565Y96350D01*
X58726Y96321D01*
X58857Y96299D01*
X58967Y96270D01*
X59011Y96255D01*
X59040Y96241D01*
X59070Y96233D01*
X59092Y96226D01*
X59099Y96219D01*
X59106D01*
X59223Y96160D01*
X59326Y96094D01*
X59414Y96028D01*
X59487Y95962D01*
X59538Y95897D01*
X59582Y95853D01*
X59604Y95823D01*
X59611Y95809D01*
X59670Y95706D01*
X59706Y95611D01*
X59736Y95516D01*
X59758Y95435D01*
X59772Y95362D01*
X59780Y95304D01*
Y95267D01*
Y95252D01*
X59772Y95172D01*
X59765Y95091D01*
X59728Y94952D01*
X59677Y94828D01*
X59611Y94718D01*
X59553Y94637D01*
X59501Y94572D01*
X59465Y94535D01*
X59450Y94520D01*
X59384Y94469D01*
X59311Y94418D01*
X59143Y94323D01*
X58960Y94242D01*
X58777Y94176D01*
X58689Y94147D01*
X58616Y94125D01*
X58543Y94103D01*
X58477Y94081D01*
X58425Y94074D01*
X58389Y94059D01*
X58359Y94052D01*
X58352D01*
X58272Y94030D01*
X58191Y94015D01*
X58059Y93971D01*
X57957Y93935D01*
X57876Y93905D01*
X57818Y93876D01*
X57781Y93854D01*
X57759Y93840D01*
X57752Y93832D01*
X57708Y93788D01*
X57679Y93744D01*
X57649Y93700D01*
X57635Y93657D01*
X57627Y93620D01*
X57620Y93591D01*
Y93576D01*
Y93569D01*
X57627Y93510D01*
X57642Y93459D01*
X57686Y93378D01*
X57715Y93342D01*
X57737Y93320D01*
X57752Y93305D01*
X57759Y93298D01*
X57810Y93261D01*
X57876Y93232D01*
X57935Y93210D01*
X58001Y93195D01*
X58052Y93188D01*
X58096Y93181D01*
X58140D01*
X58257Y93188D01*
X58359Y93217D01*
X58447Y93254D01*
X58521Y93298D01*
X58579Y93335D01*
X58616Y93371D01*
X58645Y93400D01*
X58652Y93408D01*
X58689Y93466D01*
X58726Y93532D01*
X58769Y93671D01*
X58784Y93730D01*
X58791Y93781D01*
X58799Y93810D01*
Y93825D01*
X59919Y93752D01*
X59904Y93649D01*
X59889Y93547D01*
X59838Y93356D01*
X59765Y93195D01*
X59692Y93056D01*
X59619Y92946D01*
X59589Y92903D01*
X59560Y92866D01*
X59538Y92837D01*
X59516Y92815D01*
X59509Y92807D01*
X59501Y92800D01*
X59428Y92734D01*
X59333Y92683D01*
X59238Y92632D01*
X59135Y92588D01*
X58916Y92522D01*
X58689Y92478D01*
X58586Y92463D01*
X58484Y92456D01*
X58396Y92449D01*
X58316Y92441D01*
X58250Y92434D01*
X58162D01*
X57964Y92441D01*
X57789Y92456D01*
X57635Y92485D01*
X57503Y92515D01*
X57393Y92537D01*
X57357Y92551D01*
X57320Y92566D01*
X57291Y92573D01*
X57269Y92580D01*
X57262Y92588D01*
X57254D01*
X57122Y92654D01*
X57013Y92727D01*
X56910Y92807D01*
X56830Y92881D01*
X56764Y92954D01*
X56720Y93005D01*
X56691Y93042D01*
X56683Y93056D01*
X56617Y93173D01*
X56566Y93298D01*
X56529Y93408D01*
X56500Y93518D01*
X56486Y93605D01*
X56478Y93678D01*
Y93700D01*
Y93722D01*
Y93730D01*
Y93737D01*
X56486Y93847D01*
X56500Y93957D01*
X56529Y94052D01*
X56551Y94132D01*
X56581Y94198D01*
X56610Y94249D01*
X56625Y94279D01*
X56632Y94293D01*
X56698Y94389D01*
X56771Y94469D01*
X56852Y94542D01*
X56932Y94601D01*
X57005Y94652D01*
X57064Y94689D01*
X57108Y94711D01*
X57115Y94718D01*
X57122D01*
X57188Y94747D01*
X57262Y94784D01*
X57430Y94842D01*
X57613Y94901D01*
X57796Y94952D01*
X57876Y94974D01*
X57957Y94996D01*
X58030Y95011D01*
X58096Y95025D01*
X58147Y95040D01*
X58184Y95047D01*
X58213Y95055D01*
X58220D01*
X58323Y95077D01*
X58411Y95106D01*
X58477Y95128D01*
X58528Y95150D01*
X58565Y95165D01*
X58594Y95179D01*
X58601Y95194D01*
X58608D01*
X58638Y95223D01*
X58652Y95252D01*
X58682Y95304D01*
X58689Y95347D01*
Y95355D01*
Y95362D01*
X58682Y95406D01*
X58674Y95450D01*
X58638Y95516D01*
X58601Y95560D01*
X58594Y95567D01*
X58586Y95574D01*
X58543Y95604D01*
X58499Y95626D01*
X58396Y95655D01*
X58352D01*
X58316Y95662D01*
X58286D01*
X58198Y95655D01*
X58118Y95648D01*
X58052Y95626D01*
X58001Y95604D01*
X57957Y95582D01*
X57920Y95567D01*
X57906Y95552D01*
X57898Y95545D01*
X57847Y95494D01*
X57803Y95435D01*
X57774Y95377D01*
X57745Y95318D01*
X57730Y95260D01*
X57715Y95216D01*
X57708Y95186D01*
Y95172D01*
X56603Y95230D01*
X56617Y95340D01*
X56647Y95435D01*
X56669Y95530D01*
X56705Y95618D01*
X56778Y95765D01*
X56859Y95882D01*
X56939Y95977D01*
X57005Y96043D01*
X57049Y96079D01*
X57057Y96094D01*
X57064D01*
X57137Y96145D01*
X57218Y96189D01*
X57393Y96255D01*
X57584Y96306D01*
X57759Y96336D01*
X57840Y96350D01*
X57920Y96358D01*
X57986Y96365D01*
X58052D01*
X58096Y96372D01*
X58169D01*
X58381Y96365D01*
D02*
G37*
G36*
X92500Y127500D02*
X91534D01*
Y130399D01*
X90802Y127500D01*
X89923D01*
X89184Y130399D01*
Y127500D01*
X88218D01*
Y131306D01*
X89770D01*
X90363Y128986D01*
X90948Y131306D01*
X92500D01*
Y127500D01*
D02*
G37*
G36*
X58052Y131365D02*
X58257Y131343D01*
X58433Y131314D01*
X58513Y131292D01*
X58579Y131277D01*
X58645Y131263D01*
X58704Y131240D01*
X58748Y131226D01*
X58784Y131211D01*
X58813Y131197D01*
X58843Y131189D01*
X58850Y131182D01*
X58857D01*
X59033Y131087D01*
X59187Y130977D01*
X59311Y130860D01*
X59421Y130750D01*
X59501Y130648D01*
X59560Y130560D01*
X59582Y130531D01*
X59597Y130508D01*
X59611Y130494D01*
Y130487D01*
X59699Y130311D01*
X59758Y130121D01*
X59802Y129945D01*
X59838Y129769D01*
X59846Y129696D01*
X59853Y129623D01*
X59860Y129564D01*
Y129506D01*
X59867Y129462D01*
Y129432D01*
Y129411D01*
Y129403D01*
X59860Y129191D01*
X59831Y128986D01*
X59794Y128810D01*
X59750Y128657D01*
X59728Y128583D01*
X59706Y128525D01*
X59684Y128474D01*
X59670Y128430D01*
X59655Y128393D01*
X59641Y128371D01*
X59633Y128356D01*
Y128349D01*
X59538Y128188D01*
X59428Y128049D01*
X59318Y127932D01*
X59216Y127837D01*
X59121Y127756D01*
X59048Y127705D01*
X59018Y127683D01*
X58996Y127676D01*
X58982Y127661D01*
X58974D01*
X58806Y127588D01*
X58616Y127529D01*
X58433Y127493D01*
X58257Y127463D01*
X58176Y127456D01*
X58103Y127449D01*
X58037Y127441D01*
X57979D01*
X57935Y127434D01*
X57869D01*
X57671Y127441D01*
X57488Y127456D01*
X57327Y127471D01*
X57188Y127500D01*
X57071Y127522D01*
X57027Y127529D01*
X56991Y127537D01*
X56961Y127544D01*
X56932Y127551D01*
X56925Y127559D01*
X56918D01*
X56764Y127617D01*
X56603Y127690D01*
X56449Y127771D01*
X56303Y127851D01*
X56178Y127925D01*
X56120Y127954D01*
X56076Y127983D01*
X56039Y128005D01*
X56010Y128027D01*
X55995Y128034D01*
X55988Y128042D01*
Y129674D01*
X57810D01*
Y128884D01*
X57020D01*
Y128517D01*
X57108Y128466D01*
X57181Y128430D01*
X57254Y128393D01*
X57313Y128364D01*
X57364Y128349D01*
X57408Y128334D01*
X57430Y128320D01*
X57437D01*
X57569Y128291D01*
X57635Y128283D01*
X57686Y128276D01*
X57737Y128269D01*
X57810D01*
X57957Y128283D01*
X58089Y128313D01*
X58198Y128349D01*
X58294Y128400D01*
X58367Y128452D01*
X58418Y128488D01*
X58447Y128517D01*
X58462Y128532D01*
X58499Y128583D01*
X58535Y128649D01*
X58594Y128781D01*
X58630Y128927D01*
X58660Y129074D01*
X58674Y129206D01*
X58682Y129257D01*
Y129308D01*
X58689Y129352D01*
Y129381D01*
Y129403D01*
Y129411D01*
Y129520D01*
X58682Y129615D01*
X58652Y129791D01*
X58616Y129938D01*
X58572Y130062D01*
X58535Y130150D01*
X58499Y130216D01*
X58469Y130252D01*
X58462Y130267D01*
X58367Y130355D01*
X58272Y130421D01*
X58169Y130472D01*
X58067Y130501D01*
X57979Y130523D01*
X57913Y130531D01*
X57884Y130538D01*
X57847D01*
X57752Y130531D01*
X57671Y130523D01*
X57591Y130501D01*
X57532Y130479D01*
X57481Y130457D01*
X57445Y130443D01*
X57423Y130428D01*
X57415Y130421D01*
X57357Y130377D01*
X57305Y130318D01*
X57262Y130267D01*
X57232Y130216D01*
X57203Y130165D01*
X57188Y130128D01*
X57174Y130099D01*
Y130091D01*
X56039Y130289D01*
X56083Y130421D01*
X56134Y130545D01*
X56186Y130648D01*
X56237Y130735D01*
X56281Y130801D01*
X56317Y130853D01*
X56346Y130889D01*
X56354Y130896D01*
X56434Y130984D01*
X56522Y131058D01*
X56610Y131116D01*
X56691Y131167D01*
X56764Y131204D01*
X56822Y131233D01*
X56859Y131248D01*
X56866Y131255D01*
X56874D01*
X56939Y131277D01*
X57005Y131292D01*
X57152Y131321D01*
X57313Y131343D01*
X57467Y131358D01*
X57598Y131365D01*
X57664Y131372D01*
X57818D01*
X58052Y131365D01*
D02*
G37*
G36*
X71060Y91834D02*
X68344D01*
Y92097D01*
X71060D01*
Y91834D01*
D02*
G37*
G36*
X67978Y127500D02*
X66873D01*
Y129594D01*
X65445Y127500D01*
X64340D01*
Y131306D01*
X65445D01*
Y129191D01*
X66887Y131306D01*
X67978D01*
Y127500D01*
D02*
G37*
G36*
X83313Y95369D02*
X82113D01*
Y92500D01*
X80934D01*
Y95369D01*
X79734D01*
Y96306D01*
X83313D01*
Y95369D01*
D02*
G37*
G36*
X74764Y92500D02*
X73585D01*
Y94045D01*
X73483D01*
X73424Y94037D01*
X73373Y94030D01*
X73322Y94015D01*
X73278Y94001D01*
X73248Y93979D01*
X73219Y93964D01*
X73204Y93957D01*
X73197Y93949D01*
X73161Y93920D01*
X73124Y93876D01*
X73058Y93781D01*
X73029Y93730D01*
X73007Y93693D01*
X72992Y93664D01*
X72985Y93657D01*
X72348Y92500D01*
X71016D01*
X71594Y93598D01*
X71616Y93635D01*
X71638Y93671D01*
X71697Y93744D01*
X71719Y93781D01*
X71741Y93810D01*
X71755Y93825D01*
X71762Y93832D01*
X71806Y93884D01*
X71843Y93927D01*
X71872Y93964D01*
X71894Y93993D01*
X71931Y94030D01*
X71945Y94037D01*
X71989Y94059D01*
X72033Y94088D01*
X72136Y94132D01*
X72180Y94147D01*
X72216Y94162D01*
X72246Y94176D01*
X72253D01*
X72158Y94198D01*
X72077Y94227D01*
X72004Y94249D01*
X71945Y94271D01*
X71902Y94293D01*
X71865Y94308D01*
X71843Y94323D01*
X71836D01*
X71755Y94381D01*
X71675Y94440D01*
X71616Y94506D01*
X71557Y94564D01*
X71521Y94616D01*
X71484Y94659D01*
X71470Y94689D01*
X71462Y94696D01*
X71418Y94784D01*
X71382Y94879D01*
X71360Y94974D01*
X71338Y95062D01*
X71331Y95135D01*
X71323Y95194D01*
Y95230D01*
Y95245D01*
X71331Y95377D01*
X71352Y95494D01*
X71382Y95604D01*
X71411Y95692D01*
X71448Y95765D01*
X71477Y95816D01*
X71499Y95845D01*
X71506Y95860D01*
X71579Y95948D01*
X71653Y96021D01*
X71733Y96087D01*
X71806Y96131D01*
X71872Y96167D01*
X71924Y96189D01*
X71960Y96204D01*
X71975Y96211D01*
X72092Y96241D01*
X72224Y96270D01*
X72363Y96284D01*
X72494Y96292D01*
X72612Y96299D01*
X72670Y96306D01*
X74764D01*
Y92500D01*
D02*
G37*
%LPC*%
G36*
X77406Y130479D02*
X77391D01*
X77260Y130472D01*
X77143Y130443D01*
X77047Y130399D01*
X76960Y130355D01*
X76894Y130311D01*
X76842Y130267D01*
X76813Y130238D01*
X76806Y130230D01*
X76733Y130128D01*
X76682Y130003D01*
X76638Y129872D01*
X76616Y129740D01*
X76601Y129623D01*
X76594Y129572D01*
X76586Y129528D01*
Y129491D01*
Y129462D01*
Y129447D01*
Y129440D01*
Y129323D01*
X76594Y129220D01*
X76608Y129125D01*
X76616Y129030D01*
X76638Y128949D01*
X76652Y128884D01*
X76674Y128818D01*
X76689Y128759D01*
X76711Y128708D01*
X76733Y128664D01*
X76762Y128605D01*
X76791Y128569D01*
X76799Y128554D01*
X76879Y128474D01*
X76974Y128415D01*
X77077Y128371D01*
X77165Y128342D01*
X77252Y128327D01*
X77318Y128320D01*
X77370Y128313D01*
X77384D01*
X77516Y128320D01*
X77626Y128349D01*
X77728Y128393D01*
X77809Y128437D01*
X77875Y128481D01*
X77926Y128525D01*
X77955Y128554D01*
X77962Y128561D01*
X77999Y128613D01*
X78036Y128671D01*
X78087Y128796D01*
X78123Y128935D01*
X78145Y129067D01*
X78160Y129191D01*
X78167Y129250D01*
X78175Y129293D01*
Y129337D01*
Y129367D01*
Y129381D01*
Y129389D01*
Y129491D01*
X78167Y129594D01*
X78153Y129681D01*
X78138Y129769D01*
X78123Y129842D01*
X78109Y129908D01*
X78065Y130025D01*
X78028Y130113D01*
X77992Y130172D01*
X77970Y130208D01*
X77962Y130223D01*
X77875Y130311D01*
X77787Y130369D01*
X77692Y130413D01*
X77596Y130450D01*
X77516Y130465D01*
X77450Y130472D01*
X77406Y130479D01*
D02*
G37*
G36*
X26984Y199042D02*
X26889D01*
X26728Y199035D01*
X26596Y199028D01*
X26479Y199013D01*
X26391Y198998D01*
X26318Y198976D01*
X26266Y198962D01*
X26237Y198954D01*
X26230Y198947D01*
X26157Y198911D01*
X26098Y198874D01*
X26047Y198830D01*
X26010Y198793D01*
X25981Y198757D01*
X25959Y198735D01*
X25952Y198713D01*
X25944Y198706D01*
X25915Y198640D01*
X25900Y198559D01*
X25871Y198383D01*
Y198303D01*
X25864Y198237D01*
Y198193D01*
Y198186D01*
Y198179D01*
Y197893D01*
X27943D01*
Y198186D01*
X27935Y198347D01*
X27906Y198479D01*
X27869Y198589D01*
X27833Y198684D01*
X27789Y198749D01*
X27752Y198801D01*
X27723Y198830D01*
X27716Y198837D01*
X27672Y198874D01*
X27621Y198903D01*
X27496Y198954D01*
X27357Y198991D01*
X27218Y199020D01*
X27093Y199035D01*
X27035D01*
X26984Y199042D01*
D02*
G37*
G36*
X43814Y54088D02*
X43221D01*
X43111Y54081D01*
X43024Y54074D01*
X42950Y54059D01*
X42892Y54037D01*
X42848Y54015D01*
X42811Y54001D01*
X42797Y53993D01*
X42789Y53986D01*
X42745Y53942D01*
X42716Y53898D01*
X42694Y53854D01*
X42680Y53810D01*
X42672Y53774D01*
X42665Y53744D01*
Y53722D01*
Y53715D01*
X42672Y53649D01*
X42687Y53591D01*
X42702Y53539D01*
X42724Y53503D01*
X42753Y53466D01*
X42767Y53444D01*
X42782Y53430D01*
X42789Y53422D01*
X42841Y53386D01*
X42906Y53364D01*
X43053Y53334D01*
X43119Y53327D01*
X43170Y53320D01*
X43814D01*
Y54088D01*
D02*
G37*
G36*
X24607Y55479D02*
X24592D01*
X24460Y55472D01*
X24343Y55443D01*
X24248Y55399D01*
X24160Y55355D01*
X24094Y55311D01*
X24043Y55267D01*
X24014Y55238D01*
X24006Y55230D01*
X23933Y55128D01*
X23882Y55003D01*
X23838Y54872D01*
X23816Y54740D01*
X23801Y54623D01*
X23794Y54572D01*
X23787Y54528D01*
Y54491D01*
Y54462D01*
Y54447D01*
Y54440D01*
Y54323D01*
X23794Y54220D01*
X23809Y54125D01*
X23816Y54030D01*
X23838Y53949D01*
X23853Y53883D01*
X23875Y53818D01*
X23889Y53759D01*
X23911Y53708D01*
X23933Y53664D01*
X23962Y53605D01*
X23992Y53569D01*
X23999Y53554D01*
X24079Y53474D01*
X24175Y53415D01*
X24277Y53371D01*
X24365Y53342D01*
X24453Y53327D01*
X24519Y53320D01*
X24570Y53312D01*
X24585D01*
X24716Y53320D01*
X24826Y53349D01*
X24929Y53393D01*
X25009Y53437D01*
X25075Y53481D01*
X25126Y53525D01*
X25155Y53554D01*
X25163Y53561D01*
X25199Y53613D01*
X25236Y53671D01*
X25287Y53796D01*
X25324Y53935D01*
X25346Y54066D01*
X25360Y54191D01*
X25368Y54250D01*
X25375Y54293D01*
Y54337D01*
Y54367D01*
Y54381D01*
Y54389D01*
Y54491D01*
X25368Y54593D01*
X25353Y54681D01*
X25339Y54769D01*
X25324Y54842D01*
X25309Y54908D01*
X25265Y55025D01*
X25229Y55113D01*
X25192Y55172D01*
X25170Y55208D01*
X25163Y55223D01*
X25075Y55311D01*
X24987Y55369D01*
X24892Y55413D01*
X24797Y55450D01*
X24716Y55465D01*
X24650Y55472D01*
X24607Y55479D01*
D02*
G37*
G36*
X16244Y178964D02*
X16215D01*
X16149Y178956D01*
X16091Y178942D01*
X16039Y178927D01*
X16003Y178905D01*
X15966Y178876D01*
X15944Y178861D01*
X15930Y178846D01*
X15922Y178839D01*
X15886Y178788D01*
X15864Y178722D01*
X15834Y178576D01*
X15827Y178510D01*
X15820Y178458D01*
Y178422D01*
Y178407D01*
Y177814D01*
X16588D01*
Y178407D01*
X16581Y178517D01*
X16574Y178605D01*
X16559Y178678D01*
X16537Y178737D01*
X16515Y178781D01*
X16501Y178817D01*
X16493Y178832D01*
X16486Y178839D01*
X16442Y178883D01*
X16398Y178912D01*
X16354Y178934D01*
X16310Y178949D01*
X16274Y178956D01*
X16244Y178964D01*
D02*
G37*
G36*
X17708Y178817D02*
X17679D01*
X17621Y178810D01*
X17562Y178803D01*
X17518Y178781D01*
X17481Y178766D01*
X17445Y178744D01*
X17423Y178722D01*
X17416Y178715D01*
X17408Y178707D01*
X17379Y178656D01*
X17357Y178598D01*
X17328Y178473D01*
X17320Y178415D01*
X17313Y178363D01*
Y178334D01*
Y178319D01*
Y177814D01*
X18038D01*
Y178327D01*
X18031Y178422D01*
X18023Y178502D01*
X18009Y178568D01*
X17994Y178620D01*
X17972Y178656D01*
X17957Y178685D01*
X17950Y178700D01*
X17943Y178707D01*
X17906Y178744D01*
X17862Y178773D01*
X17818Y178788D01*
X17774Y178803D01*
X17738Y178810D01*
X17708Y178817D01*
D02*
G37*
G36*
X16984Y174828D02*
X16889D01*
X16727Y174820D01*
X16596Y174813D01*
X16479Y174799D01*
X16391Y174784D01*
X16318Y174762D01*
X16266Y174747D01*
X16237Y174740D01*
X16230Y174733D01*
X16157Y174696D01*
X16098Y174659D01*
X16047Y174616D01*
X16010Y174579D01*
X15981Y174542D01*
X15959Y174520D01*
X15952Y174498D01*
X15944Y174491D01*
X15915Y174425D01*
X15900Y174345D01*
X15871Y174169D01*
Y174088D01*
X15864Y174023D01*
Y173979D01*
Y173971D01*
Y173964D01*
Y173679D01*
X17943D01*
Y173971D01*
X17935Y174132D01*
X17906Y174264D01*
X17869Y174374D01*
X17833Y174469D01*
X17789Y174535D01*
X17752Y174586D01*
X17723Y174616D01*
X17716Y174623D01*
X17672Y174659D01*
X17621Y174689D01*
X17496Y174740D01*
X17357Y174776D01*
X17218Y174806D01*
X17094Y174820D01*
X17035D01*
X16984Y174828D01*
D02*
G37*
G36*
X85670Y130479D02*
X85656D01*
X85524Y130472D01*
X85407Y130443D01*
X85312Y130399D01*
X85224Y130355D01*
X85158Y130311D01*
X85107Y130267D01*
X85078Y130238D01*
X85070Y130230D01*
X84997Y130128D01*
X84946Y130003D01*
X84902Y129872D01*
X84880Y129740D01*
X84865Y129623D01*
X84858Y129572D01*
X84851Y129528D01*
Y129491D01*
Y129462D01*
Y129447D01*
Y129440D01*
Y129323D01*
X84858Y129220D01*
X84873Y129125D01*
X84880Y129030D01*
X84902Y128949D01*
X84917Y128884D01*
X84938Y128818D01*
X84953Y128759D01*
X84975Y128708D01*
X84997Y128664D01*
X85026Y128605D01*
X85056Y128569D01*
X85063Y128554D01*
X85143Y128474D01*
X85239Y128415D01*
X85341Y128371D01*
X85429Y128342D01*
X85517Y128327D01*
X85583Y128320D01*
X85634Y128313D01*
X85649D01*
X85780Y128320D01*
X85890Y128349D01*
X85992Y128393D01*
X86073Y128437D01*
X86139Y128481D01*
X86190Y128525D01*
X86219Y128554D01*
X86227Y128561D01*
X86263Y128613D01*
X86300Y128671D01*
X86351Y128796D01*
X86388Y128935D01*
X86410Y129067D01*
X86424Y129191D01*
X86432Y129250D01*
X86439Y129293D01*
Y129337D01*
Y129367D01*
Y129381D01*
Y129389D01*
Y129491D01*
X86432Y129594D01*
X86417Y129681D01*
X86402Y129769D01*
X86388Y129842D01*
X86373Y129908D01*
X86329Y130025D01*
X86293Y130113D01*
X86256Y130172D01*
X86234Y130208D01*
X86227Y130223D01*
X86139Y130311D01*
X86051Y130369D01*
X85956Y130413D01*
X85861Y130450D01*
X85780Y130465D01*
X85714Y130472D01*
X85670Y130479D01*
D02*
G37*
G36*
X14014Y87661D02*
Y80385D01*
X22797Y84023D01*
X14014Y87661D01*
D02*
G37*
G36*
X26244Y178964D02*
X26215D01*
X26149Y178956D01*
X26091Y178942D01*
X26039Y178927D01*
X26003Y178905D01*
X25966Y178876D01*
X25944Y178861D01*
X25930Y178846D01*
X25922Y178839D01*
X25886Y178788D01*
X25864Y178722D01*
X25835Y178576D01*
X25827Y178510D01*
X25820Y178458D01*
Y178422D01*
Y178407D01*
Y177814D01*
X26588D01*
Y178407D01*
X26581Y178517D01*
X26574Y178605D01*
X26559Y178678D01*
X26537Y178737D01*
X26515Y178781D01*
X26501Y178817D01*
X26493Y178832D01*
X26486Y178839D01*
X26442Y178883D01*
X26398Y178912D01*
X26354Y178934D01*
X26310Y178949D01*
X26274Y178956D01*
X26244Y178964D01*
D02*
G37*
G36*
X83928Y150443D02*
X83635D01*
X83474Y150435D01*
X83343Y150406D01*
X83233Y150369D01*
X83138Y150333D01*
X83072Y150289D01*
X83021Y150252D01*
X82991Y150223D01*
X82984Y150216D01*
X82947Y150172D01*
X82918Y150121D01*
X82867Y149996D01*
X82830Y149857D01*
X82801Y149718D01*
X82786Y149593D01*
Y149535D01*
X82779Y149484D01*
Y149447D01*
Y149418D01*
Y149396D01*
Y149389D01*
X82786Y149227D01*
X82794Y149096D01*
X82808Y148979D01*
X82823Y148891D01*
X82845Y148818D01*
X82860Y148766D01*
X82867Y148737D01*
X82874Y148730D01*
X82911Y148657D01*
X82947Y148598D01*
X82991Y148547D01*
X83028Y148510D01*
X83065Y148481D01*
X83087Y148459D01*
X83108Y148452D01*
X83116Y148444D01*
X83182Y148415D01*
X83262Y148400D01*
X83438Y148371D01*
X83518D01*
X83584Y148364D01*
X83928D01*
Y150443D01*
D02*
G37*
G36*
X26984Y174828D02*
X26889D01*
X26728Y174820D01*
X26596Y174813D01*
X26479Y174799D01*
X26391Y174784D01*
X26318Y174762D01*
X26266Y174747D01*
X26237Y174740D01*
X26230Y174733D01*
X26157Y174696D01*
X26098Y174659D01*
X26047Y174616D01*
X26010Y174579D01*
X25981Y174542D01*
X25959Y174520D01*
X25952Y174498D01*
X25944Y174491D01*
X25915Y174425D01*
X25900Y174345D01*
X25871Y174169D01*
Y174088D01*
X25864Y174023D01*
Y173979D01*
Y173971D01*
Y173964D01*
Y173679D01*
X27943D01*
Y173971D01*
X27935Y174132D01*
X27906Y174264D01*
X27869Y174374D01*
X27833Y174469D01*
X27789Y174535D01*
X27752Y174586D01*
X27723Y174616D01*
X27716Y174623D01*
X27672Y174659D01*
X27621Y174689D01*
X27496Y174740D01*
X27357Y174776D01*
X27218Y174806D01*
X27093Y174820D01*
X27035D01*
X26984Y174828D01*
D02*
G37*
G36*
X29072Y55531D02*
X28742D01*
X28625Y55523D01*
X28530Y55509D01*
X28449Y55487D01*
X28391Y55465D01*
X28340Y55443D01*
X28310Y55421D01*
X28296Y55406D01*
X28288Y55399D01*
X28245Y55348D01*
X28215Y55296D01*
X28193Y55252D01*
X28179Y55201D01*
X28171Y55164D01*
X28164Y55128D01*
Y55106D01*
Y55099D01*
X28171Y55033D01*
X28186Y54974D01*
X28208Y54923D01*
X28230Y54879D01*
X28259Y54842D01*
X28281Y54820D01*
X28296Y54806D01*
X28303Y54799D01*
X28362Y54762D01*
X28435Y54733D01*
X28515Y54711D01*
X28596Y54696D01*
X28669Y54689D01*
X28728Y54681D01*
X29072D01*
Y55531D01*
D02*
G37*
G36*
X39203Y55318D02*
X38785Y53949D01*
X39620D01*
X39203Y55318D01*
D02*
G37*
G36*
X27708Y178817D02*
X27679D01*
X27621Y178810D01*
X27562Y178803D01*
X27518Y178781D01*
X27481Y178766D01*
X27445Y178744D01*
X27423Y178722D01*
X27416Y178715D01*
X27408Y178707D01*
X27379Y178656D01*
X27357Y178598D01*
X27328Y178473D01*
X27320Y178415D01*
X27313Y178363D01*
Y178334D01*
Y178319D01*
Y177814D01*
X28038D01*
Y178327D01*
X28030Y178422D01*
X28023Y178502D01*
X28008Y178568D01*
X27994Y178620D01*
X27972Y178656D01*
X27957Y178685D01*
X27950Y178700D01*
X27943Y178707D01*
X27906Y178744D01*
X27862Y178773D01*
X27818Y178788D01*
X27774Y178803D01*
X27738Y178810D01*
X27708Y178817D01*
D02*
G37*
G36*
X43814Y55538D02*
X43302D01*
X43207Y55531D01*
X43126Y55523D01*
X43060Y55509D01*
X43009Y55494D01*
X42972Y55472D01*
X42943Y55457D01*
X42928Y55450D01*
X42921Y55443D01*
X42884Y55406D01*
X42855Y55362D01*
X42841Y55318D01*
X42826Y55274D01*
X42819Y55238D01*
X42811Y55208D01*
Y55186D01*
Y55179D01*
X42819Y55121D01*
X42826Y55062D01*
X42848Y55018D01*
X42863Y54981D01*
X42884Y54945D01*
X42906Y54923D01*
X42914Y54916D01*
X42921Y54908D01*
X42972Y54879D01*
X43031Y54857D01*
X43155Y54828D01*
X43214Y54820D01*
X43265Y54813D01*
X43814D01*
Y55538D01*
D02*
G37*
G36*
X68278Y150443D02*
X67985D01*
X67824Y150435D01*
X67693Y150406D01*
X67583Y150369D01*
X67488Y150333D01*
X67422Y150289D01*
X67370Y150252D01*
X67341Y150223D01*
X67334Y150216D01*
X67297Y150172D01*
X67268Y150121D01*
X67217Y149996D01*
X67180Y149857D01*
X67151Y149718D01*
X67136Y149593D01*
Y149535D01*
X67129Y149484D01*
Y149447D01*
Y149418D01*
Y149396D01*
Y149389D01*
X67136Y149227D01*
X67143Y149096D01*
X67158Y148979D01*
X67173Y148891D01*
X67195Y148818D01*
X67209Y148766D01*
X67217Y148737D01*
X67224Y148730D01*
X67261Y148657D01*
X67297Y148598D01*
X67341Y148547D01*
X67378Y148510D01*
X67414Y148481D01*
X67436Y148459D01*
X67458Y148452D01*
X67466Y148444D01*
X67532Y148415D01*
X67612Y148400D01*
X67788Y148371D01*
X67868D01*
X67934Y148364D01*
X68278D01*
Y150443D01*
D02*
G37*
G36*
X39203Y30318D02*
X38785Y28949D01*
X39620D01*
X39203Y30318D01*
D02*
G37*
G36*
X43814Y29088D02*
X43221D01*
X43111Y29081D01*
X43024Y29074D01*
X42950Y29059D01*
X42892Y29037D01*
X42848Y29015D01*
X42811Y29001D01*
X42797Y28993D01*
X42789Y28986D01*
X42745Y28942D01*
X42716Y28898D01*
X42694Y28854D01*
X42680Y28810D01*
X42672Y28774D01*
X42665Y28744D01*
Y28722D01*
Y28715D01*
X42672Y28649D01*
X42687Y28591D01*
X42702Y28539D01*
X42724Y28503D01*
X42753Y28466D01*
X42767Y28444D01*
X42782Y28430D01*
X42789Y28422D01*
X42841Y28386D01*
X42906Y28364D01*
X43053Y28335D01*
X43119Y28327D01*
X43170Y28320D01*
X43814D01*
Y29088D01*
D02*
G37*
G36*
Y30538D02*
X43302D01*
X43207Y30531D01*
X43126Y30523D01*
X43060Y30509D01*
X43009Y30494D01*
X42972Y30472D01*
X42943Y30457D01*
X42928Y30450D01*
X42921Y30443D01*
X42884Y30406D01*
X42855Y30362D01*
X42841Y30318D01*
X42826Y30274D01*
X42819Y30238D01*
X42811Y30208D01*
Y30186D01*
Y30179D01*
X42819Y30121D01*
X42826Y30062D01*
X42848Y30018D01*
X42863Y29981D01*
X42884Y29945D01*
X42906Y29923D01*
X42914Y29916D01*
X42921Y29908D01*
X42972Y29879D01*
X43031Y29857D01*
X43155Y29828D01*
X43214Y29820D01*
X43265Y29813D01*
X43814D01*
Y30538D01*
D02*
G37*
G36*
X76528Y165479D02*
X76513D01*
X76381Y165472D01*
X76264Y165443D01*
X76169Y165399D01*
X76081Y165355D01*
X76015Y165311D01*
X75964Y165267D01*
X75935Y165238D01*
X75928Y165230D01*
X75854Y165128D01*
X75803Y165003D01*
X75759Y164872D01*
X75737Y164740D01*
X75723Y164623D01*
X75715Y164572D01*
X75708Y164528D01*
Y164491D01*
Y164462D01*
Y164447D01*
Y164440D01*
Y164323D01*
X75715Y164220D01*
X75730Y164125D01*
X75737Y164030D01*
X75759Y163949D01*
X75774Y163883D01*
X75796Y163818D01*
X75810Y163759D01*
X75832Y163708D01*
X75854Y163664D01*
X75884Y163605D01*
X75913Y163569D01*
X75920Y163554D01*
X76001Y163474D01*
X76096Y163415D01*
X76198Y163371D01*
X76286Y163342D01*
X76374Y163327D01*
X76440Y163320D01*
X76491Y163312D01*
X76506D01*
X76638Y163320D01*
X76747Y163349D01*
X76850Y163393D01*
X76930Y163437D01*
X76996Y163481D01*
X77047Y163525D01*
X77077Y163554D01*
X77084Y163561D01*
X77121Y163613D01*
X77157Y163671D01*
X77209Y163796D01*
X77245Y163935D01*
X77267Y164067D01*
X77282Y164191D01*
X77289Y164250D01*
X77296Y164293D01*
Y164337D01*
Y164367D01*
Y164381D01*
Y164389D01*
Y164491D01*
X77289Y164594D01*
X77274Y164681D01*
X77260Y164769D01*
X77245Y164842D01*
X77231Y164908D01*
X77187Y165025D01*
X77150Y165113D01*
X77113Y165172D01*
X77091Y165208D01*
X77084Y165223D01*
X76996Y165311D01*
X76908Y165369D01*
X76813Y165413D01*
X76718Y165450D01*
X76638Y165465D01*
X76572Y165472D01*
X76528Y165479D01*
D02*
G37*
G36*
X73585Y95538D02*
X73065D01*
X72956Y95530D01*
X72860Y95523D01*
X72787Y95508D01*
X72721Y95487D01*
X72677Y95465D01*
X72648Y95450D01*
X72633Y95443D01*
X72626Y95435D01*
X72582Y95391D01*
X72553Y95347D01*
X72531Y95304D01*
X72516Y95252D01*
X72509Y95216D01*
X72502Y95179D01*
Y95157D01*
Y95150D01*
Y95106D01*
X72516Y95062D01*
X72538Y94996D01*
X72553Y94967D01*
X72568Y94945D01*
X72575Y94938D01*
X72582Y94930D01*
X72641Y94872D01*
X72707Y94835D01*
X72751Y94820D01*
X72765Y94813D01*
X72773D01*
X72853Y94798D01*
X72919Y94784D01*
X72978Y94776D01*
X73014Y94769D01*
X73051Y94762D01*
X73585D01*
Y95538D01*
D02*
G37*
G36*
X83928Y180443D02*
X83635D01*
X83474Y180435D01*
X83343Y180406D01*
X83233Y180369D01*
X83138Y180333D01*
X83072Y180289D01*
X83021Y180252D01*
X82991Y180223D01*
X82984Y180216D01*
X82947Y180172D01*
X82918Y180121D01*
X82867Y179996D01*
X82830Y179857D01*
X82801Y179718D01*
X82786Y179594D01*
Y179535D01*
X82779Y179484D01*
Y179447D01*
Y179418D01*
Y179396D01*
Y179389D01*
X82786Y179227D01*
X82794Y179096D01*
X82808Y178979D01*
X82823Y178891D01*
X82845Y178818D01*
X82860Y178766D01*
X82867Y178737D01*
X82874Y178730D01*
X82911Y178657D01*
X82947Y178598D01*
X82991Y178547D01*
X83028Y178510D01*
X83065Y178481D01*
X83087Y178459D01*
X83108Y178452D01*
X83116Y178444D01*
X83182Y178415D01*
X83262Y178400D01*
X83438Y178371D01*
X83518D01*
X83584Y178364D01*
X83928D01*
Y180443D01*
D02*
G37*
G36*
X85670Y95479D02*
X85656D01*
X85524Y95472D01*
X85407Y95443D01*
X85312Y95399D01*
X85224Y95355D01*
X85158Y95311D01*
X85107Y95267D01*
X85078Y95238D01*
X85070Y95230D01*
X84997Y95128D01*
X84946Y95003D01*
X84902Y94872D01*
X84880Y94740D01*
X84865Y94623D01*
X84858Y94572D01*
X84851Y94528D01*
Y94491D01*
Y94462D01*
Y94447D01*
Y94440D01*
Y94323D01*
X84858Y94220D01*
X84873Y94125D01*
X84880Y94030D01*
X84902Y93949D01*
X84917Y93884D01*
X84938Y93818D01*
X84953Y93759D01*
X84975Y93708D01*
X84997Y93664D01*
X85026Y93605D01*
X85056Y93569D01*
X85063Y93554D01*
X85143Y93474D01*
X85239Y93415D01*
X85341Y93371D01*
X85429Y93342D01*
X85517Y93327D01*
X85583Y93320D01*
X85634Y93313D01*
X85649D01*
X85780Y93320D01*
X85890Y93349D01*
X85992Y93393D01*
X86073Y93437D01*
X86139Y93481D01*
X86190Y93525D01*
X86219Y93554D01*
X86227Y93561D01*
X86263Y93613D01*
X86300Y93671D01*
X86351Y93796D01*
X86388Y93935D01*
X86410Y94067D01*
X86424Y94191D01*
X86432Y94249D01*
X86439Y94293D01*
Y94337D01*
Y94367D01*
Y94381D01*
Y94389D01*
Y94491D01*
X86432Y94594D01*
X86417Y94681D01*
X86402Y94769D01*
X86388Y94842D01*
X86373Y94908D01*
X86329Y95025D01*
X86293Y95113D01*
X86256Y95172D01*
X86234Y95208D01*
X86227Y95223D01*
X86139Y95311D01*
X86051Y95369D01*
X85956Y95413D01*
X85861Y95450D01*
X85780Y95465D01*
X85714Y95472D01*
X85670Y95479D01*
D02*
G37*
G36*
X66814Y95530D02*
X66485D01*
X66368Y95523D01*
X66272Y95508D01*
X66192Y95487D01*
X66133Y95465D01*
X66082Y95443D01*
X66053Y95421D01*
X66038Y95406D01*
X66031Y95399D01*
X65987Y95347D01*
X65958Y95296D01*
X65936Y95252D01*
X65921Y95201D01*
X65914Y95165D01*
X65906Y95128D01*
Y95106D01*
Y95099D01*
X65914Y95033D01*
X65928Y94974D01*
X65950Y94923D01*
X65972Y94879D01*
X66002Y94842D01*
X66024Y94820D01*
X66038Y94806D01*
X66045Y94798D01*
X66104Y94762D01*
X66177Y94733D01*
X66258Y94711D01*
X66338Y94696D01*
X66412Y94689D01*
X66470Y94681D01*
X66814D01*
Y95530D01*
D02*
G37*
G36*
X73585Y130538D02*
X73065D01*
X72956Y130531D01*
X72860Y130523D01*
X72787Y130508D01*
X72721Y130487D01*
X72677Y130465D01*
X72648Y130450D01*
X72633Y130443D01*
X72626Y130435D01*
X72582Y130391D01*
X72553Y130348D01*
X72531Y130304D01*
X72516Y130252D01*
X72509Y130216D01*
X72502Y130179D01*
Y130157D01*
Y130150D01*
Y130106D01*
X72516Y130062D01*
X72538Y129996D01*
X72553Y129967D01*
X72568Y129945D01*
X72575Y129938D01*
X72582Y129930D01*
X72641Y129872D01*
X72707Y129835D01*
X72751Y129820D01*
X72765Y129813D01*
X72773D01*
X72853Y129798D01*
X72919Y129784D01*
X72978Y129777D01*
X73014Y129769D01*
X73051Y129762D01*
X73585D01*
Y130538D01*
D02*
G37*
G36*
X83928Y165443D02*
X83635D01*
X83474Y165435D01*
X83343Y165406D01*
X83233Y165369D01*
X83138Y165333D01*
X83072Y165289D01*
X83021Y165252D01*
X82991Y165223D01*
X82984Y165216D01*
X82947Y165172D01*
X82918Y165121D01*
X82867Y164996D01*
X82830Y164857D01*
X82801Y164718D01*
X82786Y164594D01*
Y164535D01*
X82779Y164484D01*
Y164447D01*
Y164418D01*
Y164396D01*
Y164389D01*
X82786Y164227D01*
X82794Y164096D01*
X82808Y163979D01*
X82823Y163891D01*
X82845Y163818D01*
X82860Y163766D01*
X82867Y163737D01*
X82874Y163730D01*
X82911Y163657D01*
X82947Y163598D01*
X82991Y163547D01*
X83028Y163510D01*
X83065Y163481D01*
X83087Y163459D01*
X83108Y163452D01*
X83116Y163444D01*
X83182Y163415D01*
X83262Y163400D01*
X83438Y163371D01*
X83518D01*
X83584Y163364D01*
X83928D01*
Y165443D01*
D02*
G37*
G36*
X62349Y95479D02*
X62334D01*
X62203Y95472D01*
X62085Y95443D01*
X61990Y95399D01*
X61902Y95355D01*
X61836Y95311D01*
X61785Y95267D01*
X61756Y95238D01*
X61749Y95230D01*
X61676Y95128D01*
X61624Y95003D01*
X61580Y94872D01*
X61558Y94740D01*
X61544Y94623D01*
X61536Y94572D01*
X61529Y94528D01*
Y94491D01*
Y94462D01*
Y94447D01*
Y94440D01*
Y94323D01*
X61536Y94220D01*
X61551Y94125D01*
X61558Y94030D01*
X61580Y93949D01*
X61595Y93884D01*
X61617Y93818D01*
X61632Y93759D01*
X61654Y93708D01*
X61676Y93664D01*
X61705Y93605D01*
X61734Y93569D01*
X61741Y93554D01*
X61822Y93474D01*
X61917Y93415D01*
X62019Y93371D01*
X62107Y93342D01*
X62195Y93327D01*
X62261Y93320D01*
X62312Y93313D01*
X62327D01*
X62459Y93320D01*
X62568Y93349D01*
X62671Y93393D01*
X62752Y93437D01*
X62817Y93481D01*
X62869Y93525D01*
X62898Y93554D01*
X62905Y93561D01*
X62942Y93613D01*
X62978Y93671D01*
X63030Y93796D01*
X63066Y93935D01*
X63088Y94067D01*
X63103Y94191D01*
X63110Y94249D01*
X63117Y94293D01*
Y94337D01*
Y94367D01*
Y94381D01*
Y94389D01*
Y94491D01*
X63110Y94594D01*
X63096Y94681D01*
X63081Y94769D01*
X63066Y94842D01*
X63052Y94908D01*
X63008Y95025D01*
X62971Y95113D01*
X62934Y95172D01*
X62913Y95208D01*
X62905Y95223D01*
X62817Y95311D01*
X62730Y95369D01*
X62634Y95413D01*
X62539Y95450D01*
X62459Y95465D01*
X62393Y95472D01*
X62349Y95479D01*
D02*
G37*
G36*
X17679Y190119D02*
X17606D01*
X17562Y190105D01*
X17496Y190083D01*
X17467Y190068D01*
X17445Y190053D01*
X17438Y190046D01*
X17430Y190039D01*
X17372Y189980D01*
X17335Y189914D01*
X17320Y189870D01*
X17313Y189856D01*
Y189848D01*
X17299Y189768D01*
X17284Y189702D01*
X17277Y189643D01*
X17269Y189607D01*
X17262Y189570D01*
Y189548D01*
Y189541D01*
Y189534D01*
Y189036D01*
X18038D01*
Y189556D01*
X18031Y189665D01*
X18023Y189761D01*
X18009Y189834D01*
X17987Y189900D01*
X17965Y189944D01*
X17950Y189973D01*
X17943Y189988D01*
X17935Y189995D01*
X17891Y190039D01*
X17848Y190068D01*
X17804Y190090D01*
X17752Y190105D01*
X17716Y190112D01*
X17679Y190119D01*
D02*
G37*
G36*
X6244Y178964D02*
X6215D01*
X6149Y178956D01*
X6091Y178942D01*
X6039Y178927D01*
X6003Y178905D01*
X5966Y178876D01*
X5944Y178861D01*
X5930Y178846D01*
X5922Y178839D01*
X5886Y178788D01*
X5864Y178722D01*
X5835Y178576D01*
X5827Y178510D01*
X5820Y178458D01*
Y178422D01*
Y178407D01*
Y177814D01*
X6588D01*
Y178407D01*
X6581Y178517D01*
X6574Y178605D01*
X6559Y178678D01*
X6537Y178737D01*
X6515Y178781D01*
X6501Y178817D01*
X6493Y178832D01*
X6486Y178839D01*
X6442Y178883D01*
X6398Y178912D01*
X6354Y178934D01*
X6310Y178949D01*
X6274Y178956D01*
X6244Y178964D01*
D02*
G37*
G36*
X7708Y178817D02*
X7679D01*
X7621Y178810D01*
X7562Y178803D01*
X7518Y178781D01*
X7481Y178766D01*
X7445Y178744D01*
X7423Y178722D01*
X7416Y178715D01*
X7408Y178707D01*
X7379Y178656D01*
X7357Y178598D01*
X7328Y178473D01*
X7320Y178415D01*
X7313Y178363D01*
Y178334D01*
Y178319D01*
Y177814D01*
X8038D01*
Y178327D01*
X8031Y178422D01*
X8023Y178502D01*
X8009Y178568D01*
X7994Y178620D01*
X7972Y178656D01*
X7957Y178685D01*
X7950Y178700D01*
X7943Y178707D01*
X7906Y178744D01*
X7862Y178773D01*
X7818Y178788D01*
X7774Y178803D01*
X7738Y178810D01*
X7708Y178817D01*
D02*
G37*
G36*
X6984Y174828D02*
X6889D01*
X6728Y174820D01*
X6596Y174813D01*
X6479Y174799D01*
X6391Y174784D01*
X6318Y174762D01*
X6266Y174747D01*
X6237Y174740D01*
X6230Y174733D01*
X6157Y174696D01*
X6098Y174659D01*
X6047Y174616D01*
X6010Y174579D01*
X5981Y174542D01*
X5959Y174520D01*
X5952Y174498D01*
X5944Y174491D01*
X5915Y174425D01*
X5900Y174345D01*
X5871Y174169D01*
Y174088D01*
X5864Y174023D01*
Y173979D01*
Y173971D01*
Y173964D01*
Y173679D01*
X7943D01*
Y173971D01*
X7935Y174132D01*
X7906Y174264D01*
X7869Y174374D01*
X7833Y174469D01*
X7789Y174535D01*
X7752Y174586D01*
X7723Y174616D01*
X7716Y174623D01*
X7672Y174659D01*
X7621Y174689D01*
X7496Y174740D01*
X7357Y174776D01*
X7218Y174806D01*
X7094Y174820D01*
X7035D01*
X6984Y174828D01*
D02*
G37*
G36*
X77406Y95479D02*
X77391D01*
X77260Y95472D01*
X77143Y95443D01*
X77047Y95399D01*
X76960Y95355D01*
X76894Y95311D01*
X76842Y95267D01*
X76813Y95238D01*
X76806Y95230D01*
X76733Y95128D01*
X76682Y95003D01*
X76638Y94872D01*
X76616Y94740D01*
X76601Y94623D01*
X76594Y94572D01*
X76586Y94528D01*
Y94491D01*
Y94462D01*
Y94447D01*
Y94440D01*
Y94323D01*
X76594Y94220D01*
X76608Y94125D01*
X76616Y94030D01*
X76638Y93949D01*
X76652Y93884D01*
X76674Y93818D01*
X76689Y93759D01*
X76711Y93708D01*
X76733Y93664D01*
X76762Y93605D01*
X76791Y93569D01*
X76799Y93554D01*
X76879Y93474D01*
X76974Y93415D01*
X77077Y93371D01*
X77165Y93342D01*
X77252Y93327D01*
X77318Y93320D01*
X77370Y93313D01*
X77384D01*
X77516Y93320D01*
X77626Y93349D01*
X77728Y93393D01*
X77809Y93437D01*
X77875Y93481D01*
X77926Y93525D01*
X77955Y93554D01*
X77962Y93561D01*
X77999Y93613D01*
X78036Y93671D01*
X78087Y93796D01*
X78123Y93935D01*
X78145Y94067D01*
X78160Y94191D01*
X78167Y94249D01*
X78175Y94293D01*
Y94337D01*
Y94367D01*
Y94381D01*
Y94389D01*
Y94491D01*
X78167Y94594D01*
X78153Y94681D01*
X78138Y94769D01*
X78123Y94842D01*
X78109Y94908D01*
X78065Y95025D01*
X78028Y95113D01*
X77992Y95172D01*
X77970Y95208D01*
X77962Y95223D01*
X77875Y95311D01*
X77787Y95369D01*
X77692Y95413D01*
X77596Y95450D01*
X77516Y95465D01*
X77450Y95472D01*
X77406Y95479D01*
D02*
G37*
%LPD*%
M02*
