G04*
G04 #@! TF.GenerationSoftware,Altium Limited,CircuitStudio,1.5.2 (30)*
G04*
G04 Layer_Color=7318015*
%FSLAX25Y25*%
%MOIN*%
G70*
G01*
G75*
%ADD10R,0.02559X0.04724*%
%ADD11R,0.02756X0.03543*%
%ADD12R,0.01772X0.02165*%
%ADD13R,0.02165X0.01772*%
%ADD14R,0.03543X0.03150*%
%ADD15R,0.10630X0.03150*%
%ADD16R,0.26378X0.26378*%
%ADD17R,0.06299X0.11811*%
%ADD18O,0.00984X0.03543*%
%ADD19O,0.03543X0.00984*%
%ADD21R,0.03347X0.01378*%
%ADD22R,0.01378X0.03347*%
%ADD23R,0.02362X0.03937*%
%ADD24R,0.03937X0.02362*%
%ADD25R,0.06496X0.09449*%
%ADD26R,0.03543X0.00984*%
%ADD27R,0.02362X0.03937*%
%ADD28R,0.02500X0.01350*%
%ADD29R,0.01350X0.02500*%
%ADD30R,0.01575X0.07874*%
%ADD52R,0.11260X0.11260*%
D10*
X66732Y165965D02*
D03*
Y149035D02*
D03*
X58268D02*
D03*
Y165965D02*
D03*
X80768Y149035D02*
D03*
Y165965D02*
D03*
X89232D02*
D03*
Y149035D02*
D03*
D11*
X14256Y192000D02*
D03*
X8744D02*
D03*
X72756Y186000D02*
D03*
X67244D02*
D03*
X57244Y62500D02*
D03*
X62756D02*
D03*
X62756Y87500D02*
D03*
X57244D02*
D03*
X82244Y87500D02*
D03*
X87756D02*
D03*
X74744Y62500D02*
D03*
X80256D02*
D03*
X95256Y62500D02*
D03*
X89744D02*
D03*
D12*
X11772Y197000D02*
D03*
X8228D02*
D03*
X8228Y142500D02*
D03*
X11772D02*
D03*
X8228Y153500D02*
D03*
X11772D02*
D03*
X74272Y181000D02*
D03*
X70728D02*
D03*
X74272Y176000D02*
D03*
X70728D02*
D03*
X89272Y200000D02*
D03*
X85728D02*
D03*
X50728Y105000D02*
D03*
X54272D02*
D03*
X46772D02*
D03*
X43228D02*
D03*
X27772Y153500D02*
D03*
X24228D02*
D03*
X54228Y185500D02*
D03*
X57772D02*
D03*
X85728Y205000D02*
D03*
X89272D02*
D03*
X89272Y190000D02*
D03*
X85728D02*
D03*
D13*
X80000Y183228D02*
D03*
Y186772D02*
D03*
Y179272D02*
D03*
Y175728D02*
D03*
X72500Y68228D02*
D03*
Y71772D02*
D03*
X11500Y146228D02*
D03*
Y149772D02*
D03*
X54500Y174728D02*
D03*
Y178272D02*
D03*
X60000Y104272D02*
D03*
Y100728D02*
D03*
Y93228D02*
D03*
Y96772D02*
D03*
X40000Y39272D02*
D03*
Y35728D02*
D03*
Y31772D02*
D03*
Y28228D02*
D03*
X72500Y75728D02*
D03*
Y79272D02*
D03*
X20000Y31772D02*
D03*
Y28228D02*
D03*
Y35728D02*
D03*
Y39272D02*
D03*
D14*
X102500Y107972D02*
D03*
Y117028D02*
D03*
X35000Y57028D02*
D03*
Y47972D02*
D03*
X25000Y57028D02*
D03*
Y47972D02*
D03*
D15*
X42500Y79528D02*
D03*
Y70472D02*
D03*
X102500D02*
D03*
Y79528D02*
D03*
D16*
X77500Y125591D02*
D03*
D17*
X86555Y99410D02*
D03*
X68445D02*
D03*
D18*
X11673Y158614D02*
D03*
X13642D02*
D03*
X15610D02*
D03*
X17579D02*
D03*
X19547D02*
D03*
X21516D02*
D03*
X23484D02*
D03*
X25453D02*
D03*
X27421D02*
D03*
X29390D02*
D03*
X31358D02*
D03*
X33327D02*
D03*
Y185386D02*
D03*
X31358D02*
D03*
X29390D02*
D03*
X27421D02*
D03*
X25453D02*
D03*
X23484D02*
D03*
X21516D02*
D03*
X19547D02*
D03*
X17579D02*
D03*
X15610D02*
D03*
X13642D02*
D03*
X11673D02*
D03*
D19*
X35886Y161173D02*
D03*
Y163142D02*
D03*
Y165110D02*
D03*
Y167079D02*
D03*
Y169047D02*
D03*
Y171016D02*
D03*
Y172984D02*
D03*
Y174953D02*
D03*
Y176921D02*
D03*
Y178890D02*
D03*
Y180858D02*
D03*
Y182827D02*
D03*
X9114D02*
D03*
Y180858D02*
D03*
Y178890D02*
D03*
Y176921D02*
D03*
Y174953D02*
D03*
Y172984D02*
D03*
Y171016D02*
D03*
Y169047D02*
D03*
Y167079D02*
D03*
Y165110D02*
D03*
Y163142D02*
D03*
Y161173D02*
D03*
D21*
X45669Y100059D02*
D03*
Y97500D02*
D03*
Y94941D02*
D03*
X54331Y100059D02*
D03*
Y97500D02*
D03*
Y94941D02*
D03*
D22*
X84941Y175669D02*
D03*
X87500D02*
D03*
X90059D02*
D03*
X84941Y184331D02*
D03*
X87500D02*
D03*
X90059D02*
D03*
D23*
X33740Y29587D02*
D03*
X26260D02*
D03*
Y40413D02*
D03*
X30000D02*
D03*
X33740D02*
D03*
D24*
X54587Y71260D02*
D03*
Y78740D02*
D03*
X65413D02*
D03*
Y75000D02*
D03*
Y71260D02*
D03*
D25*
X85000Y75000D02*
D03*
D26*
X79094Y78937D02*
D03*
Y76968D02*
D03*
Y75000D02*
D03*
Y73032D02*
D03*
Y71063D02*
D03*
X90905Y78937D02*
D03*
Y76968D02*
D03*
Y75000D02*
D03*
Y73032D02*
D03*
Y71063D02*
D03*
D27*
X8059Y135406D02*
D03*
Y123594D02*
D03*
X2941D02*
D03*
Y135406D02*
D03*
D28*
X58700Y180453D02*
D03*
Y178484D02*
D03*
Y176516D02*
D03*
Y174547D02*
D03*
X66300D02*
D03*
Y176516D02*
D03*
Y178484D02*
D03*
Y180453D02*
D03*
D29*
X61516Y173700D02*
D03*
X63484D02*
D03*
Y181300D02*
D03*
X61516D02*
D03*
D30*
X18504Y19685D02*
D03*
X21063D02*
D03*
X23622D02*
D03*
X26181D02*
D03*
X28740D02*
D03*
D52*
X22500Y172000D02*
D03*
M02*
