G04*
G04 #@! TF.GenerationSoftware,Altium Limited,CircuitStudio,1.5.2 (30)*
G04*
G04 Layer_Physical_Order=3*
G04 Layer_Color=10079487*
%FSLAX25Y25*%
%MOIN*%
G70*
G01*
G75*
%ADD46C,0.02500*%
G36*
X109746Y214126D02*
X111168Y213695D01*
X112478Y212995D01*
X113627Y212052D01*
X114569Y210904D01*
X115270Y209593D01*
X115701Y208172D01*
X115837Y206796D01*
X115816Y206693D01*
Y59055D01*
X115813D01*
X116001Y56186D01*
X116562Y53366D01*
X117487Y50643D01*
X118110Y49378D01*
Y2294D01*
X9843D01*
X9740Y2274D01*
X8364Y2409D01*
X6942Y2840D01*
X5632Y3541D01*
X4483Y4483D01*
X3541Y5632D01*
X2840Y6942D01*
X2409Y8364D01*
X2274Y9740D01*
X2294Y9843D01*
Y116860D01*
X2681Y117177D01*
X3000Y117114D01*
X3722Y117257D01*
X4334Y117666D01*
X4743Y118278D01*
X4886Y119000D01*
X4743Y119722D01*
X4334Y120334D01*
X3722Y120743D01*
X3000Y120886D01*
X2681Y120823D01*
X2294Y121140D01*
Y121625D01*
X25383D01*
Y137374D01*
X2294D01*
Y137860D01*
X2681Y138177D01*
X3000Y138114D01*
X3722Y138257D01*
X4334Y138666D01*
X4743Y139278D01*
X4886Y140000D01*
X4743Y140722D01*
X4334Y141334D01*
X3722Y141743D01*
X3000Y141886D01*
X2559Y142250D01*
X3000Y142614D01*
X3722Y142757D01*
X4334Y143166D01*
X4743Y143778D01*
X4886Y144500D01*
X4743Y145222D01*
X4334Y145834D01*
X3722Y146243D01*
X3000Y146386D01*
X2559Y146750D01*
X3000Y147114D01*
X3722Y147257D01*
X4334Y147666D01*
X4743Y148278D01*
X4745Y148290D01*
X5255D01*
X5257Y148278D01*
X5666Y147666D01*
X6278Y147257D01*
X7000Y147114D01*
X7722Y147257D01*
X8334Y147666D01*
X8743Y148278D01*
X8886Y149000D01*
X8743Y149722D01*
X8334Y150334D01*
X7722Y150743D01*
X7000Y150886D01*
X6278Y150743D01*
X5666Y150334D01*
X5257Y149722D01*
X5255Y149710D01*
X4745D01*
X4743Y149722D01*
X4334Y150334D01*
X3722Y150743D01*
X3000Y150886D01*
X2559Y151250D01*
X3000Y151614D01*
X3722Y151757D01*
X4334Y152166D01*
X4743Y152778D01*
X4886Y153500D01*
X4743Y154222D01*
X4334Y154834D01*
X3722Y155243D01*
X3000Y155386D01*
X2681Y155323D01*
X2294Y155640D01*
Y156392D01*
X2794Y156581D01*
X3278Y156257D01*
X4000Y156114D01*
X4722Y156257D01*
X5334Y156666D01*
X5743Y157278D01*
X5886Y158000D01*
X5743Y158722D01*
X5334Y159334D01*
X4722Y159743D01*
X4000Y159886D01*
X3278Y159743D01*
X2666Y159334D01*
X2166Y159485D01*
X2109Y160350D01*
X1846Y161673D01*
X2258Y162165D01*
X2722Y162257D01*
X3334Y162666D01*
X3743Y163278D01*
X3886Y164000D01*
X3743Y164722D01*
X3334Y165334D01*
X2722Y165743D01*
X2000Y165886D01*
X1278Y165743D01*
X1161Y165664D01*
X677Y165799D01*
X618Y165903D01*
X42Y167072D01*
Y214241D01*
X37668D01*
X37909Y213741D01*
X37627Y213320D01*
X37484Y212598D01*
X37627Y211877D01*
X38036Y211265D01*
X38648Y210856D01*
X39370Y210712D01*
X40092Y210856D01*
X40704Y211265D01*
X41113Y211877D01*
X41256Y212598D01*
X41113Y213320D01*
X40831Y213741D01*
X41073Y214241D01*
X53416D01*
X53657Y213741D01*
X53376Y213320D01*
X53232Y212598D01*
X53376Y211877D01*
X53784Y211265D01*
X54396Y210856D01*
X55118Y210712D01*
X55840Y210856D01*
X56452Y211265D01*
X56861Y211877D01*
X57004Y212598D01*
X56861Y213320D01*
X56579Y213741D01*
X56821Y214241D01*
X69164D01*
X69405Y213741D01*
X69124Y213320D01*
X68980Y212598D01*
X69124Y211877D01*
X69532Y211265D01*
X70144Y210856D01*
X70866Y210712D01*
X71588Y210856D01*
X72200Y211265D01*
X72609Y211877D01*
X72752Y212598D01*
X72609Y213320D01*
X72327Y213741D01*
X72569Y214241D01*
X84912D01*
X85153Y213741D01*
X84872Y213320D01*
X84728Y212598D01*
X84872Y211877D01*
X85280Y211265D01*
X85892Y210856D01*
X86614Y210712D01*
X87336Y210856D01*
X87948Y211265D01*
X88357Y211877D01*
X88500Y212598D01*
X88357Y213320D01*
X88076Y213741D01*
X88317Y214241D01*
X100660D01*
X100901Y213741D01*
X100619Y213320D01*
X100476Y212598D01*
X100619Y211877D01*
X101028Y211265D01*
X101640Y210856D01*
X102362Y210712D01*
X103084Y210856D01*
X103696Y211265D01*
X104105Y211877D01*
X104248Y212598D01*
X104105Y213320D01*
X103823Y213741D01*
X104065Y214241D01*
X108268D01*
X108370Y214262D01*
X109746Y214126D01*
D02*
G37*
%LPC*%
G36*
X7874Y112122D02*
X7152Y111979D01*
X6540Y111570D01*
X6131Y110958D01*
X5988Y110236D01*
X6131Y109514D01*
X6540Y108902D01*
X7152Y108494D01*
X7874Y108350D01*
X8596Y108494D01*
X9208Y108902D01*
X9617Y109514D01*
X9760Y110236D01*
X9617Y110958D01*
X9208Y111570D01*
X8596Y111979D01*
X7874Y112122D01*
D02*
G37*
G36*
X54272Y104386D02*
X53550Y104243D01*
X52938Y103834D01*
X52529Y103222D01*
X52385Y102500D01*
X52529Y101778D01*
X52938Y101166D01*
X53550Y100757D01*
X54272Y100614D01*
X54993Y100757D01*
X55605Y101166D01*
X56014Y101778D01*
X56158Y102500D01*
X56014Y103222D01*
X55605Y103834D01*
X54993Y104243D01*
X54272Y104386D01*
D02*
G37*
G36*
X110236Y104248D02*
X109514Y104105D01*
X108902Y103696D01*
X108494Y103084D01*
X108350Y102362D01*
X108494Y101640D01*
X108902Y101028D01*
X109514Y100619D01*
X110236Y100476D01*
X110958Y100619D01*
X111570Y101028D01*
X111979Y101640D01*
X112122Y102362D01*
X111979Y103084D01*
X111570Y103696D01*
X110958Y104105D01*
X110236Y104248D01*
D02*
G37*
G36*
X55118Y112122D02*
X54396Y111979D01*
X53784Y111570D01*
X53376Y110958D01*
X53232Y110236D01*
X53376Y109514D01*
X53784Y108902D01*
X54396Y108494D01*
X55118Y108350D01*
X55840Y108494D01*
X56452Y108902D01*
X56861Y109514D01*
X57004Y110236D01*
X56861Y110958D01*
X56452Y111570D01*
X55840Y111979D01*
X55118Y112122D01*
D02*
G37*
G36*
X39370D02*
X38648Y111979D01*
X38036Y111570D01*
X37627Y110958D01*
X37484Y110236D01*
X37627Y109514D01*
X38036Y108902D01*
X38648Y108494D01*
X39370Y108350D01*
X40092Y108494D01*
X40704Y108902D01*
X41113Y109514D01*
X41256Y110236D01*
X41113Y110958D01*
X40704Y111570D01*
X40092Y111979D01*
X39370Y112122D01*
D02*
G37*
G36*
X23622D02*
X22900Y111979D01*
X22288Y111570D01*
X21879Y110958D01*
X21736Y110236D01*
X21879Y109514D01*
X22288Y108902D01*
X22900Y108494D01*
X23622Y108350D01*
X24344Y108494D01*
X24956Y108902D01*
X25365Y109514D01*
X25508Y110236D01*
X25365Y110958D01*
X24956Y111570D01*
X24344Y111979D01*
X23622Y112122D01*
D02*
G37*
G36*
X78740Y104248D02*
X78018Y104105D01*
X77406Y103696D01*
X76998Y103084D01*
X76854Y102362D01*
X76998Y101640D01*
X77406Y101028D01*
X78018Y100619D01*
X78740Y100476D01*
X79462Y100619D01*
X80074Y101028D01*
X80483Y101640D01*
X80626Y102362D01*
X80483Y103084D01*
X80074Y103696D01*
X79462Y104105D01*
X78740Y104248D01*
D02*
G37*
G36*
X45500Y94886D02*
X44778Y94743D01*
X44166Y94334D01*
X43757Y93722D01*
X43614Y93000D01*
X43757Y92278D01*
X44166Y91666D01*
X44778Y91257D01*
X45500Y91114D01*
X46222Y91257D01*
X46834Y91666D01*
X47243Y92278D01*
X47386Y93000D01*
X47243Y93722D01*
X46834Y94334D01*
X46222Y94743D01*
X45500Y94886D01*
D02*
G37*
G36*
X82000Y93886D02*
X81278Y93743D01*
X80666Y93334D01*
X80257Y92722D01*
X80114Y92000D01*
X80257Y91278D01*
X80666Y90666D01*
X81278Y90257D01*
X82000Y90114D01*
X82722Y90257D01*
X83334Y90666D01*
X83743Y91278D01*
X83886Y92000D01*
X83743Y92722D01*
X83334Y93334D01*
X82722Y93743D01*
X82000Y93886D01*
D02*
G37*
G36*
X102500Y101537D02*
X101225Y101411D01*
X99998Y101039D01*
X98868Y100435D01*
X97878Y99622D01*
X97065Y98632D01*
X96461Y97502D01*
X96089Y96275D01*
X95963Y95000D01*
X96089Y93725D01*
X96461Y92498D01*
X97065Y91368D01*
X97878Y90378D01*
X98868Y89565D01*
X99998Y88961D01*
X101225Y88589D01*
X102500Y88463D01*
X103775Y88589D01*
X105002Y88961D01*
X106132Y89565D01*
X107122Y90378D01*
X107935Y91368D01*
X108539Y92498D01*
X108911Y93725D01*
X109037Y95000D01*
X108911Y96275D01*
X108539Y97502D01*
X107935Y98632D01*
X107122Y99622D01*
X106132Y100435D01*
X105002Y101039D01*
X103775Y101411D01*
X102500Y101537D01*
D02*
G37*
G36*
X63000Y102886D02*
X62278Y102743D01*
X61666Y102334D01*
X61257Y101722D01*
X61114Y101000D01*
X61257Y100278D01*
X61666Y99666D01*
X62278Y99257D01*
X63000Y99114D01*
X63722Y99257D01*
X64334Y99666D01*
X64743Y100278D01*
X64886Y101000D01*
X64743Y101722D01*
X64334Y102334D01*
X63722Y102743D01*
X63000Y102886D01*
D02*
G37*
G36*
X23622Y96374D02*
X22900Y96231D01*
X22288Y95822D01*
X21879Y95210D01*
X21736Y94488D01*
X21879Y93766D01*
X22288Y93154D01*
X22900Y92746D01*
X23622Y92602D01*
X24344Y92746D01*
X24956Y93154D01*
X25365Y93766D01*
X25508Y94488D01*
X25365Y95210D01*
X24956Y95822D01*
X24344Y96231D01*
X23622Y96374D01*
D02*
G37*
G36*
X7874D02*
X7152Y96231D01*
X6540Y95822D01*
X6131Y95210D01*
X5988Y94488D01*
X6131Y93766D01*
X6540Y93154D01*
X7152Y92746D01*
X7874Y92602D01*
X8596Y92746D01*
X9208Y93154D01*
X9617Y93766D01*
X9760Y94488D01*
X9617Y95210D01*
X9208Y95822D01*
X8596Y96231D01*
X7874Y96374D01*
D02*
G37*
G36*
X62992Y112122D02*
X62270Y111979D01*
X61658Y111570D01*
X61250Y110958D01*
X61106Y110236D01*
X61250Y109514D01*
X61658Y108902D01*
X62270Y108494D01*
X62992Y108350D01*
X63714Y108494D01*
X64326Y108902D01*
X64735Y109514D01*
X64878Y110236D01*
X64735Y110958D01*
X64326Y111570D01*
X63714Y111979D01*
X62992Y112122D01*
D02*
G37*
G36*
X55118Y127871D02*
X54396Y127727D01*
X53784Y127318D01*
X53376Y126706D01*
X53232Y125984D01*
X53376Y125262D01*
X53784Y124651D01*
X54396Y124242D01*
X55118Y124098D01*
X55840Y124242D01*
X56452Y124651D01*
X56861Y125262D01*
X57004Y125984D01*
X56861Y126706D01*
X56452Y127318D01*
X55840Y127727D01*
X55118Y127871D01*
D02*
G37*
G36*
X39370D02*
X38648Y127727D01*
X38036Y127318D01*
X37627Y126706D01*
X37484Y125984D01*
X37627Y125262D01*
X38036Y124651D01*
X38648Y124242D01*
X39370Y124098D01*
X40092Y124242D01*
X40704Y124651D01*
X41113Y125262D01*
X41256Y125984D01*
X41113Y126706D01*
X40704Y127318D01*
X40092Y127727D01*
X39370Y127871D01*
D02*
G37*
G36*
X102500Y136537D02*
X101225Y136411D01*
X99998Y136039D01*
X98868Y135435D01*
X97878Y134622D01*
X97065Y133632D01*
X96461Y132502D01*
X96089Y131275D01*
X95963Y130000D01*
X96089Y128725D01*
X96461Y127498D01*
X97065Y126368D01*
X97878Y125378D01*
X98868Y124565D01*
X99998Y123961D01*
X101225Y123589D01*
X102500Y123463D01*
X103775Y123589D01*
X105002Y123961D01*
X106132Y124565D01*
X107122Y125378D01*
X107935Y126368D01*
X108539Y127498D01*
X108911Y128725D01*
X109037Y130000D01*
X108911Y131275D01*
X108539Y132502D01*
X107935Y133632D01*
X107122Y134622D01*
X106132Y135435D01*
X105002Y136039D01*
X103775Y136411D01*
X102500Y136537D01*
D02*
G37*
G36*
X28000Y137886D02*
X27278Y137743D01*
X26666Y137334D01*
X26257Y136722D01*
X26114Y136000D01*
X26257Y135278D01*
X26666Y134666D01*
X27278Y134257D01*
X28000Y134114D01*
X28722Y134257D01*
X29334Y134666D01*
X29743Y135278D01*
X29886Y136000D01*
X29743Y136722D01*
X29334Y137334D01*
X28722Y137743D01*
X28000Y137886D01*
D02*
G37*
G36*
Y133386D02*
X27278Y133243D01*
X26666Y132834D01*
X26257Y132222D01*
X26114Y131500D01*
X26257Y130778D01*
X26666Y130166D01*
X27278Y129757D01*
X28000Y129614D01*
X28722Y129757D01*
X29334Y130166D01*
X29743Y130778D01*
X29886Y131500D01*
X29743Y132222D01*
X29334Y132834D01*
X28722Y133243D01*
X28000Y133386D01*
D02*
G37*
G36*
Y128886D02*
X27278Y128743D01*
X26666Y128334D01*
X26257Y127722D01*
X26114Y127000D01*
X26257Y126278D01*
X26666Y125666D01*
X27278Y125257D01*
X28000Y125114D01*
X28722Y125257D01*
X29334Y125666D01*
X29743Y126278D01*
X29886Y127000D01*
X29743Y127722D01*
X29334Y128334D01*
X28722Y128743D01*
X28000Y128886D01*
D02*
G37*
G36*
Y124386D02*
X27278Y124243D01*
X26666Y123834D01*
X26257Y123222D01*
X26114Y122500D01*
X26257Y121778D01*
X26666Y121166D01*
X27278Y120757D01*
X28000Y120614D01*
X28722Y120757D01*
X29334Y121166D01*
X29743Y121778D01*
X29886Y122500D01*
X29743Y123222D01*
X29334Y123834D01*
X28722Y124243D01*
X28000Y124386D01*
D02*
G37*
G36*
X12000Y120886D02*
X11278Y120743D01*
X10666Y120334D01*
X10257Y119722D01*
X10114Y119000D01*
X10257Y118278D01*
X10666Y117666D01*
X11278Y117257D01*
X12000Y117114D01*
X12722Y117257D01*
X13334Y117666D01*
X13743Y118278D01*
X13886Y119000D01*
X13743Y119722D01*
X13334Y120334D01*
X12722Y120743D01*
X12000Y120886D01*
D02*
G37*
G36*
X7500D02*
X6778Y120743D01*
X6166Y120334D01*
X5757Y119722D01*
X5614Y119000D01*
X5757Y118278D01*
X6166Y117666D01*
X6778Y117257D01*
X7500Y117114D01*
X8222Y117257D01*
X8834Y117666D01*
X9243Y118278D01*
X9386Y119000D01*
X9243Y119722D01*
X8834Y120334D01*
X8222Y120743D01*
X7500Y120886D01*
D02*
G37*
G36*
X110236Y119997D02*
X109514Y119853D01*
X108902Y119444D01*
X108494Y118832D01*
X108350Y118110D01*
X108494Y117388D01*
X108902Y116777D01*
X109514Y116368D01*
X110236Y116224D01*
X110958Y116368D01*
X111570Y116777D01*
X111979Y117388D01*
X112122Y118110D01*
X111979Y118832D01*
X111570Y119444D01*
X110958Y119853D01*
X110236Y119997D01*
D02*
G37*
G36*
X25500Y120886D02*
X24778Y120743D01*
X24166Y120334D01*
X23757Y119722D01*
X23614Y119000D01*
X23757Y118278D01*
X24166Y117666D01*
X24778Y117257D01*
X25500Y117114D01*
X26222Y117257D01*
X26834Y117666D01*
X27243Y118278D01*
X27386Y119000D01*
X27243Y119722D01*
X26834Y120334D01*
X26222Y120743D01*
X25500Y120886D01*
D02*
G37*
G36*
X21000D02*
X20278Y120743D01*
X19666Y120334D01*
X19257Y119722D01*
X19114Y119000D01*
X19257Y118278D01*
X19666Y117666D01*
X20278Y117257D01*
X21000Y117114D01*
X21722Y117257D01*
X22334Y117666D01*
X22743Y118278D01*
X22886Y119000D01*
X22743Y119722D01*
X22334Y120334D01*
X21722Y120743D01*
X21000Y120886D01*
D02*
G37*
G36*
X16500D02*
X15778Y120743D01*
X15166Y120334D01*
X14757Y119722D01*
X14614Y119000D01*
X14757Y118278D01*
X15166Y117666D01*
X15778Y117257D01*
X16500Y117114D01*
X17222Y117257D01*
X17834Y117666D01*
X18243Y118278D01*
X18386Y119000D01*
X18243Y119722D01*
X17834Y120334D01*
X17222Y120743D01*
X16500Y120886D01*
D02*
G37*
G36*
X66000Y91886D02*
X65278Y91743D01*
X64666Y91334D01*
X64257Y90722D01*
X64114Y90000D01*
X64257Y89278D01*
X64666Y88666D01*
X65278Y88257D01*
X66000Y88114D01*
X66722Y88257D01*
X67334Y88666D01*
X67743Y89278D01*
X67886Y90000D01*
X67743Y90722D01*
X67334Y91334D01*
X66722Y91743D01*
X66000Y91886D01*
D02*
G37*
G36*
X10000Y56537D02*
X8725Y56411D01*
X7498Y56039D01*
X6368Y55435D01*
X5378Y54622D01*
X4565Y53632D01*
X3961Y52502D01*
X3589Y51275D01*
X3463Y50000D01*
X3589Y48725D01*
X3961Y47498D01*
X4565Y46368D01*
X5378Y45378D01*
X6368Y44565D01*
X7498Y43961D01*
X8725Y43589D01*
X10000Y43463D01*
X11275Y43589D01*
X12502Y43961D01*
X13632Y44565D01*
X14622Y45378D01*
X15435Y46368D01*
X16039Y47498D01*
X16411Y48725D01*
X16537Y50000D01*
X16411Y51275D01*
X16039Y52502D01*
X15435Y53632D01*
X14622Y54622D01*
X13632Y55435D01*
X12502Y56039D01*
X11275Y56411D01*
X10000Y56537D01*
D02*
G37*
G36*
X33500Y45886D02*
X32778Y45743D01*
X32166Y45334D01*
X31757Y44722D01*
X31614Y44000D01*
X31757Y43278D01*
X32166Y42666D01*
X32778Y42257D01*
X33500Y42114D01*
X34222Y42257D01*
X34834Y42666D01*
X35243Y43278D01*
X35386Y44000D01*
X35243Y44722D01*
X34834Y45334D01*
X34222Y45743D01*
X33500Y45886D01*
D02*
G37*
G36*
X43000Y37386D02*
X42278Y37243D01*
X41666Y36834D01*
X41257Y36222D01*
X41114Y35500D01*
X41257Y34778D01*
X41666Y34166D01*
X42278Y33757D01*
X43000Y33614D01*
X43722Y33757D01*
X44334Y34166D01*
X44743Y34778D01*
X44886Y35500D01*
X44743Y36222D01*
X44334Y36834D01*
X43722Y37243D01*
X43000Y37386D01*
D02*
G37*
G36*
X82677Y54963D02*
X81698Y54834D01*
X80786Y54456D01*
X80003Y53855D01*
X79402Y53072D01*
X79024Y52160D01*
X78992Y51919D01*
X78488D01*
X78456Y52160D01*
X78078Y53072D01*
X77477Y53855D01*
X76694Y54456D01*
X75782Y54834D01*
X74803Y54963D01*
X73824Y54834D01*
X72912Y54456D01*
X72129Y53855D01*
X71528Y53072D01*
X71150Y52160D01*
X71021Y51181D01*
X71150Y50202D01*
X71528Y49290D01*
X72129Y48507D01*
X72912Y47906D01*
X73824Y47528D01*
X74803Y47399D01*
X75782Y47528D01*
X76694Y47906D01*
X77477Y48507D01*
X78078Y49290D01*
X78456Y50202D01*
X78488Y50444D01*
X78992D01*
X79024Y50202D01*
X79402Y49290D01*
X80003Y48507D01*
X80786Y47906D01*
X81698Y47528D01*
X82677Y47399D01*
X83656Y47528D01*
X84568Y47906D01*
X85351Y48507D01*
X85952Y49290D01*
X86330Y50202D01*
X86459Y51181D01*
X86330Y52160D01*
X85952Y53072D01*
X85351Y53855D01*
X84568Y54456D01*
X83656Y54834D01*
X82677Y54963D01*
D02*
G37*
G36*
X92520D02*
X91541Y54834D01*
X90629Y54456D01*
X89845Y53855D01*
X89244Y53072D01*
X88867Y52160D01*
X88738Y51181D01*
X88867Y50202D01*
X89244Y49290D01*
X89845Y48507D01*
X90629Y47906D01*
X91541Y47528D01*
X92520Y47399D01*
X93498Y47528D01*
X94411Y47906D01*
X95194Y48507D01*
X95795Y49290D01*
X96173Y50202D01*
X96302Y51181D01*
X96173Y52160D01*
X95795Y53072D01*
X95194Y53855D01*
X94411Y54456D01*
X93498Y54834D01*
X92520Y54963D01*
D02*
G37*
G36*
X64961D02*
X63982Y54834D01*
X63070Y54456D01*
X62286Y53855D01*
X61685Y53072D01*
X61308Y52160D01*
X61179Y51181D01*
X61308Y50202D01*
X61685Y49290D01*
X62286Y48507D01*
X63070Y47906D01*
X63982Y47528D01*
X64961Y47399D01*
X65939Y47528D01*
X66852Y47906D01*
X67635Y48507D01*
X68236Y49290D01*
X68614Y50202D01*
X68743Y51181D01*
X68614Y52160D01*
X68236Y53072D01*
X67635Y53855D01*
X66852Y54456D01*
X65939Y54834D01*
X64961Y54963D01*
D02*
G37*
G36*
X104606Y49027D02*
X102945Y48863D01*
X101348Y48379D01*
X99876Y47592D01*
X98585Y46533D01*
X97526Y45243D01*
X96740Y43770D01*
X96255Y42173D01*
X96091Y40512D01*
X96255Y38851D01*
X96740Y37253D01*
X97526Y35781D01*
X98585Y34491D01*
X99876Y33432D01*
X101348Y32645D01*
X102945Y32160D01*
X104606Y31997D01*
X106267Y32160D01*
X107865Y32645D01*
X109337Y33432D01*
X110627Y34491D01*
X111686Y35781D01*
X112473Y37253D01*
X112958Y38851D01*
X113121Y40512D01*
X112958Y42173D01*
X112473Y43770D01*
X111686Y45243D01*
X110627Y46533D01*
X109337Y47592D01*
X107865Y48379D01*
X106267Y48863D01*
X104606Y49027D01*
D02*
G37*
G36*
X14075Y22903D02*
X13250Y22794D01*
X12482Y22476D01*
X11822Y21970D01*
X11315Y21310D01*
X10997Y20541D01*
X10888Y19716D01*
X10997Y18892D01*
X11315Y18123D01*
X11822Y17463D01*
X12482Y16957D01*
X13250Y16639D01*
X14075Y16530D01*
X14899Y16639D01*
X15668Y16957D01*
X16328Y17463D01*
X16834Y18123D01*
X17153Y18892D01*
X17261Y19716D01*
X17153Y20541D01*
X16834Y21310D01*
X16328Y21970D01*
X15668Y22476D01*
X14899Y22794D01*
X14075Y22903D01*
D02*
G37*
G36*
X37795Y14163D02*
X36971Y14054D01*
X36202Y13736D01*
X35542Y13229D01*
X35036Y12570D01*
X34718Y11801D01*
X34609Y10976D01*
Y7433D01*
X34718Y6608D01*
X35036Y5840D01*
X35542Y5180D01*
X36202Y4674D01*
X36971Y4355D01*
X37795Y4247D01*
X38620Y4355D01*
X39388Y4674D01*
X40048Y5180D01*
X40555Y5840D01*
X40873Y6608D01*
X40982Y7433D01*
Y10976D01*
X40873Y11801D01*
X40555Y12570D01*
X40048Y13229D01*
X39388Y13736D01*
X38620Y14054D01*
X37795Y14163D01*
D02*
G37*
G36*
X9449D02*
X8624Y14054D01*
X7856Y13736D01*
X7196Y13229D01*
X6689Y12570D01*
X6371Y11801D01*
X6262Y10976D01*
Y7433D01*
X6371Y6608D01*
X6689Y5840D01*
X7196Y5180D01*
X7856Y4674D01*
X8624Y4355D01*
X9449Y4247D01*
X10273Y4355D01*
X11042Y4674D01*
X11702Y5180D01*
X12208Y5840D01*
X12527Y6608D01*
X12635Y7433D01*
Y10976D01*
X12527Y11801D01*
X12208Y12570D01*
X11702Y13229D01*
X11042Y13736D01*
X10273Y14054D01*
X9449Y14163D01*
D02*
G37*
G36*
X52874Y49027D02*
X51213Y48863D01*
X49615Y48379D01*
X48143Y47592D01*
X46853Y46533D01*
X45794Y45243D01*
X45007Y43770D01*
X44523Y42173D01*
X44359Y40512D01*
X44523Y38851D01*
X45007Y37253D01*
X45794Y35781D01*
X46853Y34491D01*
X48143Y33432D01*
X49615Y32645D01*
X51213Y32160D01*
X52874Y31997D01*
X54535Y32160D01*
X56133Y32645D01*
X57605Y33432D01*
X58895Y34491D01*
X59954Y35781D01*
X60741Y37253D01*
X61225Y38851D01*
X61389Y40512D01*
X61225Y42173D01*
X60741Y43770D01*
X59954Y45243D01*
X58895Y46533D01*
X57605Y47592D01*
X56133Y48379D01*
X54535Y48863D01*
X52874Y49027D01*
D02*
G37*
G36*
X10000Y41537D02*
X8725Y41411D01*
X7498Y41039D01*
X6368Y40435D01*
X5378Y39622D01*
X4565Y38632D01*
X3961Y37502D01*
X3589Y36275D01*
X3463Y35000D01*
X3589Y33725D01*
X3961Y32498D01*
X4565Y31368D01*
X5378Y30378D01*
X6368Y29565D01*
X7498Y28961D01*
X8725Y28589D01*
X10000Y28463D01*
X11275Y28589D01*
X12502Y28961D01*
X13632Y29565D01*
X14622Y30378D01*
X15435Y31368D01*
X16039Y32498D01*
X16411Y33725D01*
X16537Y35000D01*
X16411Y36275D01*
X16039Y37502D01*
X15435Y38632D01*
X14622Y39622D01*
X13632Y40435D01*
X12502Y41039D01*
X11275Y41411D01*
X10000Y41537D01*
D02*
G37*
G36*
X33169Y22903D02*
X32345Y22794D01*
X31576Y22476D01*
X30916Y21970D01*
X30410Y21310D01*
X30092Y20541D01*
X29983Y19716D01*
X30092Y18892D01*
X30410Y18123D01*
X30916Y17463D01*
X31576Y16957D01*
X32345Y16639D01*
X33169Y16530D01*
X33994Y16639D01*
X34762Y16957D01*
X35422Y17463D01*
X35929Y18123D01*
X36247Y18892D01*
X36356Y19716D01*
X36247Y20541D01*
X35929Y21310D01*
X35422Y21970D01*
X34762Y22476D01*
X33994Y22794D01*
X33169Y22903D01*
D02*
G37*
G36*
X7874Y64878D02*
X7152Y64735D01*
X6540Y64326D01*
X6131Y63714D01*
X5988Y62992D01*
X6131Y62270D01*
X6540Y61658D01*
X7152Y61250D01*
X7874Y61106D01*
X8596Y61250D01*
X9208Y61658D01*
X9617Y62270D01*
X9760Y62992D01*
X9617Y63714D01*
X9208Y64326D01*
X8596Y64735D01*
X7874Y64878D01*
D02*
G37*
G36*
X85000Y82886D02*
X84278Y82743D01*
X83666Y82334D01*
X83257Y81722D01*
X83114Y81000D01*
X83257Y80278D01*
X83666Y79666D01*
X84278Y79257D01*
X85000Y79114D01*
X85722Y79257D01*
X86334Y79666D01*
X86743Y80278D01*
X86886Y81000D01*
X86743Y81722D01*
X86334Y82334D01*
X85722Y82743D01*
X85000Y82886D01*
D02*
G37*
G36*
X23622Y80626D02*
X22900Y80483D01*
X22288Y80074D01*
X21879Y79462D01*
X21736Y78740D01*
X21879Y78018D01*
X22288Y77406D01*
X22900Y76998D01*
X23622Y76854D01*
X24344Y76998D01*
X24956Y77406D01*
X25365Y78018D01*
X25508Y78740D01*
X25365Y79462D01*
X24956Y80074D01*
X24344Y80483D01*
X23622Y80626D01*
D02*
G37*
G36*
X7874D02*
X7152Y80483D01*
X6540Y80074D01*
X6131Y79462D01*
X5988Y78740D01*
X6131Y78018D01*
X6540Y77406D01*
X7152Y76998D01*
X7874Y76854D01*
X8596Y76998D01*
X9208Y77406D01*
X9617Y78018D01*
X9760Y78740D01*
X9617Y79462D01*
X9208Y80074D01*
X8596Y80483D01*
X7874Y80626D01*
D02*
G37*
G36*
X110236Y88500D02*
X109514Y88357D01*
X108902Y87948D01*
X108494Y87336D01*
X108350Y86614D01*
X108494Y85892D01*
X108902Y85280D01*
X109514Y84872D01*
X110236Y84728D01*
X110958Y84872D01*
X111570Y85280D01*
X111979Y85892D01*
X112122Y86614D01*
X111979Y87336D01*
X111570Y87948D01*
X110958Y88357D01*
X110236Y88500D01*
D02*
G37*
G36*
X94488D02*
X93766Y88357D01*
X93154Y87948D01*
X92746Y87336D01*
X92602Y86614D01*
X92746Y85892D01*
X93154Y85280D01*
X93766Y84872D01*
X94488Y84728D01*
X95210Y84872D01*
X95822Y85280D01*
X96231Y85892D01*
X96374Y86614D01*
X96231Y87336D01*
X95822Y87948D01*
X95210Y88357D01*
X94488Y88500D01*
D02*
G37*
G36*
X70866D02*
X70144Y88357D01*
X69532Y87948D01*
X69124Y87336D01*
X68980Y86614D01*
X69124Y85892D01*
X69532Y85280D01*
X70144Y84872D01*
X70866Y84728D01*
X71588Y84872D01*
X72200Y85280D01*
X72609Y85892D01*
X72752Y86614D01*
X72609Y87336D01*
X72200Y87948D01*
X71588Y88357D01*
X70866Y88500D01*
D02*
G37*
G36*
X60000Y77886D02*
X59278Y77743D01*
X58666Y77334D01*
X58257Y76722D01*
X58114Y76000D01*
X58257Y75278D01*
X58666Y74666D01*
X59278Y74257D01*
X60000Y74114D01*
X60722Y74257D01*
X61334Y74666D01*
X61743Y75278D01*
X61886Y76000D01*
X61743Y76722D01*
X61334Y77334D01*
X60722Y77743D01*
X60000Y77886D01*
D02*
G37*
G36*
X110236Y64878D02*
X109514Y64735D01*
X108902Y64326D01*
X108494Y63714D01*
X108350Y62992D01*
X108494Y62270D01*
X108902Y61658D01*
X109514Y61250D01*
X110236Y61106D01*
X110958Y61250D01*
X111570Y61658D01*
X111979Y62270D01*
X112122Y62992D01*
X111979Y63714D01*
X111570Y64326D01*
X110958Y64735D01*
X110236Y64878D01*
D02*
G37*
G36*
X39370D02*
X38648Y64735D01*
X38036Y64326D01*
X37627Y63714D01*
X37484Y62992D01*
X37627Y62270D01*
X38036Y61658D01*
X38648Y61250D01*
X39370Y61106D01*
X40092Y61250D01*
X40704Y61658D01*
X41113Y62270D01*
X41256Y62992D01*
X41113Y63714D01*
X40704Y64326D01*
X40092Y64735D01*
X39370Y64878D01*
D02*
G37*
G36*
X23622D02*
X22900Y64735D01*
X22288Y64326D01*
X21879Y63714D01*
X21736Y62992D01*
X21879Y62270D01*
X22288Y61658D01*
X22900Y61250D01*
X23622Y61106D01*
X24344Y61250D01*
X24956Y61658D01*
X25365Y62270D01*
X25508Y62992D01*
X25365Y63714D01*
X24956Y64326D01*
X24344Y64735D01*
X23622Y64878D01*
D02*
G37*
G36*
X85000Y70886D02*
X84278Y70743D01*
X83666Y70334D01*
X83257Y69722D01*
X83114Y69000D01*
X83257Y68278D01*
X83666Y67666D01*
X84278Y67257D01*
X85000Y67114D01*
X85722Y67257D01*
X86334Y67666D01*
X86743Y68278D01*
X86886Y69000D01*
X86743Y69722D01*
X86334Y70334D01*
X85722Y70743D01*
X85000Y70886D01*
D02*
G37*
G36*
X89500Y68386D02*
X88778Y68243D01*
X88166Y67834D01*
X87757Y67222D01*
X87614Y66500D01*
X87757Y65778D01*
X88166Y65166D01*
X88778Y64757D01*
X89500Y64614D01*
X90222Y64757D01*
X90834Y65166D01*
X91243Y65778D01*
X91386Y66500D01*
X91243Y67222D01*
X90834Y67834D01*
X90222Y68243D01*
X89500Y68386D01*
D02*
G37*
G36*
X86500Y64386D02*
X85778Y64243D01*
X85166Y63834D01*
X84834D01*
X84222Y64243D01*
X83500Y64386D01*
X82778Y64243D01*
X82166Y63834D01*
X81757Y63222D01*
X81614Y62500D01*
X81757Y61778D01*
X82166Y61166D01*
X82778Y60757D01*
X83500Y60614D01*
X84222Y60757D01*
X84834Y61166D01*
X85166D01*
X85778Y60757D01*
X86500Y60614D01*
X87222Y60757D01*
X87834Y61166D01*
X88243Y61778D01*
X88386Y62500D01*
X88243Y63222D01*
X87834Y63834D01*
X87222Y64243D01*
X86500Y64386D01*
D02*
G37*
G36*
X15000Y181335D02*
X14298Y181196D01*
X13702Y180798D01*
X13304Y180202D01*
X13165Y179500D01*
X13304Y178798D01*
X13702Y178202D01*
X14298Y177804D01*
X15000Y177665D01*
X15702Y177804D01*
X16298Y178202D01*
X16696Y178798D01*
X16835Y179500D01*
X16696Y180202D01*
X16298Y180798D01*
X15702Y181196D01*
X15000Y181335D01*
D02*
G37*
G36*
X90500Y180886D02*
X89778Y180743D01*
X89166Y180334D01*
X88757Y179722D01*
X88614Y179000D01*
X88757Y178278D01*
X89166Y177666D01*
X89778Y177257D01*
X90500Y177114D01*
X91222Y177257D01*
X91834Y177666D01*
X92243Y178278D01*
X92386Y179000D01*
X92243Y179722D01*
X91834Y180334D01*
X91222Y180743D01*
X90500Y180886D01*
D02*
G37*
G36*
X102500Y186537D02*
X101225Y186411D01*
X99998Y186039D01*
X98868Y185435D01*
X97878Y184622D01*
X97065Y183632D01*
X96461Y182502D01*
X96089Y181275D01*
X95963Y180000D01*
X96089Y178725D01*
X96461Y177498D01*
X97065Y176368D01*
X97878Y175378D01*
X98868Y174565D01*
X99998Y173961D01*
X101225Y173589D01*
X102500Y173463D01*
X103775Y173589D01*
X105002Y173961D01*
X106132Y174565D01*
X107122Y175378D01*
X107935Y176368D01*
X108539Y177498D01*
X108911Y178725D01*
X109037Y180000D01*
X108911Y181275D01*
X108539Y182502D01*
X107935Y183632D01*
X107122Y184622D01*
X106132Y185435D01*
X105002Y186039D01*
X103775Y186411D01*
X102500Y186537D01*
D02*
G37*
G36*
X4500Y185938D02*
X3778Y185794D01*
X3166Y185385D01*
X2757Y184773D01*
X2614Y184051D01*
X2757Y183329D01*
X3166Y182718D01*
X3778Y182309D01*
X3919Y182281D01*
Y181771D01*
X3778Y181743D01*
X3166Y181334D01*
X2757Y180722D01*
X2614Y180000D01*
X2757Y179278D01*
X3166Y178666D01*
X3778Y178257D01*
X4500Y178114D01*
X5222Y178257D01*
X5834Y178666D01*
X6243Y179278D01*
X6386Y180000D01*
X6243Y180722D01*
X5834Y181334D01*
X5222Y181743D01*
X5081Y181771D01*
Y182281D01*
X5222Y182309D01*
X5834Y182718D01*
X6243Y183329D01*
X6386Y184051D01*
X6243Y184773D01*
X5834Y185385D01*
X5222Y185794D01*
X4500Y185938D01*
D02*
G37*
G36*
X30000Y181335D02*
X29298Y181196D01*
X28702Y180798D01*
X28304Y180202D01*
X28165Y179500D01*
X28304Y178798D01*
X28702Y178202D01*
X29298Y177804D01*
X30000Y177665D01*
X30702Y177804D01*
X31298Y178202D01*
X31696Y178798D01*
X31835Y179500D01*
X31696Y180202D01*
X31298Y180798D01*
X30702Y181196D01*
X30000Y181335D01*
D02*
G37*
G36*
X22500D02*
X21798Y181196D01*
X21202Y180798D01*
X20804Y180202D01*
X20665Y179500D01*
X20804Y178798D01*
X21202Y178202D01*
X21798Y177804D01*
X22500Y177665D01*
X23202Y177804D01*
X23798Y178202D01*
X24196Y178798D01*
X24335Y179500D01*
X24196Y180202D01*
X23798Y180798D01*
X23202Y181196D01*
X22500Y181335D01*
D02*
G37*
G36*
X44000Y176886D02*
X43278Y176743D01*
X42666Y176334D01*
X42257Y175722D01*
X42114Y175000D01*
X42257Y174278D01*
X42666Y173666D01*
X43278Y173257D01*
X44000Y173114D01*
X44722Y173257D01*
X45334Y173666D01*
X45743Y174278D01*
X45886Y175000D01*
X45743Y175722D01*
X45334Y176334D01*
X44722Y176743D01*
X44000Y176886D01*
D02*
G37*
G36*
X30000Y173835D02*
X29298Y173696D01*
X28702Y173298D01*
X28304Y172702D01*
X28165Y172000D01*
X28304Y171298D01*
X28702Y170702D01*
X29298Y170304D01*
X30000Y170165D01*
X30702Y170304D01*
X31298Y170702D01*
X31696Y171298D01*
X31835Y172000D01*
X31696Y172702D01*
X31298Y173298D01*
X30702Y173696D01*
X30000Y173835D01*
D02*
G37*
G36*
X22500D02*
X21798Y173696D01*
X21202Y173298D01*
X20804Y172702D01*
X20665Y172000D01*
X20804Y171298D01*
X21202Y170702D01*
X21798Y170304D01*
X22500Y170165D01*
X23202Y170304D01*
X23798Y170702D01*
X24196Y171298D01*
X24335Y172000D01*
X24196Y172702D01*
X23798Y173298D01*
X23202Y173696D01*
X22500Y173835D01*
D02*
G37*
G36*
X15000D02*
X14298Y173696D01*
X13702Y173298D01*
X13304Y172702D01*
X13165Y172000D01*
X13304Y171298D01*
X13702Y170702D01*
X14298Y170304D01*
X15000Y170165D01*
X15702Y170304D01*
X16298Y170702D01*
X16696Y171298D01*
X16835Y172000D01*
X16696Y172702D01*
X16298Y173298D01*
X15702Y173696D01*
X15000Y173835D01*
D02*
G37*
G36*
X110236Y175115D02*
X109514Y174971D01*
X108902Y174562D01*
X108494Y173950D01*
X108350Y173228D01*
X108494Y172506D01*
X108902Y171895D01*
X109514Y171486D01*
X110236Y171342D01*
X110958Y171486D01*
X111570Y171895D01*
X111979Y172506D01*
X112122Y173228D01*
X111979Y173950D01*
X111570Y174562D01*
X110958Y174971D01*
X110236Y175115D01*
D02*
G37*
G36*
X54500Y174386D02*
X53778Y174243D01*
X53166Y173834D01*
X52757Y173222D01*
X52614Y172500D01*
X52757Y171778D01*
X53166Y171166D01*
X53778Y170757D01*
X54500Y170614D01*
X55222Y170757D01*
X55834Y171166D01*
X56243Y171778D01*
X56386Y172500D01*
X56243Y173222D01*
X55834Y173834D01*
X55222Y174243D01*
X54500Y174386D01*
D02*
G37*
G36*
X4500D02*
X3778Y174243D01*
X3166Y173834D01*
X2757Y173222D01*
X2614Y172500D01*
X2757Y171778D01*
X3166Y171166D01*
X3778Y170757D01*
X4500Y170614D01*
X5222Y170757D01*
X5834Y171166D01*
X6243Y171778D01*
X6386Y172500D01*
X6243Y173222D01*
X5834Y173834D01*
X5222Y174243D01*
X4500Y174386D01*
D02*
G37*
G36*
X85000Y181886D02*
X84278Y181743D01*
X83666Y181334D01*
X83257Y180722D01*
X83114Y180000D01*
X83257Y179278D01*
X83666Y178666D01*
X84278Y178257D01*
X85000Y178114D01*
X85722Y178257D01*
X86334Y178666D01*
X86743Y179278D01*
X86886Y180000D01*
X86743Y180722D01*
X86334Y181334D01*
X85722Y181743D01*
X85000Y181886D01*
D02*
G37*
G36*
X104823Y209037D02*
X103548Y208911D01*
X102321Y208539D01*
X101191Y207935D01*
X100200Y207122D01*
X99388Y206132D01*
X98783Y205002D01*
X98412Y203775D01*
X98286Y202500D01*
X98412Y201225D01*
X98783Y199998D01*
X99388Y198868D01*
X100200Y197878D01*
X101191Y197065D01*
X102321Y196461D01*
X103548Y196089D01*
X104823Y195963D01*
X106098Y196089D01*
X107324Y196461D01*
X108455Y197065D01*
X109445Y197878D01*
X110258Y198868D01*
X110862Y199998D01*
X111234Y201225D01*
X111360Y202500D01*
X111234Y203775D01*
X110862Y205002D01*
X110258Y206132D01*
X109445Y207122D01*
X108455Y207935D01*
X107324Y208539D01*
X106098Y208911D01*
X104823Y209037D01*
D02*
G37*
G36*
X70177D02*
X68902Y208911D01*
X67676Y208539D01*
X66545Y207935D01*
X65555Y207122D01*
X64742Y206132D01*
X64138Y205002D01*
X63766Y203775D01*
X63640Y202500D01*
X63766Y201225D01*
X64138Y199998D01*
X64742Y198868D01*
X65555Y197878D01*
X66545Y197065D01*
X67676Y196461D01*
X68902Y196089D01*
X70177Y195963D01*
X71452Y196089D01*
X72679Y196461D01*
X73809Y197065D01*
X74800Y197878D01*
X75612Y198868D01*
X76217Y199998D01*
X76588Y201225D01*
X76714Y202500D01*
X76588Y203775D01*
X76217Y205002D01*
X75612Y206132D01*
X74800Y207122D01*
X73809Y207935D01*
X72679Y208539D01*
X71452Y208911D01*
X70177Y209037D01*
D02*
G37*
G36*
X55118Y198737D02*
X54396Y198593D01*
X53784Y198184D01*
X53376Y197572D01*
X53232Y196850D01*
X53376Y196129D01*
X53784Y195517D01*
X54396Y195108D01*
X55118Y194964D01*
X55840Y195108D01*
X56452Y195517D01*
X56861Y196129D01*
X57004Y196850D01*
X56861Y197572D01*
X56452Y198184D01*
X55840Y198593D01*
X55118Y198737D01*
D02*
G37*
G36*
X30000Y212156D02*
X28795Y211997D01*
X27672Y211532D01*
X26708Y210792D01*
X25968Y209828D01*
X25503Y208705D01*
X25344Y207500D01*
X25503Y206295D01*
X25968Y205172D01*
X26708Y204208D01*
X27672Y203468D01*
X28795Y203003D01*
X30000Y202844D01*
X31205Y203003D01*
X32328Y203468D01*
X33292Y204208D01*
X34032Y205172D01*
X34497Y206295D01*
X34656Y207500D01*
X34497Y208705D01*
X34032Y209828D01*
X33292Y210792D01*
X32328Y211532D01*
X31205Y211997D01*
X30000Y212156D01*
D02*
G37*
G36*
X20000D02*
X18795Y211997D01*
X17672Y211532D01*
X16708Y210792D01*
X15968Y209828D01*
X15503Y208705D01*
X15344Y207500D01*
X15503Y206295D01*
X15968Y205172D01*
X16708Y204208D01*
X17672Y203468D01*
X18795Y203003D01*
X20000Y202844D01*
X21205Y203003D01*
X22328Y203468D01*
X23292Y204208D01*
X24032Y205172D01*
X24497Y206295D01*
X24656Y207500D01*
X24497Y208705D01*
X24032Y209828D01*
X23292Y210792D01*
X22328Y211532D01*
X21205Y211997D01*
X20000Y212156D01*
D02*
G37*
G36*
X10000D02*
X8795Y211997D01*
X7672Y211532D01*
X6708Y210792D01*
X5968Y209828D01*
X5503Y208705D01*
X5344Y207500D01*
X5503Y206295D01*
X5968Y205172D01*
X6708Y204208D01*
X7672Y203468D01*
X8795Y203003D01*
X10000Y202844D01*
X11205Y203003D01*
X12328Y203468D01*
X13292Y204208D01*
X14032Y205172D01*
X14497Y206295D01*
X14656Y207500D01*
X14497Y208705D01*
X14032Y209828D01*
X13292Y210792D01*
X12328Y211532D01*
X11205Y211997D01*
X10000Y212156D01*
D02*
G37*
G36*
X39370Y198737D02*
X38648Y198593D01*
X38036Y198184D01*
X37627Y197572D01*
X37484Y196850D01*
X37627Y196129D01*
X38036Y195517D01*
X38648Y195108D01*
X39370Y194964D01*
X40092Y195108D01*
X40704Y195517D01*
X41113Y196129D01*
X41256Y196850D01*
X41113Y197572D01*
X40704Y198184D01*
X40092Y198593D01*
X39370Y198737D01*
D02*
G37*
G36*
X110236Y190863D02*
X109514Y190719D01*
X108902Y190310D01*
X108494Y189698D01*
X108350Y188976D01*
X108494Y188254D01*
X108902Y187643D01*
X109514Y187234D01*
X110236Y187090D01*
X110958Y187234D01*
X111570Y187643D01*
X111979Y188254D01*
X112122Y188976D01*
X111979Y189698D01*
X111570Y190310D01*
X110958Y190719D01*
X110236Y190863D01*
D02*
G37*
G36*
X63500Y188886D02*
X62778Y188743D01*
X62166Y188334D01*
X61757Y187722D01*
X61614Y187000D01*
X61661Y186765D01*
X61235Y186339D01*
X61000Y186386D01*
X60278Y186243D01*
X59666Y185834D01*
X59257Y185222D01*
X59114Y184500D01*
X59257Y183778D01*
X59666Y183166D01*
X60278Y182757D01*
X61000Y182614D01*
X61722Y182757D01*
X62334Y183166D01*
X62743Y183778D01*
X62886Y184500D01*
X62839Y184735D01*
X63265Y185161D01*
X63500Y185114D01*
X64222Y185257D01*
X64834Y185666D01*
X65243Y186278D01*
X65386Y187000D01*
X65243Y187722D01*
X64834Y188334D01*
X64222Y188743D01*
X63500Y188886D01*
D02*
G37*
G36*
X51500Y187386D02*
X50778Y187243D01*
X50166Y186834D01*
X49757Y186222D01*
X49614Y185500D01*
X49757Y184778D01*
X50166Y184166D01*
X50778Y183757D01*
X51500Y183614D01*
X52222Y183757D01*
X52834Y184166D01*
X53243Y184778D01*
X53386Y185500D01*
X53243Y186222D01*
X52834Y186834D01*
X52222Y187243D01*
X51500Y187386D01*
D02*
G37*
G36*
X23622Y198737D02*
X22900Y198593D01*
X22288Y198184D01*
X21879Y197572D01*
X21736Y196850D01*
X21879Y196129D01*
X22288Y195517D01*
X22900Y195108D01*
X23622Y194964D01*
X24344Y195108D01*
X24956Y195517D01*
X25365Y196129D01*
X25508Y196850D01*
X25365Y197572D01*
X24956Y198184D01*
X24344Y198593D01*
X23622Y198737D01*
D02*
G37*
G36*
X80000Y191386D02*
X79278Y191243D01*
X78666Y190834D01*
X78257Y190222D01*
X78114Y189500D01*
X78257Y188778D01*
X78666Y188166D01*
X79278Y187757D01*
X80000Y187614D01*
X80722Y187757D01*
X81334Y188166D01*
X81743Y188778D01*
X81886Y189500D01*
X81743Y190222D01*
X81334Y190834D01*
X80722Y191243D01*
X80000Y191386D01*
D02*
G37*
G36*
X18500Y190886D02*
X17778Y190743D01*
X17166Y190334D01*
X16757Y189722D01*
X16614Y189000D01*
X16757Y188278D01*
X17166Y187666D01*
X17778Y187257D01*
X18500Y187114D01*
X19222Y187257D01*
X19834Y187666D01*
X20243Y188278D01*
X20386Y189000D01*
X20243Y189722D01*
X19834Y190334D01*
X19222Y190743D01*
X18500Y190886D01*
D02*
G37*
G36*
X44000Y170886D02*
X43278Y170743D01*
X42666Y170334D01*
X42257Y169722D01*
X42114Y169000D01*
X42257Y168278D01*
X42666Y167666D01*
X43278Y167257D01*
X44000Y167114D01*
X44722Y167257D01*
X45334Y167666D01*
X45743Y168278D01*
X45886Y169000D01*
X45743Y169722D01*
X45334Y170334D01*
X44722Y170743D01*
X44000Y170886D01*
D02*
G37*
G36*
X102500Y156537D02*
X101225Y156411D01*
X99998Y156039D01*
X98868Y155435D01*
X97878Y154622D01*
X97065Y153632D01*
X96461Y152502D01*
X96089Y151275D01*
X95963Y150000D01*
X96089Y148725D01*
X96461Y147498D01*
X97065Y146368D01*
X97878Y145378D01*
X98868Y144565D01*
X99998Y143961D01*
X101225Y143589D01*
X102500Y143463D01*
X103775Y143589D01*
X105002Y143961D01*
X106132Y144565D01*
X107122Y145378D01*
X107935Y146368D01*
X108539Y147498D01*
X108911Y148725D01*
X109037Y150000D01*
X108911Y151275D01*
X108539Y152502D01*
X107935Y153632D01*
X107122Y154622D01*
X106132Y155435D01*
X105002Y156039D01*
X103775Y156411D01*
X102500Y156537D01*
D02*
G37*
G36*
X16000Y146386D02*
X15278Y146243D01*
X14666Y145834D01*
X14257Y145222D01*
X14114Y144500D01*
X14257Y143778D01*
X14666Y143166D01*
X15278Y142757D01*
X16000Y142614D01*
X16722Y142757D01*
X17334Y143166D01*
X17743Y143778D01*
X17886Y144500D01*
X17743Y145222D01*
X17334Y145834D01*
X16722Y146243D01*
X16000Y146386D01*
D02*
G37*
G36*
X110236Y143619D02*
X109514Y143475D01*
X108902Y143066D01*
X108494Y142454D01*
X108350Y141732D01*
X108494Y141010D01*
X108902Y140399D01*
X109514Y139990D01*
X110236Y139846D01*
X110958Y139990D01*
X111570Y140399D01*
X111979Y141010D01*
X112122Y141732D01*
X111979Y142454D01*
X111570Y143066D01*
X110958Y143475D01*
X110236Y143619D01*
D02*
G37*
G36*
X23622Y151493D02*
X22900Y151349D01*
X22288Y150940D01*
X21879Y150328D01*
X21736Y149606D01*
X21879Y148884D01*
X22288Y148273D01*
X22900Y147864D01*
X23622Y147720D01*
X24344Y147864D01*
X24956Y148273D01*
X25365Y148884D01*
X25508Y149606D01*
X25365Y150328D01*
X24956Y150940D01*
X24344Y151349D01*
X23622Y151493D01*
D02*
G37*
G36*
X16000Y150886D02*
X15278Y150743D01*
X14666Y150334D01*
X14257Y149722D01*
X14114Y149000D01*
X14257Y148278D01*
X14666Y147666D01*
X15278Y147257D01*
X16000Y147114D01*
X16722Y147257D01*
X17334Y147666D01*
X17743Y148278D01*
X17886Y149000D01*
X17743Y149722D01*
X17334Y150334D01*
X16722Y150743D01*
X16000Y150886D01*
D02*
G37*
G36*
X50000Y149886D02*
X49278Y149743D01*
X48666Y149334D01*
X48257Y148722D01*
X48114Y148000D01*
X48257Y147278D01*
X48666Y146666D01*
X49278Y146257D01*
X50000Y146114D01*
X50722Y146257D01*
X51334Y146666D01*
X51743Y147278D01*
X51886Y148000D01*
X51743Y148722D01*
X51334Y149334D01*
X50722Y149743D01*
X50000Y149886D01*
D02*
G37*
G36*
X70866Y143619D02*
X70144Y143475D01*
X69532Y143066D01*
X69124Y142454D01*
X68980Y141732D01*
X69124Y141010D01*
X69532Y140399D01*
X70144Y139990D01*
X70866Y139846D01*
X71588Y139990D01*
X72200Y140399D01*
X72609Y141010D01*
X72752Y141732D01*
X72609Y142454D01*
X72200Y143066D01*
X71588Y143475D01*
X70866Y143619D01*
D02*
G37*
G36*
X25500Y141886D02*
X24778Y141743D01*
X24166Y141334D01*
X23757Y140722D01*
X23614Y140000D01*
X23757Y139278D01*
X24166Y138666D01*
X24778Y138257D01*
X25500Y138114D01*
X26222Y138257D01*
X26834Y138666D01*
X27243Y139278D01*
X27386Y140000D01*
X27243Y140722D01*
X26834Y141334D01*
X26222Y141743D01*
X25500Y141886D01*
D02*
G37*
G36*
X21000D02*
X20278Y141743D01*
X19666Y141334D01*
X19257Y140722D01*
X19114Y140000D01*
X19257Y139278D01*
X19666Y138666D01*
X20278Y138257D01*
X21000Y138114D01*
X21722Y138257D01*
X22334Y138666D01*
X22743Y139278D01*
X22886Y140000D01*
X22743Y140722D01*
X22334Y141334D01*
X21722Y141743D01*
X21000Y141886D01*
D02*
G37*
G36*
X16500D02*
X15778Y141743D01*
X15166Y141334D01*
X14757Y140722D01*
X14614Y140000D01*
X14757Y139278D01*
X15166Y138666D01*
X15778Y138257D01*
X16500Y138114D01*
X17222Y138257D01*
X17834Y138666D01*
X18243Y139278D01*
X18386Y140000D01*
X18243Y140722D01*
X17834Y141334D01*
X17222Y141743D01*
X16500Y141886D01*
D02*
G37*
G36*
X55118Y143619D02*
X54396Y143475D01*
X53784Y143066D01*
X53376Y142454D01*
X53232Y141732D01*
X53376Y141010D01*
X53784Y140399D01*
X54396Y139990D01*
X55118Y139846D01*
X55840Y139990D01*
X56452Y140399D01*
X56861Y141010D01*
X57004Y141732D01*
X56861Y142454D01*
X56452Y143066D01*
X55840Y143475D01*
X55118Y143619D01*
D02*
G37*
G36*
X39370D02*
X38648Y143475D01*
X38036Y143066D01*
X37627Y142454D01*
X37484Y141732D01*
X37627Y141010D01*
X38036Y140399D01*
X38648Y139990D01*
X39370Y139846D01*
X40092Y139990D01*
X40704Y140399D01*
X41113Y141010D01*
X41256Y141732D01*
X41113Y142454D01*
X40704Y143066D01*
X40092Y143475D01*
X39370Y143619D01*
D02*
G37*
G36*
X31496D02*
X30774Y143475D01*
X30162Y143066D01*
X29753Y142454D01*
X29610Y141732D01*
X29753Y141010D01*
X30162Y140399D01*
X30774Y139990D01*
X31496Y139846D01*
X32218Y139990D01*
X32830Y140399D01*
X33239Y141010D01*
X33382Y141732D01*
X33239Y142454D01*
X32830Y143066D01*
X32218Y143475D01*
X31496Y143619D01*
D02*
G37*
G36*
X33500Y152886D02*
X32778Y152743D01*
X32166Y152334D01*
X31757Y151722D01*
X31614Y151000D01*
X31757Y150278D01*
X32166Y149666D01*
X32778Y149257D01*
X33500Y149114D01*
X34222Y149257D01*
X34834Y149666D01*
X35243Y150278D01*
X35386Y151000D01*
X35243Y151722D01*
X34834Y152334D01*
X34222Y152743D01*
X33500Y152886D01*
D02*
G37*
G36*
X22500Y166335D02*
X21798Y166196D01*
X21202Y165798D01*
X20804Y165202D01*
X20665Y164500D01*
X20804Y163798D01*
X21202Y163202D01*
X21798Y162804D01*
X22500Y162665D01*
X23202Y162804D01*
X23798Y163202D01*
X24196Y163798D01*
X24335Y164500D01*
X24196Y165202D01*
X23798Y165798D01*
X23202Y166196D01*
X22500Y166335D01*
D02*
G37*
G36*
X15000D02*
X14298Y166196D01*
X13702Y165798D01*
X13304Y165202D01*
X13165Y164500D01*
X13304Y163798D01*
X13702Y163202D01*
X14298Y162804D01*
X15000Y162665D01*
X15702Y162804D01*
X16298Y163202D01*
X16696Y163798D01*
X16835Y164500D01*
X16696Y165202D01*
X16298Y165798D01*
X15702Y166196D01*
X15000Y166335D01*
D02*
G37*
G36*
X80500Y162386D02*
X79778Y162243D01*
X79166Y161834D01*
X78757Y161222D01*
X78614Y160500D01*
X78757Y159778D01*
X79166Y159166D01*
X79778Y158757D01*
X80500Y158614D01*
X81222Y158757D01*
X81834Y159166D01*
X82243Y159778D01*
X82386Y160500D01*
X82243Y161222D01*
X81834Y161834D01*
X81222Y162243D01*
X80500Y162386D01*
D02*
G37*
G36*
X76000Y169886D02*
X75278Y169743D01*
X74666Y169334D01*
X74257Y168722D01*
X74114Y168000D01*
X74257Y167278D01*
X74666Y166666D01*
X75278Y166257D01*
X76000Y166114D01*
X76722Y166257D01*
X77334Y166666D01*
X77743Y167278D01*
X77886Y168000D01*
X77743Y168722D01*
X77334Y169334D01*
X76722Y169743D01*
X76000Y169886D01*
D02*
G37*
G36*
X49500Y168386D02*
X48778Y168243D01*
X48166Y167834D01*
X47757Y167222D01*
X47614Y166500D01*
X47757Y165778D01*
X48166Y165166D01*
X48778Y164757D01*
X49500Y164614D01*
X50222Y164757D01*
X50834Y165166D01*
X51243Y165778D01*
X51386Y166500D01*
X51243Y167222D01*
X50834Y167834D01*
X50222Y168243D01*
X49500Y168386D01*
D02*
G37*
G36*
X30000Y166335D02*
X29298Y166196D01*
X28702Y165798D01*
X28304Y165202D01*
X28165Y164500D01*
X28304Y163798D01*
X28702Y163202D01*
X29298Y162804D01*
X30000Y162665D01*
X30702Y162804D01*
X31298Y163202D01*
X31696Y163798D01*
X31835Y164500D01*
X31696Y165202D01*
X31298Y165798D01*
X30702Y166196D01*
X30000Y166335D01*
D02*
G37*
G36*
X102500Y171537D02*
X101225Y171411D01*
X99998Y171039D01*
X98868Y170435D01*
X97878Y169622D01*
X97065Y168632D01*
X96461Y167502D01*
X96089Y166275D01*
X95963Y165000D01*
X96089Y163725D01*
X96461Y162498D01*
X97065Y161368D01*
X97878Y160378D01*
X98868Y159565D01*
X99998Y158961D01*
X101225Y158589D01*
X102500Y158463D01*
X103775Y158589D01*
X105002Y158961D01*
X106132Y159565D01*
X107122Y160378D01*
X107935Y161368D01*
X108539Y162498D01*
X108911Y163725D01*
X109037Y165000D01*
X108911Y166275D01*
X108539Y167502D01*
X107935Y168632D01*
X107122Y169622D01*
X106132Y170435D01*
X105002Y171039D01*
X103775Y171411D01*
X102500Y171537D01*
D02*
G37*
G36*
X30000Y155386D02*
X29278Y155243D01*
X28666Y154834D01*
X28257Y154222D01*
X28114Y153500D01*
X28257Y152778D01*
X28666Y152166D01*
X29278Y151757D01*
X30000Y151614D01*
X30722Y151757D01*
X31334Y152166D01*
X31743Y152778D01*
X31886Y153500D01*
X31743Y154222D01*
X31334Y154834D01*
X30722Y155243D01*
X30000Y155386D01*
D02*
G37*
G36*
X16000D02*
X15278Y155243D01*
X14666Y154834D01*
X14257Y154222D01*
X14114Y153500D01*
X14257Y152778D01*
X14666Y152166D01*
X15278Y151757D01*
X16000Y151614D01*
X16722Y151757D01*
X17334Y152166D01*
X17743Y152778D01*
X17886Y153500D01*
X17743Y154222D01*
X17334Y154834D01*
X16722Y155243D01*
X16000Y155386D01*
D02*
G37*
G36*
X40000Y152886D02*
X39278Y152743D01*
X38666Y152334D01*
X38257Y151722D01*
X38114Y151000D01*
X38257Y150278D01*
X38666Y149666D01*
X39278Y149257D01*
X40000Y149114D01*
X40722Y149257D01*
X41334Y149666D01*
X41743Y150278D01*
X41886Y151000D01*
X41743Y151722D01*
X41334Y152334D01*
X40722Y152743D01*
X40000Y152886D01*
D02*
G37*
G36*
X46000Y161886D02*
X45278Y161743D01*
X44666Y161334D01*
X44257Y160722D01*
X44114Y160000D01*
X44257Y159278D01*
X44666Y158666D01*
X45278Y158257D01*
X46000Y158114D01*
X46722Y158257D01*
X47334Y158666D01*
X47743Y159278D01*
X47886Y160000D01*
X47743Y160722D01*
X47334Y161334D01*
X46722Y161743D01*
X46000Y161886D01*
D02*
G37*
G36*
X110236Y159367D02*
X109514Y159223D01*
X108902Y158814D01*
X108494Y158202D01*
X108350Y157480D01*
X108494Y156758D01*
X108902Y156147D01*
X109514Y155738D01*
X110236Y155594D01*
X110958Y155738D01*
X111570Y156147D01*
X111979Y156758D01*
X112122Y157480D01*
X111979Y158202D01*
X111570Y158814D01*
X110958Y159223D01*
X110236Y159367D01*
D02*
G37*
G36*
X66732Y159386D02*
X66010Y159243D01*
X65399Y158834D01*
X64990Y158222D01*
X64846Y157500D01*
X64990Y156778D01*
X65399Y156166D01*
X66010Y155757D01*
X66732Y155614D01*
X67454Y155757D01*
X68066Y156166D01*
X68475Y156778D01*
X68542Y157117D01*
X69052D01*
X69124Y156758D01*
X69532Y156147D01*
X70144Y155738D01*
X70866Y155594D01*
X71588Y155738D01*
X72200Y156147D01*
X72609Y156758D01*
X72752Y157480D01*
X72609Y158202D01*
X72200Y158814D01*
X71588Y159223D01*
X70866Y159367D01*
X70144Y159223D01*
X69532Y158814D01*
X69124Y158202D01*
X69056Y157863D01*
X68546D01*
X68475Y158222D01*
X68066Y158834D01*
X67454Y159243D01*
X66732Y159386D01*
D02*
G37*
%LPD*%
D46*
X43000Y83000D02*
D03*
X54587Y84842D02*
D03*
X54500Y76000D02*
D03*
X50000Y78740D02*
D03*
X54500Y82000D02*
D03*
X43228Y102500D02*
D03*
X82441Y175728D02*
D03*
X71000Y173500D02*
D03*
X54500Y180500D02*
D03*
X21500Y153500D02*
D03*
X8744Y186500D02*
D03*
X91500Y205000D02*
D03*
X57500Y188000D02*
D03*
X67000Y189500D02*
D03*
X5500Y168000D02*
D03*
X39500Y172500D02*
D03*
M02*
