M48
;Layer_Color=2894892
;FILE_FORMAT=2:4
INCH,TZ
;TYPE=PLATED
T1F00S00C0.0120
T2F00S00C0.0276
T4F00S00C0.0354
T5F00S00C0.0402
T6F00S00C0.0650
T7F00S00C0.0689
T8F00S00C0.0906
;TYPE=NON_PLATED
T9F00S00C0.2165
%
T01
X3350Y4400
X4300Y3550
X3937Y6299
X2362
Y7874
Y9449
Y11024
X2550Y11900
X2100
X1650
X1200
X750
X300
X787Y11024
Y9449
Y7874
Y6299
X4300Y8300
X5000Y7874
X5450Y7600
X6000
X5450Y8200
X5459Y8484
X6600Y9000
X7087Y8661
X8200Y9200
X7874Y10236
X6300Y10100
X6299Y11024
X5512
X5427Y10250
X4323
X3937Y11024
Y12598
X2800Y12700
Y13150
Y13600
X2550Y14000
X2100
X1650
X1600Y14450
Y14900
Y15350
X2150
X2362Y14961
X3000Y15350
X3350Y15100
X4000
X3937Y14173
X3150
X2800Y12250
X5512Y12598
Y14173
X5000Y14800
X4600Y16000
X4950Y16650
X4400Y16900
Y17500
X3950Y17250
X3000Y17200
X2250
Y16450
X3000
Y17950
X2250
X1500
Y17200
Y16450
X550Y16800
X450Y17250
Y18000
Y18405
X874Y18650
X1850Y18900
X2362Y19685
X3937
X5512
X5750Y18800
X6100Y18450
X6350Y18700
X6700Y18950
X8000
X8500Y18000
X8244Y17573
X7100Y17350
X7600Y16800
X8050Y16050
X7087Y15748
X6673Y15750
X7087Y14173
X5450Y17250
Y18050
X5150Y18550
X5512Y21260
X7087
X3937
X200Y16400
X400Y15800
X300Y15350
Y14900
X700
X300Y14450
Y14000
X4550Y9300
X8500Y8100
Y6900
X8350Y6250
X8650
X8950Y6650
X11024Y6299
Y8661
Y10236
Y11811
Y14173
Y15748
Y17323
Y18898
X9050Y17900
X9150Y20500
X8661Y21260
X10236
X9449Y8661
T02
X1407Y1972
X3317
T04
X9252Y5118
X8268
X7480
X6496
T05
X1000Y20750
X2000
X3000
T06
X7018Y20250
X10482
T07
X1000Y3500
Y5000
X10250Y9500
Y13000
Y15000
Y16500
Y18000
T08
X10461Y4051
X5287
T09
X13780Y1969
X-1969Y19685
M30
