G04*
G04 #@! TF.GenerationSoftware,Altium Limited,CircuitStudio,1.5.2 (30)*
G04*
G04 Layer_Physical_Order=1*
G04 Layer_Color=6120410*
%FSLAX25Y25*%
%MOIN*%
G70*
G01*
G75*
%ADD10R,0.02559X0.04724*%
%ADD11R,0.02756X0.03543*%
%ADD12R,0.01772X0.02165*%
%ADD13R,0.02165X0.01772*%
%ADD14R,0.03543X0.03150*%
%ADD15R,0.10630X0.03150*%
%ADD16R,0.26378X0.26378*%
%ADD17R,0.06299X0.11811*%
%ADD18O,0.00984X0.03543*%
%ADD19O,0.03543X0.00984*%
%ADD20R,0.21260X0.21260*%
%ADD21R,0.03347X0.01378*%
%ADD22R,0.01378X0.03347*%
%ADD23R,0.02362X0.03937*%
%ADD24R,0.03937X0.02362*%
%ADD25R,0.06496X0.09449*%
%ADD26R,0.03543X0.00984*%
%ADD27R,0.02362X0.03937*%
%ADD28R,0.02500X0.01350*%
%ADD29R,0.01350X0.02500*%
%ADD30R,0.01575X0.07874*%
%ADD31C,0.00600*%
%ADD32C,0.00800*%
%ADD33C,0.01300*%
%ADD34C,0.01500*%
%ADD35C,0.02000*%
%ADD36C,0.02500*%
%ADD37C,0.05000*%
%ADD38C,0.11811*%
%ADD39C,0.08032*%
%ADD40C,0.15748*%
%ADD41C,0.06299*%
%ADD42C,0.02400*%
%ADD43O,0.05118X0.08661*%
%ADD44C,0.05118*%
%ADD45C,0.03937*%
%ADD46C,0.02500*%
G36*
X109746Y214126D02*
X111168Y213695D01*
X112478Y212995D01*
X113627Y212052D01*
X114569Y210904D01*
X115270Y209593D01*
X115701Y208172D01*
X115837Y206796D01*
X115816Y206693D01*
Y59055D01*
X115813D01*
X116001Y56186D01*
X116562Y53366D01*
X117487Y50643D01*
X118110Y49378D01*
Y2294D01*
X9843D01*
X9740Y2274D01*
X8364Y2409D01*
X6942Y2840D01*
X5632Y3541D01*
X4483Y4483D01*
X3541Y5632D01*
X2840Y6942D01*
X2409Y8364D01*
X2274Y9740D01*
X2294Y9843D01*
Y121026D01*
X4722D01*
Y121625D01*
X6278D01*
Y121026D01*
X9840D01*
Y121625D01*
X25383D01*
Y137374D01*
X9840D01*
Y137974D01*
X9840D01*
X9776Y138474D01*
X12120Y140817D01*
X13258D01*
Y144183D01*
X13046D01*
Y144743D01*
X13183D01*
Y147714D01*
X9817D01*
Y144743D01*
X10497D01*
Y144183D01*
X10286D01*
Y142974D01*
X10214Y142926D01*
X9714Y143194D01*
Y144183D01*
X8529D01*
Y142500D01*
X8229D01*
Y142200D01*
X6742D01*
Y140817D01*
X7862D01*
X8053Y140355D01*
X7158Y139460D01*
X6882Y139047D01*
X6785Y138559D01*
Y137974D01*
X6278D01*
Y137374D01*
X4722D01*
Y137974D01*
X2294D01*
Y157480D01*
X2297D01*
X2109Y160350D01*
X1548Y163170D01*
X624Y165893D01*
X42Y167072D01*
Y176309D01*
X542Y176516D01*
X2826Y174232D01*
X2861Y174208D01*
X2881Y174185D01*
X2991Y173575D01*
X2988Y173568D01*
X2757Y173222D01*
X2614Y172500D01*
X2757Y171778D01*
X3166Y171166D01*
X3778Y170757D01*
X4471Y170620D01*
X4609Y170456D01*
X4738Y170151D01*
X4574Y169906D01*
X4505Y169560D01*
X4166Y169334D01*
X3757Y168722D01*
X3614Y168000D01*
X3757Y167278D01*
X4166Y166666D01*
X4480Y166456D01*
Y165500D01*
Y161398D01*
X4558Y161007D01*
X4779Y160677D01*
X6496Y158960D01*
X6826Y158739D01*
X7217Y158661D01*
X10560D01*
Y157335D01*
X10644Y156909D01*
X10886Y156547D01*
X11247Y156306D01*
X11673Y156221D01*
X12001Y155794D01*
X12025Y155556D01*
X11652Y155183D01*
X10286D01*
Y151817D01*
X10497D01*
Y151258D01*
X9817D01*
Y148286D01*
X13183D01*
Y151258D01*
X13046D01*
Y151817D01*
X13258D01*
Y153183D01*
X14543Y154469D01*
X14819Y154882D01*
X14916Y155370D01*
Y155489D01*
X15378Y155680D01*
X15936Y155122D01*
X16267Y154901D01*
X16657Y154823D01*
X19558D01*
X19859Y154374D01*
X19757Y154222D01*
X19614Y153500D01*
X19757Y152778D01*
X20166Y152166D01*
X20778Y151757D01*
X21500Y151614D01*
X22222Y151757D01*
X22266Y151787D01*
X22742Y151817D01*
Y151817D01*
X22742Y151817D01*
X25714D01*
Y155183D01*
X22742D01*
X22742Y155183D01*
Y155183D01*
X22259Y155218D01*
X22222Y155243D01*
X22194Y155248D01*
X21695Y155747D01*
X21859Y156290D01*
X21942Y156306D01*
X22303Y156547D01*
X22697D01*
X23058Y156306D01*
X23484Y156221D01*
X23910Y156306D01*
X24128Y156451D01*
X24468Y156512D01*
X24809Y156451D01*
X25027Y156306D01*
X25453Y156221D01*
X25879Y156306D01*
X25902Y156321D01*
X26402Y156054D01*
Y155183D01*
X26286D01*
Y151817D01*
X29188D01*
X29278Y151757D01*
X30000Y151614D01*
X30722Y151757D01*
X31334Y152166D01*
X31743Y152778D01*
X31807Y153103D01*
X32307Y153053D01*
Y152428D01*
X32166Y152334D01*
X31757Y151722D01*
X31614Y151000D01*
X31757Y150278D01*
X32166Y149666D01*
X32778Y149257D01*
X33500Y149114D01*
X34222Y149257D01*
X34834Y149666D01*
X35243Y150278D01*
X35386Y151000D01*
X35243Y151722D01*
X34834Y152334D01*
X34346Y152659D01*
Y156462D01*
X34366Y156480D01*
X34866Y156261D01*
Y155114D01*
X34944Y154724D01*
X35165Y154393D01*
X38188Y151371D01*
X38114Y151000D01*
X38257Y150278D01*
X38666Y149666D01*
X39278Y149257D01*
X40000Y149114D01*
X40722Y149257D01*
X41334Y149666D01*
X41743Y150278D01*
X41886Y151000D01*
X41743Y151722D01*
X41334Y152334D01*
X40722Y152743D01*
X40000Y152886D01*
X39629Y152813D01*
X36905Y155536D01*
Y160060D01*
X37165D01*
X37591Y160144D01*
X37953Y160386D01*
X38194Y160747D01*
X38279Y161173D01*
X38194Y161599D01*
X37953Y161961D01*
Y162354D01*
X38194Y162716D01*
X38279Y163142D01*
X38194Y163568D01*
X37953Y163929D01*
Y164323D01*
X38194Y164684D01*
X38279Y165110D01*
X38194Y165536D01*
X37953Y165898D01*
Y166291D01*
X38194Y166653D01*
X38279Y167079D01*
X38194Y167505D01*
X38179Y167528D01*
X38446Y168028D01*
X42425D01*
X42666Y167666D01*
X43278Y167257D01*
X44000Y167114D01*
X44722Y167257D01*
X45334Y167666D01*
X45743Y168278D01*
X45886Y169000D01*
X45743Y169722D01*
X45334Y170334D01*
X44722Y170743D01*
X44000Y170886D01*
X43278Y170743D01*
X42666Y170334D01*
X42488Y170067D01*
X38919D01*
X38611Y170518D01*
X38778Y170757D01*
X39500Y170614D01*
X40222Y170757D01*
X40834Y171166D01*
X41243Y171778D01*
X41386Y172500D01*
X41243Y173222D01*
X41102Y173433D01*
X41369Y173933D01*
X42488D01*
X42666Y173666D01*
X43278Y173257D01*
X44000Y173114D01*
X44722Y173257D01*
X45334Y173666D01*
X45743Y174278D01*
X45886Y175000D01*
X45743Y175722D01*
X45334Y176334D01*
X44722Y176743D01*
X44000Y176886D01*
X43278Y176743D01*
X42666Y176334D01*
X42425Y175972D01*
X38446D01*
X38179Y176472D01*
X38194Y176495D01*
X38279Y176921D01*
X38194Y177347D01*
X37953Y177709D01*
Y178102D01*
X38194Y178464D01*
X38279Y178890D01*
X38194Y179316D01*
X38179Y179339D01*
X38446Y179839D01*
X44219D01*
X48480Y175578D01*
Y168044D01*
X48166Y167834D01*
X47757Y167222D01*
X47614Y166500D01*
X47757Y165778D01*
X48166Y165166D01*
X48778Y164757D01*
X49500Y164614D01*
X50222Y164757D01*
X50834Y165166D01*
X51243Y165778D01*
X51386Y166500D01*
X51243Y167222D01*
X50834Y167834D01*
X50520Y168044D01*
Y176000D01*
X50442Y176390D01*
X50221Y176721D01*
X45363Y181579D01*
X45032Y181800D01*
X44642Y181878D01*
X38446D01*
X38179Y182378D01*
X38194Y182401D01*
X38279Y182827D01*
X38194Y183253D01*
X37953Y183614D01*
X37591Y183855D01*
X37165Y183940D01*
X34917D01*
X34563Y184063D01*
X34440Y184417D01*
Y186665D01*
X34356Y187092D01*
X34114Y187453D01*
X33753Y187694D01*
X33327Y187779D01*
X32901Y187694D01*
X32539Y187453D01*
X32146D01*
X31784Y187694D01*
X31358Y187779D01*
X30932Y187694D01*
X30714Y187549D01*
X30374Y187488D01*
X30034Y187549D01*
X29816Y187694D01*
X29390Y187779D01*
X28964Y187694D01*
X28941Y187679D01*
X28441Y187946D01*
Y188499D01*
X48922Y208980D01*
X67440D01*
X67565Y208480D01*
X66545Y207935D01*
X65555Y207122D01*
X64742Y206132D01*
X64138Y205002D01*
X63766Y203775D01*
X63670Y202800D01*
X70177D01*
X76685D01*
X76588Y203775D01*
X76217Y205002D01*
X75612Y206132D01*
X74800Y207122D01*
X73809Y207935D01*
X72789Y208480D01*
X72914Y208980D01*
X80306D01*
X84242Y205044D01*
Y203317D01*
X84709D01*
Y201683D01*
X84242D01*
Y198317D01*
X87214D01*
Y201480D01*
X87786D01*
Y200300D01*
X89272D01*
X90758D01*
Y201480D01*
X98386D01*
X98412Y201225D01*
X98783Y199998D01*
X99388Y198868D01*
X100200Y197878D01*
X101191Y197065D01*
X102321Y196461D01*
X103548Y196089D01*
X104823Y195963D01*
X106098Y196089D01*
X107324Y196461D01*
X108455Y197065D01*
X109445Y197878D01*
X110258Y198868D01*
X110862Y199998D01*
X111234Y201225D01*
X111360Y202500D01*
X111234Y203775D01*
X110862Y205002D01*
X110258Y206132D01*
X109445Y207122D01*
X108455Y207935D01*
X107324Y208539D01*
X106098Y208911D01*
X104823Y209037D01*
X103548Y208911D01*
X102321Y208539D01*
X101191Y207935D01*
X100200Y207122D01*
X99388Y206132D01*
X98783Y205002D01*
X98412Y203775D01*
X98386Y203520D01*
X93337D01*
X93070Y204020D01*
X93243Y204278D01*
X93386Y205000D01*
X93243Y205722D01*
X92834Y206334D01*
X92222Y206743D01*
X91500Y206886D01*
X90778Y206743D01*
X90688Y206683D01*
X87786D01*
Y203520D01*
X87214D01*
Y206683D01*
X85488D01*
X81449Y210721D01*
X81119Y210942D01*
X80728Y211020D01*
X48500D01*
X48110Y210942D01*
X47779Y210721D01*
X26700Y189642D01*
X26479Y189311D01*
X26402Y188921D01*
Y187946D01*
X25902Y187679D01*
X25879Y187694D01*
X25453Y187779D01*
X25027Y187694D01*
X24809Y187549D01*
X24468Y187488D01*
X24128Y187549D01*
X23910Y187694D01*
X23484Y187779D01*
X23058Y187694D01*
X22697Y187453D01*
X22303D01*
X21942Y187694D01*
X21516Y187779D01*
X21090Y187694D01*
X20872Y187549D01*
X20531Y187488D01*
X20291Y187531D01*
X20144Y188131D01*
X20243Y188278D01*
X20386Y189000D01*
X20243Y189722D01*
X19834Y190334D01*
X19222Y190743D01*
X18500Y190886D01*
X17778Y190743D01*
X17166Y190334D01*
X16956Y190020D01*
X16234D01*
Y191700D01*
X14256D01*
X12278D01*
Y189628D01*
X13817D01*
X14008Y189166D01*
X12921Y188079D01*
X12759Y187837D01*
X12481Y187707D01*
X12170Y187647D01*
X12099Y187694D01*
X11673Y187779D01*
X11247Y187694D01*
X10887Y187454D01*
X10886Y187453D01*
X10308Y187489D01*
X10078Y187834D01*
X9764Y188044D01*
Y189628D01*
X10722D01*
Y194372D01*
X9248D01*
Y195317D01*
X9714D01*
Y198683D01*
X6742D01*
Y195317D01*
X7209D01*
Y194372D01*
X6766D01*
Y189628D01*
X7724D01*
Y188044D01*
X7410Y187834D01*
X7001Y187222D01*
X6858Y186500D01*
X7001Y185778D01*
X7410Y185166D01*
X7724Y184956D01*
Y183918D01*
X7408Y183855D01*
X7047Y183614D01*
X6806Y183599D01*
X6386Y184051D01*
X6243Y184773D01*
X5834Y185385D01*
X5222Y185794D01*
X4500Y185938D01*
X3778Y185794D01*
X3711Y185749D01*
X3270Y185984D01*
Y196328D01*
X6710Y199768D01*
X13287D01*
X13678Y199845D01*
X14008Y200066D01*
X17524Y203582D01*
X17672Y203468D01*
X18795Y203003D01*
X20000Y202844D01*
X21205Y203003D01*
X22328Y203468D01*
X23292Y204208D01*
X24032Y205172D01*
X24497Y206295D01*
X24656Y207500D01*
X24497Y208705D01*
X24032Y209828D01*
X23292Y210792D01*
X22328Y211532D01*
X21205Y211997D01*
X20000Y212156D01*
X18795Y211997D01*
X17672Y211532D01*
X16708Y210792D01*
X15968Y209828D01*
X15503Y208705D01*
X15344Y207500D01*
X15503Y206295D01*
X15968Y205172D01*
X16082Y205024D01*
X12865Y201807D01*
X6456D01*
X6235Y202252D01*
X6231Y202289D01*
X7524Y203582D01*
X7672Y203468D01*
X8795Y203003D01*
X10000Y202844D01*
X11205Y203003D01*
X12328Y203468D01*
X13292Y204208D01*
X14032Y205172D01*
X14497Y206295D01*
X14656Y207500D01*
X14497Y208705D01*
X14032Y209828D01*
X13292Y210792D01*
X12328Y211532D01*
X11205Y211997D01*
X10000Y212156D01*
X8795Y211997D01*
X7672Y211532D01*
X6708Y210792D01*
X5968Y209828D01*
X5503Y208705D01*
X5344Y207500D01*
X5503Y206295D01*
X5968Y205172D01*
X6082Y205024D01*
X542Y199484D01*
X42Y199691D01*
Y214241D01*
X108268D01*
X108370Y214262D01*
X109746Y214126D01*
D02*
G37*
%LPC*%
G36*
X94956Y64872D02*
X93278D01*
Y62800D01*
X94956D01*
Y64872D01*
D02*
G37*
G36*
X76722Y62200D02*
X75044D01*
Y60128D01*
X76722D01*
Y62200D01*
D02*
G37*
G36*
X74444D02*
X72766D01*
Y60128D01*
X74444D01*
Y62200D01*
D02*
G37*
G36*
X97234Y64872D02*
X95556D01*
Y62800D01*
X97234D01*
Y64872D01*
D02*
G37*
G36*
X59222Y64872D02*
X57544D01*
Y62800D01*
X59222D01*
Y64872D01*
D02*
G37*
G36*
X76722D02*
X75044D01*
Y62800D01*
X76722D01*
Y64872D01*
D02*
G37*
G36*
X56944D02*
X55266D01*
Y62800D01*
X56944D01*
Y64872D01*
D02*
G37*
G36*
X74444D02*
X72766D01*
Y62800D01*
X74444D01*
Y64872D01*
D02*
G37*
G36*
X97234Y62200D02*
X95556D01*
Y60128D01*
X97234D01*
Y62200D01*
D02*
G37*
G36*
X64961Y54963D02*
X63982Y54834D01*
X63070Y54456D01*
X62286Y53855D01*
X61685Y53072D01*
X61308Y52160D01*
X61179Y51181D01*
X61308Y50202D01*
X61685Y49290D01*
X62286Y48507D01*
X63070Y47906D01*
X63982Y47528D01*
X64961Y47399D01*
X65939Y47528D01*
X66852Y47906D01*
X67635Y48507D01*
X68236Y49290D01*
X68614Y50202D01*
X68743Y51181D01*
X68614Y52160D01*
X68236Y53072D01*
X67635Y53855D01*
X66852Y54456D01*
X65939Y54834D01*
X64961Y54963D01*
D02*
G37*
G36*
X96262Y50881D02*
X92820D01*
Y47439D01*
X93498Y47528D01*
X94411Y47906D01*
X95194Y48507D01*
X95795Y49290D01*
X96173Y50202D01*
X96262Y50881D01*
D02*
G37*
G36*
X53174Y48997D02*
Y40812D01*
X61360D01*
X61225Y42173D01*
X60741Y43770D01*
X59954Y45243D01*
X58895Y46533D01*
X57605Y47592D01*
X56133Y48379D01*
X54535Y48863D01*
X53174Y48997D01*
D02*
G37*
G36*
X37372Y50147D02*
X32628D01*
Y45798D01*
X32310Y45430D01*
X32166Y45334D01*
X31757Y44722D01*
X31614Y44000D01*
X31717Y43482D01*
X31440Y43045D01*
X31354Y42982D01*
X30300D01*
Y40413D01*
Y37845D01*
X31459D01*
X31781Y37845D01*
X31870D01*
X31959D01*
X32072Y37345D01*
X26882Y32155D01*
X24479D01*
Y29752D01*
X24331Y29605D01*
X21683D01*
Y29714D01*
X18317D01*
Y28492D01*
X17531Y27706D01*
X17232Y27259D01*
X17128Y26732D01*
Y24222D01*
X17117D01*
Y21763D01*
X16616Y21593D01*
X16328Y21970D01*
X15668Y22476D01*
X14899Y22794D01*
X14375Y22863D01*
Y19716D01*
Y16570D01*
X14899Y16639D01*
X15668Y16957D01*
X16328Y17463D01*
X16616Y17840D01*
X17117Y17670D01*
Y15148D01*
X28440D01*
Y19685D01*
Y24222D01*
X19880D01*
Y26162D01*
X20461Y26743D01*
X21683D01*
Y26852D01*
X24902D01*
X25428Y26957D01*
X25520Y27018D01*
X28041D01*
Y29421D01*
X33743Y35124D01*
X35500D01*
X36027Y35228D01*
X36473Y35527D01*
X37473Y36527D01*
X37473Y36527D01*
X37652Y36794D01*
X37652Y36794D01*
X37772Y36973D01*
X37781Y36979D01*
X37781D01*
X37817Y37002D01*
X37781Y36979D01*
X37818Y37001D01*
X38317Y36724D01*
Y36719D01*
Y36714D01*
D01*
Y34242D01*
X41615D01*
X41666Y34166D01*
X42278Y33757D01*
X43000Y33614D01*
X43722Y33757D01*
X44334Y34166D01*
X44743Y34778D01*
X44886Y35500D01*
X44743Y36222D01*
X44334Y36834D01*
X43722Y37243D01*
X43000Y37386D01*
X42278Y37243D01*
X42141Y37151D01*
X41683Y37214D01*
Y37214D01*
X41683Y37214D01*
X38792D01*
X38782Y37214D01*
X38782Y37214D01*
X38508Y37214D01*
X38337Y37214D01*
X38329D01*
X38329D01*
X38329D01*
X38329D01*
X38324Y37214D01*
X38290Y37215D01*
X38211Y37395D01*
X38606Y37786D01*
X41683D01*
Y40758D01*
X38317D01*
X38317Y40758D01*
Y40758D01*
X38317Y40758D01*
X37876Y40900D01*
Y46472D01*
X37772Y46999D01*
X37473Y47446D01*
X37372Y47547D01*
Y50147D01*
D02*
G37*
G36*
X92220Y50881D02*
X88777D01*
X88867Y50202D01*
X89244Y49290D01*
X89845Y48507D01*
X90629Y47906D01*
X91541Y47528D01*
X92220Y47439D01*
Y50881D01*
D02*
G37*
G36*
X82677Y54963D02*
X81698Y54834D01*
X80786Y54456D01*
X80003Y53855D01*
X79402Y53072D01*
X79024Y52160D01*
X78992Y51919D01*
X78488D01*
X78456Y52160D01*
X78078Y53072D01*
X77477Y53855D01*
X76694Y54456D01*
X75782Y54834D01*
X74803Y54963D01*
X73824Y54834D01*
X72912Y54456D01*
X72129Y53855D01*
X71528Y53072D01*
X71150Y52160D01*
X71021Y51181D01*
X71150Y50202D01*
X71528Y49290D01*
X72129Y48507D01*
X72912Y47906D01*
X73824Y47528D01*
X74803Y47399D01*
X75782Y47528D01*
X76694Y47906D01*
X77477Y48507D01*
X78078Y49290D01*
X78456Y50202D01*
X78488Y50444D01*
X78992D01*
X79024Y50202D01*
X79402Y49290D01*
X80003Y48507D01*
X80786Y47906D01*
X81698Y47528D01*
X82677Y47399D01*
X83656Y47528D01*
X84568Y47906D01*
X85351Y48507D01*
X85952Y49290D01*
X86330Y50202D01*
X86459Y51181D01*
X86330Y52160D01*
X85952Y53072D01*
X85351Y53855D01*
X84568Y54456D01*
X83656Y54834D01*
X82677Y54963D01*
D02*
G37*
G36*
X94956Y62200D02*
X93278D01*
Y60128D01*
X94956D01*
Y62200D01*
D02*
G37*
G36*
X92220Y54924D02*
X91541Y54834D01*
X90629Y54456D01*
X89845Y53855D01*
X89244Y53072D01*
X88867Y52160D01*
X88777Y51481D01*
X92220D01*
Y54924D01*
D02*
G37*
G36*
X92820Y54924D02*
Y51481D01*
X96262D01*
X96173Y52160D01*
X95795Y53072D01*
X95194Y53855D01*
X94411Y54456D01*
X93498Y54834D01*
X92820Y54924D01*
D02*
G37*
G36*
X72200Y67929D02*
X70817D01*
Y66742D01*
X72200D01*
Y67929D01*
D02*
G37*
G36*
X84222Y89872D02*
X82544D01*
Y87800D01*
X84222D01*
Y89872D01*
D02*
G37*
G36*
X104872Y110147D02*
X100128D01*
Y105798D01*
X100869D01*
Y101303D01*
X99998Y101039D01*
X98868Y100435D01*
X97878Y99622D01*
X97065Y98632D01*
X96461Y97502D01*
X96089Y96275D01*
X95963Y95000D01*
X96089Y93725D01*
X96461Y92498D01*
X97065Y91368D01*
X97878Y90378D01*
X98868Y89565D01*
X99998Y88961D01*
X101225Y88589D01*
X102500Y88463D01*
X103775Y88589D01*
X105002Y88961D01*
X106132Y89565D01*
X107122Y90378D01*
X107935Y91368D01*
X108539Y92498D01*
X108911Y93725D01*
X109037Y95000D01*
X108911Y96275D01*
X108539Y97502D01*
X107935Y98632D01*
X107122Y99622D01*
X106132Y100435D01*
X105002Y101039D01*
X104131Y101303D01*
Y105798D01*
X104872D01*
Y110147D01*
D02*
G37*
G36*
X64734Y89872D02*
X63056D01*
Y87800D01*
X64734D01*
Y89872D01*
D02*
G37*
G36*
X81944Y89872D02*
X80266D01*
Y87800D01*
X81944D01*
Y89872D01*
D02*
G37*
G36*
X47943Y97200D02*
X43396D01*
Y96211D01*
Y93652D01*
X43396D01*
X43676Y93311D01*
X43614Y93000D01*
X43757Y92278D01*
X44166Y91666D01*
X44778Y91257D01*
X45500Y91114D01*
X46222Y91257D01*
X46834Y91666D01*
X47243Y92278D01*
X47386Y93000D01*
X47333Y93265D01*
X47651Y93652D01*
X47943D01*
Y96211D01*
Y97200D01*
D02*
G37*
G36*
X85555Y98409D02*
X82806D01*
Y92904D01*
X85555D01*
Y98409D01*
D02*
G37*
G36*
X90305D02*
X87555D01*
Y92904D01*
X90305D01*
Y98409D01*
D02*
G37*
G36*
X59700Y92929D02*
X58317D01*
Y91742D01*
X59700D01*
Y92929D01*
D02*
G37*
G36*
X61683D02*
X60300D01*
Y91742D01*
X61683D01*
Y92929D01*
D02*
G37*
G36*
X74183Y69714D02*
X72800D01*
Y68529D01*
X74183D01*
Y69714D01*
D02*
G37*
G36*
X57155Y73041D02*
X52018D01*
Y72891D01*
X43287D01*
X42663Y72767D01*
X42484Y72647D01*
X36585D01*
Y68298D01*
X48415D01*
Y69629D01*
X52018D01*
Y69479D01*
X57155D01*
Y73041D01*
D02*
G37*
G36*
X74183Y67929D02*
X72800D01*
Y66742D01*
X74183D01*
Y67929D01*
D02*
G37*
G36*
X72200Y69714D02*
X70817D01*
Y68529D01*
X72200D01*
Y69714D01*
D02*
G37*
G36*
X59222Y89872D02*
X55266D01*
Y87829D01*
X54061Y86624D01*
X53865Y86585D01*
X53253Y86176D01*
X52844Y85564D01*
X52700Y84842D01*
X52844Y84121D01*
X52955Y83954D01*
Y83018D01*
X52757Y82722D01*
X52614Y82000D01*
X52757Y81278D01*
X52929Y81021D01*
X52813Y80521D01*
X52018D01*
Y80371D01*
X50888D01*
X50722Y80483D01*
X50000Y80626D01*
X49278Y80483D01*
X49112Y80371D01*
X48415D01*
Y81702D01*
X44959D01*
X44692Y82202D01*
X44743Y82278D01*
X44886Y83000D01*
X44743Y83722D01*
X44334Y84334D01*
X43722Y84743D01*
X43000Y84886D01*
X42278Y84743D01*
X41666Y84334D01*
X41257Y83722D01*
X41114Y83000D01*
X41257Y82278D01*
X41308Y82202D01*
X41041Y81702D01*
X36585D01*
Y77353D01*
X42484D01*
X42663Y77233D01*
X43287Y77109D01*
X49112D01*
X49278Y76998D01*
X50000Y76854D01*
X50722Y76998D01*
X50888Y77109D01*
X52018D01*
Y76959D01*
X52360D01*
X52705Y76459D01*
X52614Y76000D01*
X52757Y75278D01*
X53166Y74666D01*
X53778Y74257D01*
X54500Y74114D01*
X55222Y74257D01*
X55834Y74666D01*
X56243Y75278D01*
X56386Y76000D01*
X56295Y76459D01*
X56640Y76959D01*
X57155D01*
Y80521D01*
X56218D01*
Y81241D01*
X56243Y81278D01*
X56386Y82000D01*
X56243Y82722D01*
X56218Y82759D01*
Y83954D01*
X56329Y84121D01*
X56368Y84317D01*
X57179Y85128D01*
X59222D01*
Y89872D01*
D02*
G37*
G36*
X89734Y89872D02*
X85778D01*
Y85631D01*
X84222D01*
Y87200D01*
X82244D01*
X80266D01*
Y85631D01*
X76000D01*
X75376Y85507D01*
X74847Y85154D01*
X69500Y79807D01*
X69413Y79894D01*
X68884Y80247D01*
X68260Y80371D01*
X67982D01*
Y80521D01*
X62845D01*
Y77281D01*
X62845Y76959D01*
X62845Y76959D01*
Y76781D01*
X62845D01*
X62845Y76781D01*
Y75300D01*
X65413D01*
Y74700D01*
X62845D01*
Y73219D01*
X62845Y73219D01*
Y73219D01*
Y73041D01*
X62845D01*
X62845Y72719D01*
Y69479D01*
X63527D01*
Y65939D01*
X62460Y64872D01*
X60778D01*
Y62936D01*
X59684Y61841D01*
X59222Y62033D01*
Y62200D01*
X57244D01*
X55266D01*
Y60128D01*
X57318D01*
X57509Y59666D01*
X56756Y58914D01*
X37372D01*
Y59202D01*
X32628D01*
Y58659D01*
X27372D01*
Y59202D01*
X22628D01*
Y54853D01*
X27372D01*
Y55396D01*
X32628D01*
Y54853D01*
X37372D01*
Y55141D01*
X57538D01*
X58259Y55285D01*
X58871Y55694D01*
X63306Y60128D01*
X64734D01*
Y61810D01*
X66747Y63824D01*
X67020Y64233D01*
X67156Y64436D01*
X67300Y65158D01*
Y69479D01*
X67982D01*
Y69673D01*
X68384Y69753D01*
X68913Y70106D01*
X70317Y71510D01*
X70817Y71303D01*
Y70286D01*
X74183D01*
Y73257D01*
X73520D01*
Y74243D01*
X74183D01*
Y74709D01*
X75349D01*
X75779Y74279D01*
X76110Y74058D01*
X76500Y73980D01*
X76723D01*
Y73908D01*
Y73331D01*
X79095D01*
Y72731D01*
X76723D01*
Y71939D01*
Y69971D01*
X79236D01*
Y64872D01*
X78278D01*
Y60128D01*
X82234D01*
Y60614D01*
X87766D01*
Y60128D01*
X91722D01*
Y64872D01*
X91630D01*
Y67463D01*
X92239Y68072D01*
X92648Y68684D01*
X92792Y69406D01*
X92756Y69584D01*
X93073Y69971D01*
X93277D01*
Y70762D01*
X93739Y70954D01*
X95374Y69319D01*
X95903Y68965D01*
X96528Y68841D01*
X96585D01*
Y68298D01*
X108415D01*
Y72647D01*
X96660D01*
X95122Y74185D01*
X94593Y74539D01*
X93968Y74663D01*
X93690Y75000D01*
X93968Y75337D01*
X94593Y75461D01*
X95122Y75815D01*
X96660Y77353D01*
X108415D01*
Y81702D01*
X96585D01*
Y81159D01*
X96528D01*
X95903Y81035D01*
X95374Y80681D01*
X93739Y79046D01*
X93277Y79238D01*
Y80029D01*
X92537D01*
Y80594D01*
X92413Y81219D01*
X92059Y81748D01*
X89387Y84420D01*
Y85128D01*
X89734D01*
Y89872D01*
D02*
G37*
G36*
X62456Y89872D02*
X60778D01*
Y87800D01*
X62456D01*
Y89872D01*
D02*
G37*
G36*
Y87200D02*
X60778D01*
Y85128D01*
X62456D01*
Y87200D01*
D02*
G37*
G36*
X64734D02*
X63056D01*
Y85128D01*
X64734D01*
Y87200D01*
D02*
G37*
G36*
X52574Y48997D02*
X51213Y48863D01*
X49615Y48379D01*
X48143Y47592D01*
X46853Y46533D01*
X45794Y45243D01*
X45007Y43770D01*
X44523Y42173D01*
X44388Y40812D01*
X52574D01*
Y48997D01*
D02*
G37*
G36*
X13775Y22863D02*
X13250Y22794D01*
X12482Y22476D01*
X11822Y21970D01*
X11315Y21310D01*
X10997Y20541D01*
X10928Y20016D01*
X13775D01*
Y22863D01*
D02*
G37*
G36*
X33469Y22863D02*
Y20016D01*
X36316D01*
X36247Y20541D01*
X35929Y21310D01*
X35422Y21970D01*
X34762Y22476D01*
X33994Y22794D01*
X33469Y22863D01*
D02*
G37*
G36*
X13775Y19416D02*
X10928D01*
X10997Y18892D01*
X11315Y18123D01*
X11822Y17463D01*
X12482Y16957D01*
X13250Y16639D01*
X13775Y16570D01*
Y19416D01*
D02*
G37*
G36*
X30128Y24222D02*
X29040D01*
Y19685D01*
Y15148D01*
X30128D01*
Y17670D01*
X30628Y17840D01*
X30916Y17463D01*
X31576Y16957D01*
X32345Y16639D01*
X32869Y16570D01*
Y19716D01*
Y22863D01*
X32345Y22794D01*
X31576Y22476D01*
X30916Y21970D01*
X30628Y21593D01*
X30128Y21763D01*
Y24222D01*
D02*
G37*
G36*
X39700Y27928D02*
X38317D01*
Y26743D01*
X39700D01*
Y27928D01*
D02*
G37*
G36*
X41683Y29714D02*
X40300D01*
Y28528D01*
X41683D01*
Y29714D01*
D02*
G37*
G36*
X16439Y34000D02*
X11000D01*
Y28561D01*
X11275Y28589D01*
X12502Y28961D01*
X13632Y29565D01*
X14622Y30378D01*
X15435Y31368D01*
X16039Y32498D01*
X16411Y33725D01*
X16439Y34000D01*
D02*
G37*
G36*
X41683Y27928D02*
X40300D01*
Y26743D01*
X41683D01*
Y27928D01*
D02*
G37*
G36*
X39700Y29714D02*
X38317D01*
Y28528D01*
X39700D01*
Y29714D01*
D02*
G37*
G36*
X9149Y8905D02*
X6262D01*
Y7433D01*
X6371Y6608D01*
X6689Y5840D01*
X7196Y5180D01*
X7856Y4674D01*
X8624Y4355D01*
X9149Y4286D01*
Y8905D01*
D02*
G37*
G36*
X40982Y8905D02*
X38095D01*
Y4286D01*
X38620Y4355D01*
X39388Y4674D01*
X40048Y5180D01*
X40555Y5840D01*
X40873Y6608D01*
X40982Y7433D01*
Y8905D01*
D02*
G37*
G36*
X37495D02*
X34609D01*
Y7433D01*
X34718Y6608D01*
X35036Y5840D01*
X35542Y5180D01*
X36202Y4674D01*
X36971Y4355D01*
X37495Y4286D01*
Y8905D01*
D02*
G37*
G36*
X12635Y8905D02*
X9749D01*
Y4286D01*
X10273Y4355D01*
X11042Y4674D01*
X11702Y5180D01*
X12208Y5840D01*
X12527Y6608D01*
X12635Y7433D01*
Y8905D01*
D02*
G37*
G36*
X37495Y14123D02*
X36971Y14054D01*
X36202Y13736D01*
X35542Y13229D01*
X35036Y12570D01*
X34718Y11801D01*
X34609Y10976D01*
Y9505D01*
X37495D01*
Y14123D01*
D02*
G37*
G36*
X9749Y14123D02*
Y9505D01*
X12635D01*
Y10976D01*
X12527Y11801D01*
X12208Y12570D01*
X11702Y13229D01*
X11042Y13736D01*
X10273Y14054D01*
X9749Y14123D01*
D02*
G37*
G36*
X36316Y19416D02*
X33469D01*
Y16570D01*
X33994Y16639D01*
X34762Y16957D01*
X35422Y17463D01*
X35929Y18123D01*
X36247Y18892D01*
X36316Y19416D01*
D02*
G37*
G36*
X38095Y14123D02*
Y9505D01*
X40982D01*
Y10976D01*
X40873Y11801D01*
X40555Y12570D01*
X40048Y13229D01*
X39388Y13736D01*
X38620Y14054D01*
X38095Y14123D01*
D02*
G37*
G36*
X9149Y14123D02*
X8624Y14054D01*
X7856Y13736D01*
X7196Y13229D01*
X6689Y12570D01*
X6371Y11801D01*
X6262Y10976D01*
Y9505D01*
X9149D01*
Y14123D01*
D02*
G37*
G36*
X9000Y34000D02*
X3562D01*
X3589Y33725D01*
X3961Y32498D01*
X4565Y31368D01*
X5378Y30378D01*
X6368Y29565D01*
X7498Y28961D01*
X8725Y28589D01*
X9000Y28561D01*
Y34000D01*
D02*
G37*
G36*
Y41438D02*
X8725Y41411D01*
X7498Y41039D01*
X6368Y40435D01*
X5378Y39622D01*
X4565Y38632D01*
X3961Y37502D01*
X3589Y36275D01*
X3562Y36000D01*
X9000D01*
Y41438D01*
D02*
G37*
G36*
X11000Y41438D02*
Y36000D01*
X16439D01*
X16411Y36275D01*
X16039Y37502D01*
X15435Y38632D01*
X14622Y39622D01*
X13632Y40435D01*
X12502Y41039D01*
X11275Y41411D01*
X11000Y41438D01*
D02*
G37*
G36*
X19700Y35428D02*
X18317D01*
Y34242D01*
X19700D01*
Y35428D01*
D02*
G37*
G36*
X21683D02*
X20300D01*
Y34242D01*
X21683D01*
Y35428D01*
D02*
G37*
G36*
X19700Y37214D02*
X18317D01*
Y36028D01*
X19700D01*
Y37214D01*
D02*
G37*
G36*
X104306Y48997D02*
X102945Y48863D01*
X101348Y48379D01*
X99876Y47592D01*
X98585Y46533D01*
X97526Y45243D01*
X96740Y43770D01*
X96255Y42173D01*
X96121Y40812D01*
X104306D01*
Y48997D01*
D02*
G37*
G36*
X104906Y48997D02*
Y40812D01*
X113092D01*
X112958Y42173D01*
X112473Y43770D01*
X111686Y45243D01*
X110627Y46533D01*
X109337Y47592D01*
X107865Y48379D01*
X106267Y48863D01*
X104906Y48997D01*
D02*
G37*
G36*
X21683Y37214D02*
X20300D01*
Y36028D01*
X21683D01*
Y37214D01*
D02*
G37*
G36*
X10000Y56537D02*
X8725Y56411D01*
X7498Y56039D01*
X6368Y55435D01*
X5378Y54622D01*
X4565Y53632D01*
X3961Y52502D01*
X3589Y51275D01*
X3463Y50000D01*
X3589Y48725D01*
X3961Y47498D01*
X4565Y46368D01*
X5378Y45378D01*
X6368Y44565D01*
X7498Y43961D01*
X8725Y43589D01*
X10000Y43463D01*
X11275Y43589D01*
X12502Y43961D01*
X13632Y44565D01*
X14622Y45378D01*
X15435Y46368D01*
X16039Y47498D01*
X16303Y48369D01*
X22297D01*
X22628Y48037D01*
Y45798D01*
X24629D01*
Y42982D01*
X24479D01*
Y40291D01*
X21683D01*
Y40758D01*
X18317D01*
Y37786D01*
X21683D01*
Y38252D01*
X24479D01*
Y37845D01*
X27719D01*
X28041Y37845D01*
X28130D01*
X28219D01*
X28541Y37845D01*
X29700D01*
Y40413D01*
Y42982D01*
X28541D01*
X28219Y42982D01*
X27891Y43346D01*
Y46713D01*
X27767Y47337D01*
X27413Y47866D01*
X27372Y47908D01*
Y50147D01*
X25132D01*
X24126Y51153D01*
X23597Y51507D01*
X22972Y51631D01*
X16303D01*
X16039Y52502D01*
X15435Y53632D01*
X14622Y54622D01*
X13632Y55435D01*
X12502Y56039D01*
X11275Y56411D01*
X10000Y56537D01*
D02*
G37*
G36*
X41683Y33257D02*
X38317D01*
Y32689D01*
X34772D01*
X34420Y32619D01*
X34123Y32421D01*
X33857Y32155D01*
X31959D01*
Y27018D01*
X35521D01*
Y30854D01*
X38317D01*
Y30286D01*
X41683D01*
Y33257D01*
D02*
G37*
G36*
X61360Y40212D02*
X53174D01*
Y32026D01*
X54535Y32160D01*
X56133Y32645D01*
X57605Y33432D01*
X58895Y34491D01*
X59954Y35781D01*
X60741Y37253D01*
X61225Y38851D01*
X61360Y40212D01*
D02*
G37*
G36*
X19700Y31472D02*
X18317D01*
Y30286D01*
X19700D01*
Y31472D01*
D02*
G37*
G36*
X21683D02*
X20300D01*
Y30286D01*
X21683D01*
Y31472D01*
D02*
G37*
G36*
X113092Y40212D02*
X104906D01*
Y32026D01*
X106267Y32160D01*
X107865Y32645D01*
X109337Y33432D01*
X110627Y34491D01*
X111686Y35781D01*
X112473Y37253D01*
X112958Y38851D01*
X113092Y40212D01*
D02*
G37*
G36*
X19700Y33257D02*
X18317D01*
Y32072D01*
X19700D01*
Y33257D01*
D02*
G37*
G36*
X21683D02*
X20300D01*
Y32072D01*
X21683D01*
Y33257D01*
D02*
G37*
G36*
X104306Y40212D02*
X96121D01*
X96255Y38851D01*
X96740Y37253D01*
X97526Y35781D01*
X98585Y34491D01*
X99876Y33432D01*
X101348Y32645D01*
X102945Y32160D01*
X104306Y32026D01*
Y40212D01*
D02*
G37*
G36*
X52574Y40212D02*
X44389D01*
X44523Y38851D01*
X45007Y37253D01*
X45794Y35781D01*
X46853Y34491D01*
X48143Y33432D01*
X49615Y32645D01*
X51213Y32160D01*
X52574Y32026D01*
Y40212D01*
D02*
G37*
G36*
X44714Y106683D02*
X41743D01*
Y103606D01*
X41486Y103222D01*
X41342Y102500D01*
X41486Y101778D01*
X41895Y101166D01*
X42507Y100757D01*
X43228Y100614D01*
X43396Y100476D01*
Y98770D01*
Y97800D01*
X47943D01*
Y98770D01*
Y101348D01*
X45822D01*
X45041Y102129D01*
X45115Y102500D01*
X45085Y102649D01*
X45239Y103114D01*
X45258Y103131D01*
X45444Y103301D01*
X45449Y103306D01*
X45451Y103307D01*
X45456Y103312D01*
X45462Y103317D01*
X45482D01*
X45519Y103317D01*
X45608D01*
X45648Y103317D01*
X46472D01*
Y104700D01*
X45286D01*
Y104198D01*
X44786Y103947D01*
X44714Y104000D01*
Y106683D01*
D02*
G37*
G36*
X81683Y180757D02*
X80300D01*
Y179572D01*
X81683D01*
Y180757D01*
D02*
G37*
G36*
X73972Y182683D02*
X72786D01*
Y181300D01*
X73972D01*
Y182683D01*
D02*
G37*
G36*
X75757Y180700D02*
X74572D01*
Y179317D01*
X75757D01*
Y180700D01*
D02*
G37*
G36*
X79700Y180757D02*
X78317D01*
Y179572D01*
X79700D01*
Y180757D01*
D02*
G37*
G36*
X75757Y182683D02*
X74572D01*
Y181300D01*
X75757D01*
Y182683D01*
D02*
G37*
G36*
X74734Y185700D02*
X73056D01*
Y183628D01*
X74734D01*
Y185700D01*
D02*
G37*
G36*
X72456Y188372D02*
X70778D01*
Y186300D01*
X72456D01*
Y188372D01*
D02*
G37*
G36*
X79700Y182929D02*
X78317D01*
Y181743D01*
X79700D01*
Y182929D01*
D02*
G37*
G36*
X72456Y185700D02*
X70778D01*
Y183628D01*
X72456D01*
Y185700D01*
D02*
G37*
G36*
X73972Y180700D02*
X72786D01*
Y179317D01*
X73972D01*
Y180700D01*
D02*
G37*
G36*
X60147Y168927D02*
X58568D01*
Y166264D01*
X60147D01*
Y168927D01*
D02*
G37*
G36*
X68150Y174247D02*
X66600D01*
Y173272D01*
X68150D01*
Y174247D01*
D02*
G37*
G36*
X91112Y168927D02*
X89532D01*
Y166264D01*
X91112D01*
Y168927D01*
D02*
G37*
G36*
X57968D02*
X56388D01*
Y166264D01*
X57968D01*
Y168927D01*
D02*
G37*
G36*
X102500Y186537D02*
X101225Y186411D01*
X99998Y186039D01*
X98868Y185435D01*
X97878Y184622D01*
X97065Y183632D01*
X96461Y182502D01*
X96089Y181275D01*
X95963Y180000D01*
X96089Y178725D01*
X96461Y177498D01*
X97065Y176368D01*
X97878Y175378D01*
X98868Y174565D01*
X99998Y173961D01*
X101225Y173589D01*
X102500Y173463D01*
X103775Y173589D01*
X105002Y173961D01*
X106132Y174565D01*
X107122Y175378D01*
X107935Y176368D01*
X108539Y177498D01*
X108911Y178725D01*
X109037Y180000D01*
X108911Y181275D01*
X108539Y182502D01*
X107935Y183632D01*
X107122Y184622D01*
X106132Y185435D01*
X105002Y186039D01*
X103775Y186411D01*
X102500Y186537D01*
D02*
G37*
G36*
X75757Y177683D02*
X74572D01*
Y176300D01*
X75757D01*
Y177683D01*
D02*
G37*
G36*
X79700Y178972D02*
X78317D01*
Y177786D01*
X79700D01*
Y178972D01*
D02*
G37*
G36*
X75757Y175700D02*
X74572D01*
Y174317D01*
X75757D01*
Y175700D01*
D02*
G37*
G36*
X73972Y177683D02*
X72786D01*
Y176300D01*
X73972D01*
Y177683D01*
D02*
G37*
G36*
X13258Y198683D02*
X12072D01*
Y197300D01*
X13258D01*
Y198683D01*
D02*
G37*
G36*
X88972Y199700D02*
X87786D01*
Y198317D01*
X88972D01*
Y199700D01*
D02*
G37*
G36*
X76685Y202200D02*
X70477D01*
Y195993D01*
X71452Y196089D01*
X72679Y196461D01*
X73809Y197065D01*
X74800Y197878D01*
X75612Y198868D01*
X76217Y199998D01*
X76588Y201225D01*
X76685Y202200D01*
D02*
G37*
G36*
X11472Y198683D02*
X10286D01*
Y197300D01*
X11472D01*
Y198683D01*
D02*
G37*
G36*
X90758Y199700D02*
X89572D01*
Y198317D01*
X90758D01*
Y199700D01*
D02*
G37*
G36*
X29700Y212116D02*
X28795Y211997D01*
X27672Y211532D01*
X26708Y210792D01*
X25968Y209828D01*
X25503Y208705D01*
X25384Y207800D01*
X29700D01*
Y212116D01*
D02*
G37*
G36*
X30300D02*
Y207800D01*
X34616D01*
X34497Y208705D01*
X34032Y209828D01*
X33292Y210792D01*
X32328Y211532D01*
X31205Y211997D01*
X30300Y212116D01*
D02*
G37*
G36*
X29700Y207200D02*
X25384D01*
X25503Y206295D01*
X25968Y205172D01*
X26708Y204208D01*
X27672Y203468D01*
X28795Y203003D01*
X29700Y202884D01*
Y207200D01*
D02*
G37*
G36*
X34616D02*
X30300D01*
Y202884D01*
X31205Y203003D01*
X32328Y203468D01*
X33292Y204208D01*
X34032Y205172D01*
X34497Y206295D01*
X34616Y207200D01*
D02*
G37*
G36*
X69877Y202200D02*
X63670D01*
X63766Y201225D01*
X64138Y199998D01*
X64742Y198868D01*
X65555Y197878D01*
X66545Y197065D01*
X67676Y196461D01*
X68902Y196089D01*
X69877Y195993D01*
Y202200D01*
D02*
G37*
G36*
X67000Y191386D02*
X66278Y191243D01*
X65666Y190834D01*
X65257Y190222D01*
X65114Y189500D01*
X65241Y188861D01*
X65247Y188736D01*
X64901Y188376D01*
X64768Y188377D01*
X64222Y188743D01*
X63500Y188886D01*
X62778Y188743D01*
X62166Y188334D01*
X61757Y187722D01*
X61614Y187000D01*
X61661Y186765D01*
X61235Y186339D01*
X61000Y186386D01*
X60278Y186243D01*
X59758Y185895D01*
X59258Y186054D01*
Y187183D01*
X59258Y187183D01*
X59318Y187658D01*
X59386Y188000D01*
X59243Y188722D01*
X58834Y189334D01*
X58222Y189743D01*
X57500Y189886D01*
X56778Y189743D01*
X56166Y189334D01*
X55757Y188722D01*
X55614Y188000D01*
X55677Y187683D01*
X55266Y187183D01*
X52743D01*
X52742Y187183D01*
Y187183D01*
X52259Y187218D01*
X52222Y187243D01*
X51500Y187386D01*
X50778Y187243D01*
X50166Y186834D01*
X49757Y186222D01*
X49614Y185500D01*
X49757Y184778D01*
X50166Y184166D01*
X50778Y183757D01*
X51500Y183614D01*
X52222Y183757D01*
X52267Y183787D01*
X52742Y183817D01*
Y183817D01*
X52743Y183817D01*
X53894D01*
X54893Y182818D01*
X54647Y182357D01*
X54500Y182386D01*
X53778Y182243D01*
X53166Y181834D01*
X52757Y181222D01*
X52614Y180500D01*
X52757Y179778D01*
X52817Y179688D01*
Y176786D01*
X56183D01*
Y177252D01*
X56850D01*
Y177209D01*
Y176816D01*
X58700D01*
Y176216D01*
X56850D01*
Y175748D01*
X56183D01*
Y176214D01*
X52817D01*
Y173312D01*
X52757Y173222D01*
X52614Y172500D01*
X52757Y171778D01*
X53166Y171166D01*
X53778Y170757D01*
X54500Y170614D01*
X55222Y170757D01*
X55834Y171166D01*
X56243Y171778D01*
X56386Y172500D01*
X56283Y173021D01*
X56635Y173467D01*
X56850Y173429D01*
Y173272D01*
X60241D01*
Y171850D01*
X63184D01*
Y173700D01*
X63784D01*
Y171850D01*
X64759D01*
Y173272D01*
X66000D01*
Y174547D01*
X66300D01*
Y174847D01*
X68150D01*
Y175241D01*
Y176216D01*
X66300D01*
Y176816D01*
X68150D01*
Y177209D01*
Y177465D01*
X69243D01*
Y174317D01*
X69243Y174317D01*
X69182Y173842D01*
X69114Y173500D01*
X69257Y172778D01*
X69666Y172166D01*
X70278Y171757D01*
X71000Y171614D01*
X71722Y171757D01*
X72334Y172166D01*
X72743Y172778D01*
X72886Y173500D01*
X72823Y173817D01*
X73233Y174317D01*
X73972D01*
Y175700D01*
X72786D01*
Y175549D01*
X72310Y175251D01*
X72286Y175256D01*
X72214Y175363D01*
Y177683D01*
X71748D01*
Y179317D01*
X72214D01*
Y182683D01*
X69243D01*
Y181472D01*
X68150D01*
Y181728D01*
X67320D01*
Y183628D01*
X69222D01*
Y188372D01*
X69027D01*
X68761Y188872D01*
X68886Y189500D01*
X68743Y190222D01*
X68334Y190834D01*
X67722Y191243D01*
X67000Y191386D01*
D02*
G37*
G36*
X88972Y191683D02*
X87786D01*
Y190561D01*
X87286Y190294D01*
X87214Y190342D01*
Y191683D01*
X84242D01*
Y188317D01*
X85969D01*
X86480Y187806D01*
Y186604D01*
X83652D01*
Y185350D01*
X82863D01*
X81683Y186531D01*
Y188258D01*
X81683Y188258D01*
X81683D01*
X81718Y188741D01*
X81743Y188778D01*
X81886Y189500D01*
X81743Y190222D01*
X81334Y190834D01*
X80722Y191243D01*
X80000Y191386D01*
X79278Y191243D01*
X78666Y190834D01*
X78257Y190222D01*
X78114Y189500D01*
X78257Y188778D01*
X78287Y188733D01*
X78317Y188258D01*
X78317D01*
X78317Y188258D01*
Y185286D01*
X79658D01*
X79706Y185214D01*
X79439Y184714D01*
X78317D01*
Y183529D01*
X80000D01*
Y183229D01*
X80300D01*
Y181743D01*
X81683D01*
Y183033D01*
X81797Y183144D01*
X82183Y183362D01*
X82441Y183311D01*
X83652D01*
Y182057D01*
X83849D01*
X84001Y181558D01*
X83666Y181334D01*
X83257Y180722D01*
X83114Y180000D01*
X83257Y179278D01*
X83666Y178666D01*
X84001Y178443D01*
X83849Y177943D01*
X83652D01*
Y177741D01*
X83242Y177456D01*
X83152Y177473D01*
X82441Y177615D01*
X82143Y177555D01*
X81791Y177856D01*
X81685Y177971D01*
X81684Y177972D01*
X81684Y177972D01*
X81683Y177973D01*
X81683Y177974D01*
Y177974D01*
Y177977D01*
X81683Y178012D01*
Y178036D01*
X81683Y178046D01*
Y178972D01*
X80300D01*
Y177786D01*
X80743D01*
X80994Y177286D01*
X80941Y177214D01*
X78317D01*
Y174242D01*
X81335D01*
X81719Y173986D01*
X82441Y173842D01*
X83152Y173984D01*
X83242Y174001D01*
X83652Y173716D01*
Y173396D01*
X87200D01*
Y175670D01*
X87800D01*
Y173396D01*
X91348D01*
Y176934D01*
X91480Y177013D01*
X91980Y176730D01*
Y174500D01*
X92058Y174110D01*
X92279Y173779D01*
X97228Y168830D01*
X97065Y168632D01*
X96461Y167502D01*
X96089Y166275D01*
X95963Y165000D01*
X96089Y163725D01*
X96461Y162498D01*
X97065Y161368D01*
X97878Y160378D01*
X98868Y159565D01*
X99998Y158961D01*
X101225Y158589D01*
X102500Y158463D01*
X103775Y158589D01*
X105002Y158961D01*
X106132Y159565D01*
X107122Y160378D01*
X107935Y161368D01*
X108539Y162498D01*
X108911Y163725D01*
X109037Y165000D01*
X108911Y166275D01*
X108539Y167502D01*
X107935Y168632D01*
X107122Y169622D01*
X106132Y170435D01*
X105002Y171039D01*
X103775Y171411D01*
X102500Y171537D01*
X101225Y171411D01*
X99998Y171039D01*
X98868Y170435D01*
X98670Y170272D01*
X94020Y174922D01*
Y180500D01*
X93942Y180890D01*
X93721Y181221D01*
X91348Y183594D01*
Y186604D01*
X88520D01*
Y188228D01*
X88593Y188317D01*
X88972D01*
Y190000D01*
Y191683D01*
D02*
G37*
G36*
X74734Y188372D02*
X73056D01*
Y186300D01*
X74734D01*
Y188372D01*
D02*
G37*
G36*
X90758Y189700D02*
X89572D01*
Y188317D01*
X90758D01*
Y189700D01*
D02*
G37*
G36*
Y191683D02*
X89572D01*
Y190300D01*
X90758D01*
Y191683D01*
D02*
G37*
G36*
X11472Y196700D02*
X10286D01*
Y195317D01*
X11472D01*
Y196700D01*
D02*
G37*
G36*
X13258D02*
X12072D01*
Y195317D01*
X13258D01*
Y196700D01*
D02*
G37*
G36*
X13956Y194372D02*
X12278D01*
Y192300D01*
X13956D01*
Y194372D01*
D02*
G37*
G36*
X16234D02*
X14556D01*
Y192300D01*
X16234D01*
Y194372D01*
D02*
G37*
G36*
X91289Y139380D02*
X63711D01*
Y111802D01*
X91289D01*
Y126873D01*
X96795D01*
X97065Y126368D01*
X97878Y125378D01*
X98868Y124565D01*
X99998Y123961D01*
X100869Y123697D01*
Y119202D01*
X100128D01*
Y114853D01*
X104872D01*
Y119202D01*
X104131D01*
Y123697D01*
X105002Y123961D01*
X106132Y124565D01*
X107122Y125378D01*
X107935Y126368D01*
X108539Y127498D01*
X108911Y128725D01*
X109037Y130000D01*
X108911Y131275D01*
X108539Y132502D01*
X107935Y133632D01*
X107122Y134622D01*
X106132Y135435D01*
X105002Y136039D01*
X103775Y136411D01*
X102500Y136537D01*
X101225Y136411D01*
X99998Y136039D01*
X98868Y135435D01*
X97878Y134622D01*
X97065Y133632D01*
X96795Y133127D01*
X91289D01*
Y139380D01*
D02*
G37*
G36*
X7929Y144183D02*
X6742D01*
Y142800D01*
X7929D01*
Y144183D01*
D02*
G37*
G36*
X46472Y106683D02*
X45286D01*
Y105300D01*
X46472D01*
Y106683D01*
D02*
G37*
G36*
X48257D02*
X47072D01*
Y105300D01*
X48257D01*
Y106683D01*
D02*
G37*
G36*
X108939Y149000D02*
X103500D01*
Y143561D01*
X103775Y143589D01*
X105002Y143961D01*
X106132Y144565D01*
X107122Y145378D01*
X107935Y146368D01*
X108539Y147498D01*
X108911Y148725D01*
X108939Y149000D01*
D02*
G37*
G36*
X60147Y148736D02*
X58568D01*
Y146073D01*
X60147D01*
Y148736D01*
D02*
G37*
G36*
X68612Y168927D02*
X64853D01*
Y163002D01*
X65713D01*
Y159044D01*
X65399Y158834D01*
X64990Y158222D01*
X64846Y157500D01*
X64990Y156778D01*
X65399Y156166D01*
X65713Y155956D01*
Y151998D01*
X64853D01*
Y146073D01*
X68612D01*
Y151998D01*
X67752D01*
Y155956D01*
X68066Y156166D01*
X68475Y156778D01*
X68619Y157500D01*
X68475Y158222D01*
X68066Y158834D01*
X67752Y159044D01*
Y163002D01*
X68612D01*
Y168927D01*
D02*
G37*
G36*
X101500Y149000D02*
X96061D01*
X96089Y148725D01*
X96461Y147498D01*
X97065Y146368D01*
X97878Y145378D01*
X98868Y144565D01*
X99998Y143961D01*
X101225Y143589D01*
X101500Y143561D01*
Y149000D01*
D02*
G37*
G36*
X57968Y148736D02*
X56388D01*
Y146073D01*
X57968D01*
Y148736D01*
D02*
G37*
G36*
X50428Y104700D02*
X49242D01*
Y103317D01*
X50428D01*
Y104700D01*
D02*
G37*
G36*
X48257Y104700D02*
X47072D01*
Y103317D01*
X48257D01*
Y104700D01*
D02*
G37*
G36*
X90305Y105915D02*
X87555D01*
Y100409D01*
X90305D01*
Y105915D01*
D02*
G37*
G36*
X59700Y103972D02*
X58317D01*
Y102786D01*
X59700D01*
Y103972D01*
D02*
G37*
G36*
X55757Y106683D02*
X52786D01*
Y104000D01*
X52714Y103947D01*
X52214Y104198D01*
Y104700D01*
X51028D01*
Y103317D01*
X51852D01*
X51892D01*
X51982D01*
X52018Y103317D01*
X52038D01*
X52044Y103312D01*
X52049Y103307D01*
X52051Y103306D01*
X52056Y103301D01*
X52261Y103114D01*
X52415Y102649D01*
X52385Y102500D01*
X52515Y101848D01*
X52386Y101510D01*
X52299Y101348D01*
X52057D01*
Y98770D01*
Y96211D01*
Y93652D01*
X56604D01*
Y93921D01*
X58169D01*
X58317Y93800D01*
Y93529D01*
X60000D01*
X61683D01*
Y94714D01*
X60562D01*
X60294Y95214D01*
X60342Y95286D01*
X61683D01*
Y95752D01*
X64695D01*
Y92904D01*
X72194D01*
Y105915D01*
X64695D01*
Y102624D01*
X64195Y102426D01*
X63722Y102743D01*
X63000Y102886D01*
X62490Y102785D01*
X62029Y102703D01*
X62025Y102706D01*
X61991Y102729D01*
X61973Y102742D01*
X61907Y102788D01*
X61884Y102805D01*
X61727Y102915D01*
X61713Y102925D01*
X61707Y102929D01*
X61700Y102934D01*
X61683Y102946D01*
Y102946D01*
Y102969D01*
X61683Y103015D01*
X61683Y103187D01*
Y103190D01*
Y103190D01*
Y103972D01*
X60300D01*
Y102786D01*
X60951D01*
X61249Y102310D01*
X61244Y102286D01*
X61137Y102214D01*
X58317D01*
Y100488D01*
X57066Y99236D01*
X56604Y99427D01*
Y101348D01*
X56244D01*
X56158Y101510D01*
X56028Y101848D01*
X56158Y102500D01*
X56014Y103222D01*
X55757Y103606D01*
Y106683D01*
D02*
G37*
G36*
X50428D02*
X49242D01*
Y105300D01*
X50428D01*
Y106683D01*
D02*
G37*
G36*
X52214D02*
X51028D01*
Y105300D01*
X52214D01*
Y106683D01*
D02*
G37*
G36*
X59700Y105757D02*
X58317D01*
Y104572D01*
X59700D01*
Y105757D01*
D02*
G37*
G36*
X61683D02*
X60300D01*
Y104572D01*
X61683D01*
Y105757D01*
D02*
G37*
G36*
X85555Y105915D02*
X82806D01*
Y100409D01*
X85555D01*
Y105915D01*
D02*
G37*
G36*
X7928Y155183D02*
X6742D01*
Y153800D01*
X7928D01*
Y155183D01*
D02*
G37*
G36*
X9714D02*
X8528D01*
Y153800D01*
X9714D01*
Y155183D01*
D02*
G37*
G36*
X7928Y153200D02*
X6742D01*
Y151817D01*
X7928D01*
Y153200D01*
D02*
G37*
G36*
X9714D02*
X8528D01*
Y151817D01*
X9714D01*
Y153200D01*
D02*
G37*
G36*
X57968Y165665D02*
X56388D01*
Y163002D01*
X57968D01*
Y165665D01*
D02*
G37*
G36*
X91112Y165665D02*
X89532D01*
Y163002D01*
X91112D01*
Y165665D01*
D02*
G37*
G36*
X88932Y168927D02*
X87353D01*
Y166264D01*
X88932D01*
Y168927D01*
D02*
G37*
G36*
X60147Y165665D02*
X58568D01*
Y163002D01*
X60147D01*
Y165665D01*
D02*
G37*
G36*
X88932Y165665D02*
X87353D01*
Y163002D01*
X88932D01*
Y165665D01*
D02*
G37*
G36*
X91112Y148735D02*
X89532D01*
Y146073D01*
X91112D01*
Y148735D01*
D02*
G37*
G36*
X88932Y151998D02*
X87353D01*
Y149336D01*
X88932D01*
Y151998D01*
D02*
G37*
G36*
X82647Y168927D02*
X78888D01*
Y163002D01*
X79480D01*
Y162044D01*
X79166Y161834D01*
X78757Y161222D01*
X78614Y160500D01*
X78757Y159778D01*
X79166Y159166D01*
X79480Y158956D01*
Y151998D01*
X78888D01*
Y146073D01*
X82647D01*
Y151998D01*
X81520D01*
Y158956D01*
X81834Y159166D01*
X82243Y159778D01*
X82386Y160500D01*
X82243Y161222D01*
X81834Y161834D01*
X81520Y162044D01*
Y163002D01*
X82647D01*
Y168927D01*
D02*
G37*
G36*
X88932Y148735D02*
X87353D01*
Y146073D01*
X88932D01*
Y148735D01*
D02*
G37*
G36*
X91112Y151998D02*
X89532D01*
Y149336D01*
X91112D01*
Y151998D01*
D02*
G37*
G36*
X101500Y156439D02*
X101225Y156411D01*
X99998Y156039D01*
X98868Y155435D01*
X97878Y154622D01*
X97065Y153632D01*
X96461Y152502D01*
X96089Y151275D01*
X96061Y151000D01*
X101500D01*
Y156439D01*
D02*
G37*
G36*
X103500Y156439D02*
Y151000D01*
X108939D01*
X108911Y151275D01*
X108539Y152502D01*
X107935Y153632D01*
X107122Y154622D01*
X106132Y155435D01*
X105002Y156039D01*
X103775Y156411D01*
X103500Y156439D01*
D02*
G37*
G36*
X57968Y151998D02*
X56388D01*
Y149336D01*
X57968D01*
Y151998D01*
D02*
G37*
G36*
X60147D02*
X58568D01*
Y149336D01*
X60147D01*
Y151998D01*
D02*
G37*
%LPD*%
G36*
X88368Y80824D02*
X88161Y80324D01*
X85300D01*
Y75000D01*
Y69676D01*
X87874D01*
X88142Y69176D01*
X88001Y68966D01*
X87858Y68244D01*
Y67372D01*
X87757Y67222D01*
X87614Y66500D01*
X87757Y65778D01*
X87858Y65628D01*
Y64872D01*
X87766D01*
Y64386D01*
X86500D01*
X86500Y64386D01*
X86500Y64386D01*
X83500D01*
X83500Y64386D01*
X83500Y64386D01*
X82234D01*
Y64872D01*
X81275D01*
Y69676D01*
X84700D01*
Y75000D01*
Y80324D01*
X81152D01*
Y80029D01*
X76723D01*
Y79957D01*
X76437D01*
X76047Y79879D01*
X75716Y79658D01*
X75279Y79221D01*
X75058Y78890D01*
X74980Y78500D01*
Y76748D01*
X74183D01*
Y77214D01*
X72698D01*
X72431Y77714D01*
X72479Y77786D01*
X74183D01*
Y79876D01*
X76676Y82369D01*
X86824D01*
X88368Y80824D01*
D02*
G37*
D10*
X66732Y165965D02*
D03*
Y149035D02*
D03*
X58268D02*
D03*
Y165965D02*
D03*
X80768Y149035D02*
D03*
Y165965D02*
D03*
X89232D02*
D03*
Y149035D02*
D03*
D11*
X14256Y192000D02*
D03*
X8744D02*
D03*
X72756Y186000D02*
D03*
X67244D02*
D03*
X57244Y62500D02*
D03*
X62756D02*
D03*
X62756Y87500D02*
D03*
X57244D02*
D03*
X82244Y87500D02*
D03*
X87756D02*
D03*
X74744Y62500D02*
D03*
X80256D02*
D03*
X95256Y62500D02*
D03*
X89744D02*
D03*
D12*
X11772Y197000D02*
D03*
X8228D02*
D03*
X8228Y142500D02*
D03*
X11772D02*
D03*
X8228Y153500D02*
D03*
X11772D02*
D03*
X74272Y181000D02*
D03*
X70728D02*
D03*
X74272Y176000D02*
D03*
X70728D02*
D03*
X89272Y200000D02*
D03*
X85728D02*
D03*
X50728Y105000D02*
D03*
X54272D02*
D03*
X46772D02*
D03*
X43228D02*
D03*
X27772Y153500D02*
D03*
X24228D02*
D03*
X54228Y185500D02*
D03*
X57772D02*
D03*
X85728Y205000D02*
D03*
X89272D02*
D03*
X89272Y190000D02*
D03*
X85728D02*
D03*
D13*
X80000Y183228D02*
D03*
Y186772D02*
D03*
Y179272D02*
D03*
Y175728D02*
D03*
X72500Y68228D02*
D03*
Y71772D02*
D03*
X11500Y146228D02*
D03*
Y149772D02*
D03*
X54500Y174728D02*
D03*
Y178272D02*
D03*
X60000Y104272D02*
D03*
Y100728D02*
D03*
Y93228D02*
D03*
Y96772D02*
D03*
X40000Y39272D02*
D03*
Y35728D02*
D03*
Y31772D02*
D03*
Y28228D02*
D03*
X72500Y75728D02*
D03*
Y79272D02*
D03*
X20000Y31772D02*
D03*
Y28228D02*
D03*
Y35728D02*
D03*
Y39272D02*
D03*
D14*
X102500Y107972D02*
D03*
Y117028D02*
D03*
X35000Y57028D02*
D03*
Y47972D02*
D03*
X25000Y57028D02*
D03*
Y47972D02*
D03*
D15*
X42500Y79528D02*
D03*
Y70472D02*
D03*
X102500D02*
D03*
Y79528D02*
D03*
D16*
X77500Y125591D02*
D03*
D17*
X86555Y99410D02*
D03*
X68445D02*
D03*
D18*
X11673Y158614D02*
D03*
X13642D02*
D03*
X15610D02*
D03*
X17579D02*
D03*
X19547D02*
D03*
X21516D02*
D03*
X23484D02*
D03*
X25453D02*
D03*
X27421D02*
D03*
X29390D02*
D03*
X31358D02*
D03*
X33327D02*
D03*
Y185386D02*
D03*
X31358D02*
D03*
X29390D02*
D03*
X27421D02*
D03*
X25453D02*
D03*
X23484D02*
D03*
X21516D02*
D03*
X19547D02*
D03*
X17579D02*
D03*
X15610D02*
D03*
X13642D02*
D03*
X11673D02*
D03*
D19*
X35886Y161173D02*
D03*
Y163142D02*
D03*
Y165110D02*
D03*
Y167079D02*
D03*
Y169047D02*
D03*
Y171016D02*
D03*
Y172984D02*
D03*
Y174953D02*
D03*
Y176921D02*
D03*
Y178890D02*
D03*
Y180858D02*
D03*
Y182827D02*
D03*
X9114D02*
D03*
Y180858D02*
D03*
Y178890D02*
D03*
Y176921D02*
D03*
Y174953D02*
D03*
Y172984D02*
D03*
Y171016D02*
D03*
Y169047D02*
D03*
Y167079D02*
D03*
Y165110D02*
D03*
Y163142D02*
D03*
Y161173D02*
D03*
D20*
X22500Y172000D02*
D03*
D21*
X45669Y100059D02*
D03*
Y97500D02*
D03*
Y94941D02*
D03*
X54331Y100059D02*
D03*
Y97500D02*
D03*
Y94941D02*
D03*
D22*
X84941Y175669D02*
D03*
X87500D02*
D03*
X90059D02*
D03*
X84941Y184331D02*
D03*
X87500D02*
D03*
X90059D02*
D03*
D23*
X33740Y29587D02*
D03*
X26260D02*
D03*
Y40413D02*
D03*
X30000D02*
D03*
X33740D02*
D03*
D24*
X54587Y71260D02*
D03*
Y78740D02*
D03*
X65413D02*
D03*
Y75000D02*
D03*
Y71260D02*
D03*
D25*
X85000Y75000D02*
D03*
D26*
X79094Y78937D02*
D03*
Y76968D02*
D03*
Y75000D02*
D03*
Y73032D02*
D03*
Y71063D02*
D03*
X90905Y78937D02*
D03*
Y76968D02*
D03*
Y75000D02*
D03*
Y73032D02*
D03*
Y71063D02*
D03*
D27*
X8059Y135406D02*
D03*
Y123594D02*
D03*
X2941D02*
D03*
Y135406D02*
D03*
D28*
X58700Y180453D02*
D03*
Y178484D02*
D03*
Y176516D02*
D03*
Y174547D02*
D03*
X66300D02*
D03*
Y176516D02*
D03*
Y178484D02*
D03*
Y180453D02*
D03*
D29*
X61516Y173700D02*
D03*
X63484D02*
D03*
Y181300D02*
D03*
X61516D02*
D03*
D30*
X18504Y19685D02*
D03*
X21063D02*
D03*
X23622D02*
D03*
X26181D02*
D03*
X28740D02*
D03*
D31*
X90905Y75000D02*
X95000D01*
X33740Y29587D02*
Y30740D01*
X34772Y31772D01*
X40000D01*
X70728Y173772D02*
X71000Y173500D01*
X70728Y173772D02*
Y176000D01*
X54500Y178272D02*
Y180500D01*
D32*
X80728Y210000D02*
X85728Y205000D01*
X48500Y210000D02*
X80728D01*
X27421Y188921D02*
X48500Y210000D01*
X27421Y185386D02*
Y188921D01*
X850Y177650D02*
Y198350D01*
Y177650D02*
X3547Y174953D01*
X850Y198350D02*
X10000Y207500D01*
X13287Y200787D02*
X20000Y207500D01*
X6287Y200787D02*
X13287D01*
X2250Y196750D02*
X6287Y200787D01*
X35886Y155114D02*
X40000Y151000D01*
X35886Y155114D02*
Y161173D01*
X33327Y151173D02*
Y158614D01*
X27421Y153850D02*
X27772Y153500D01*
X27421Y153850D02*
Y158614D01*
X17500Y156000D02*
X17579Y156079D01*
X15610Y156890D02*
X16657Y155842D01*
X17579Y156079D02*
Y158614D01*
X15610Y156890D02*
Y158614D01*
X20000Y39272D02*
X25118D01*
X76500Y75000D02*
X79094D01*
X76000Y75500D02*
X76500Y75000D01*
X76000Y78500D02*
X76437Y78937D01*
X79094D01*
X76032Y76968D02*
X79094D01*
X72500Y75728D02*
X75772D01*
X76000Y75500D02*
Y78500D01*
X72500Y71772D02*
Y75728D01*
X90905Y76968D02*
X93968D01*
X90905Y73032D02*
X93968D01*
X54331Y94941D02*
X58169D01*
X60000Y96772D01*
X54331Y97500D02*
X56772D01*
X60000Y100728D01*
Y96772D02*
X65807D01*
X68445Y99410D01*
X80000Y175728D02*
X84882D01*
X80000Y186772D02*
X82441Y184331D01*
X84941D01*
X87500D02*
Y188228D01*
X85728Y190000D02*
X87500Y188228D01*
X90059Y183441D02*
Y184331D01*
X66300Y178484D02*
X70713D01*
X66300Y180453D02*
X70181D01*
X70728Y176000D02*
Y180453D01*
X66300D02*
Y185056D01*
X54500Y174728D02*
X58519D01*
X54500Y178272D02*
X58487D01*
X8228Y192516D02*
Y197000D01*
X8744Y183197D02*
X9114Y182827D01*
X8744Y183197D02*
Y192000D01*
X43228Y102500D02*
X45669Y100059D01*
X43228Y105000D02*
X43228Y105000D01*
Y102500D02*
Y105000D01*
X21500Y153500D02*
X24228D01*
X16657Y155842D02*
X20157D01*
X21500Y154500D01*
Y153500D02*
Y154500D01*
X7016Y171016D02*
X9114D01*
X5516Y169516D02*
X7016Y171016D01*
X5500Y161398D02*
X7217Y159681D01*
X5500Y165500D02*
X5890Y165110D01*
X9114D01*
X5500Y161398D02*
Y165500D01*
Y167984D01*
X5516Y166484D02*
Y169516D01*
X7217Y159681D02*
X11673D01*
Y158614D02*
Y159681D01*
X40228Y35500D02*
X43000D01*
X33500Y40654D02*
Y44000D01*
X80000Y186772D02*
Y189500D01*
X54272Y100118D02*
Y102500D01*
Y105000D01*
X85000Y75000D02*
X90905D01*
X79094Y73032D02*
X83031D01*
X79094Y71063D02*
X80256D01*
Y62500D02*
Y71063D01*
X45500Y93000D02*
Y94772D01*
X60272Y101000D02*
X63000D01*
X89272Y205000D02*
X91500D01*
X27772Y153500D02*
X30000D01*
X66732Y149035D02*
Y157500D01*
Y165965D01*
X13642Y185386D02*
Y187358D01*
X15283Y189000D01*
X18500D01*
X4500Y172500D02*
X4984Y172984D01*
X9114D01*
X4397Y176921D02*
X9114D01*
X7693Y180858D02*
X9114D01*
X4500Y180000D02*
X5610Y178890D01*
X9114D01*
X2250Y179068D02*
X4397Y176921D01*
X2250Y179068D02*
Y196750D01*
X4500Y184051D02*
X7693Y180858D01*
X3547Y174953D02*
X9114D01*
X66300Y185056D02*
X66744Y185500D01*
X51500D02*
X53653D01*
X58228Y180924D01*
X57772Y185500D02*
Y187728D01*
X67244Y186000D02*
Y189256D01*
X63500Y181316D02*
Y187000D01*
X61000Y184500D02*
X61516Y183984D01*
Y181300D02*
Y183984D01*
X93000Y174500D02*
X102500Y165000D01*
X93000Y174500D02*
Y180500D01*
X90059Y183441D02*
X93000Y180500D01*
X90059Y178559D02*
X90500Y179000D01*
X90059Y175669D02*
Y178559D01*
X85728Y202500D02*
X104823D01*
X85728Y200000D02*
Y205000D01*
X39016Y172984D02*
X39500Y172500D01*
X35886Y172984D02*
X39016D01*
X35886Y169047D02*
X44000D01*
X85000Y180000D02*
X87500Y182500D01*
Y184331D01*
X54500Y172500D02*
Y174728D01*
X43953Y174953D02*
X44000Y175000D01*
X35886Y174953D02*
X43953D01*
X35886Y180858D02*
X44642D01*
X49500Y176000D01*
Y166500D02*
Y176000D01*
X80500Y165697D02*
X80768Y165965D01*
X80500Y160500D02*
Y165697D01*
Y149303D02*
X80768Y149035D01*
X80500Y149303D02*
Y160500D01*
D33*
X8059Y119559D02*
Y123594D01*
X2941Y119059D02*
Y123594D01*
Y135406D02*
Y139941D01*
X13642Y155370D02*
Y158614D01*
X11772Y153500D02*
X13642Y155370D01*
X8059Y138559D02*
X11772Y142272D01*
X8059Y135406D02*
Y138559D01*
X11772Y142500D02*
Y145957D01*
Y150043D02*
Y153500D01*
D34*
X18504Y19685D02*
Y26732D01*
X20000Y28228D01*
X35000Y47972D02*
X36500Y46472D01*
Y37500D02*
Y46472D01*
Y37500D02*
Y39272D01*
X40000D01*
X20000Y28228D02*
X24902D01*
X26260Y29587D01*
X33173Y36500D01*
X35500D01*
X36500Y37500D01*
X43000Y80028D02*
Y83000D01*
X54500Y76000D02*
Y78654D01*
X85000Y75000D02*
Y81000D01*
Y69000D02*
Y75000D01*
D35*
X10000Y50000D02*
X22972D01*
X26260Y40413D02*
Y46713D01*
X22972Y50000D02*
X25000Y47972D01*
X26260Y46713D01*
X25000Y57028D02*
X35000D01*
X65413Y71260D02*
X67760D01*
X69500Y73000D01*
Y77500D01*
X68260Y78740D02*
X69500Y77500D01*
X65413Y78740D02*
X68260D01*
X90905Y79500D02*
Y80594D01*
X43287Y71260D02*
X54587D01*
X96528Y79528D02*
X102500D01*
X93968Y76968D02*
X96528Y79528D01*
X93968Y73032D02*
X96528Y70472D01*
X102500D01*
X54587Y78740D02*
Y84842D01*
X57244Y87500D01*
X102500Y117028D02*
X102500Y117028D01*
X102500Y117028D02*
Y130000D01*
X102500Y95000D02*
Y107972D01*
X43287Y78740D02*
X54587D01*
X69500Y77500D02*
X76000Y84000D01*
X87500D01*
X87756Y83744D02*
Y87500D01*
Y83744D02*
X90905Y80594D01*
Y69406D02*
Y70500D01*
D36*
X35000Y57028D02*
X57538D01*
X62756Y62246D01*
Y62500D02*
X65413Y65158D01*
Y71260D01*
X89744Y62500D02*
Y68244D01*
X90905Y69406D01*
X80256Y62500D02*
X80256Y62500D01*
X89744D01*
D37*
X81910Y130000D02*
X102500D01*
D38*
X10000Y35000D02*
D03*
Y50000D02*
D03*
X102500Y95000D02*
D03*
Y130000D02*
D03*
Y150000D02*
D03*
Y165000D02*
D03*
Y180000D02*
D03*
X70177Y202500D02*
D03*
X104823D02*
D03*
D39*
X30000Y207500D02*
D03*
X20000D02*
D03*
X10000D02*
D03*
D40*
X104606Y40512D02*
D03*
X52874D02*
D03*
D41*
X92520Y51181D02*
D03*
X82677D02*
D03*
X74803D02*
D03*
X64961D02*
D03*
D42*
X22500Y172000D02*
D03*
Y164500D02*
D03*
X15000Y172000D02*
D03*
X22500Y179500D02*
D03*
X30000Y172000D02*
D03*
Y164500D02*
D03*
Y179500D02*
D03*
X15000D02*
D03*
Y164500D02*
D03*
D43*
X37795Y9205D02*
D03*
X9449D02*
D03*
D44*
X33169Y19716D02*
D03*
X14075D02*
D03*
D45*
X-19685Y196850D02*
D03*
X137795Y19685D02*
D03*
D46*
X82000Y92000D02*
D03*
X66000Y90000D02*
D03*
X60000Y76000D02*
D03*
X76000Y168000D02*
D03*
X50000Y148000D02*
D03*
X46000Y160000D02*
D03*
X4000Y158000D02*
D03*
X2000Y164000D02*
D03*
X110236Y188976D02*
D03*
Y173228D02*
D03*
Y157480D02*
D03*
Y141732D02*
D03*
Y118110D02*
D03*
Y102362D02*
D03*
Y62992D02*
D03*
Y86614D02*
D03*
X102362Y212598D02*
D03*
X86614D02*
D03*
X70866D02*
D03*
X39370D02*
D03*
X55118D02*
D03*
Y196850D02*
D03*
X39370D02*
D03*
X23622D02*
D03*
X39370Y141732D02*
D03*
X70866Y157480D02*
D03*
Y141732D02*
D03*
X94488Y86614D02*
D03*
X70866D02*
D03*
X78740Y102362D02*
D03*
X62992Y110236D02*
D03*
X55118D02*
D03*
Y125984D02*
D03*
Y141732D02*
D03*
X23622Y149606D02*
D03*
X31496Y141732D02*
D03*
X39370Y125984D02*
D03*
Y110236D02*
D03*
Y62992D02*
D03*
X23622D02*
D03*
Y78740D02*
D03*
Y94488D02*
D03*
Y110236D02*
D03*
X7874D02*
D03*
Y94488D02*
D03*
Y78740D02*
D03*
Y62992D02*
D03*
X40000Y151000D02*
D03*
X33500D02*
D03*
X3000Y149000D02*
D03*
Y119000D02*
D03*
X7500D02*
D03*
X3000Y153500D02*
D03*
Y144500D02*
D03*
X7000Y149000D02*
D03*
X16000Y153500D02*
D03*
Y149000D02*
D03*
Y144500D02*
D03*
X3000Y140000D02*
D03*
X16500D02*
D03*
X21000D02*
D03*
X25500D02*
D03*
X28000Y136000D02*
D03*
Y131500D02*
D03*
Y127000D02*
D03*
Y122500D02*
D03*
X25500Y119000D02*
D03*
X21000D02*
D03*
X16500D02*
D03*
X12000D02*
D03*
X43000Y83000D02*
D03*
X54587Y84842D02*
D03*
X54500Y76000D02*
D03*
X50000Y78740D02*
D03*
X54500Y82000D02*
D03*
X43228Y102500D02*
D03*
X82441Y175728D02*
D03*
X71000Y173500D02*
D03*
X54500Y180500D02*
D03*
X21500Y153500D02*
D03*
X8744Y186500D02*
D03*
X43000Y35500D02*
D03*
X33500Y44000D02*
D03*
X80000Y189500D02*
D03*
X54272Y102500D02*
D03*
X85000Y81000D02*
D03*
Y69000D02*
D03*
X83500Y62500D02*
D03*
X86500D02*
D03*
X89500Y66500D02*
D03*
X45500Y93000D02*
D03*
X63000Y101000D02*
D03*
X91500Y205000D02*
D03*
X66732Y157500D02*
D03*
X30000Y153500D02*
D03*
X18500Y189000D02*
D03*
X4500Y172500D02*
D03*
Y180000D02*
D03*
Y184051D02*
D03*
X61000Y184500D02*
D03*
X51500Y185500D02*
D03*
X57500Y188000D02*
D03*
X67000Y189500D02*
D03*
X63500Y187000D02*
D03*
X90500Y179000D02*
D03*
X5500Y168000D02*
D03*
X39500Y172500D02*
D03*
X85000Y180000D02*
D03*
X44000Y169000D02*
D03*
X54500Y172500D02*
D03*
X44000Y175000D02*
D03*
X49500Y166500D02*
D03*
X80500Y160500D02*
D03*
M02*
